<svg id="svg" version="1.1" xmlns="http://www.w3.org/2000/svg" xmlns:xlink="http://www.w3.org/1999/xlink" width="400" height="400" viewBox="0, 0, 400,400"><g id="svgg"><path id="path0" d="M76.600 200.611 C 65.553 202.405,56.148 209.141,50.996 218.952 C 47.273 226.040,46.832 229.540,46.814 252.100 L 46.800 270.400 85.500 270.400 C 106.785 270.400,175.635 270.280,238.500 270.133 L 352.800 269.867 352.793 250.234 C 352.786 229.862,352.681 228.291,351.001 223.342 C 348.527 216.054,342.260 208.609,335.400 204.807 C 330.979 202.356,327.559 201.167,322.767 200.414 C 318.525 199.747,80.750 199.938,76.600 200.611 " stroke="none" fill="#fcab04" fill-rule="evenodd"></path><path id="path1" d="M23.200 339.773 L 23.200 364.400 70.403 364.400 L 117.606 364.400 117.503 340.900 L 117.400 317.400 73.400 317.192 C 26.839 316.972,29.495 317.070,23.900 315.360 C 23.239 315.158,23.200 316.504,23.200 339.773 M374.227 315.956 C 373.704 316.803,368.697 316.930,326.800 317.159 L 282.600 317.400 282.497 340.900 L 282.394 364.400 329.597 364.400 L 376.800 364.400 376.800 340.000 L 376.800 315.600 375.624 315.600 C 374.977 315.600,374.348 315.760,374.227 315.956 " stroke="none" fill="#505050" fill-rule="evenodd"></path><path id="path2" d="M95.821 35.967 C 95.702 36.158,94.884 36.425,94.003 36.558 C 93.121 36.691,91.679 36.909,90.797 37.042 C 89.916 37.175,89.095 37.445,88.974 37.642 C 88.852 37.839,88.324 38.000,87.800 38.000 C 87.276 38.000,86.736 38.180,86.600 38.400 C 86.464 38.620,85.913 38.800,85.376 38.800 C 84.839 38.800,84.400 38.980,84.400 39.200 C 84.400 39.420,83.950 39.600,83.400 39.600 C 82.850 39.600,82.400 39.780,82.400 40.000 C 82.400 40.220,82.055 40.400,81.633 40.400 C 81.212 40.400,80.776 40.625,80.665 40.900 C 80.511 41.281,80.456 41.275,80.432 40.871 C 80.408 40.472,80.245 40.497,79.768 40.975 C 79.420 41.323,78.970 41.505,78.768 41.380 C 78.565 41.255,78.400 41.343,78.400 41.576 C 78.400 41.809,78.046 42.000,77.614 42.000 C 77.182 42.000,76.628 42.374,76.383 42.831 C 76.129 43.307,75.695 43.569,75.369 43.444 C 75.056 43.323,74.800 43.399,74.800 43.613 C 74.800 43.826,74.440 44.000,74.000 44.000 C 73.556 44.000,73.200 44.267,73.200 44.600 C 73.200 44.930,73.020 45.200,72.800 45.200 C 72.580 45.200,72.310 45.200,72.200 45.200 C 72.090 45.200,71.667 45.515,71.260 45.900 C 70.046 47.049,68.800 48.006,68.800 47.790 C 68.800 47.679,68.007 48.356,67.039 49.294 C 66.070 50.232,64.855 51.383,64.339 51.850 C 63.822 52.318,62.890 53.263,62.266 53.950 C 61.642 54.638,60.957 55.200,60.742 55.200 C 60.528 55.200,60.464 55.380,60.600 55.600 C 60.736 55.820,60.586 56.000,60.267 56.000 C 59.948 56.000,59.572 56.457,59.432 57.016 C 59.291 57.575,59.002 57.925,58.788 57.793 C 58.575 57.661,58.399 57.788,58.398 58.076 C 58.397 58.364,57.812 59.223,57.098 59.985 C 56.384 60.747,55.845 61.422,55.900 61.485 C 55.955 61.548,55.997 61.915,55.994 62.300 C 55.989 62.898,55.931 62.913,55.600 62.400 C 55.282 61.908,55.211 61.950,55.206 62.638 C 55.203 63.099,54.840 63.802,54.400 64.200 C 53.960 64.598,53.600 65.267,53.600 65.686 C 53.600 66.159,53.426 66.339,53.138 66.162 C 52.882 66.004,52.784 66.050,52.918 66.267 C 53.050 66.482,52.898 67.160,52.580 67.774 C 52.261 68.389,52.000 69.141,52.000 69.446 C 52.000 69.751,51.820 70.000,51.600 70.000 C 51.380 70.000,51.200 70.272,51.200 70.605 C 51.200 71.161,50.478 72.722,50.000 73.200 C 49.890 73.310,49.744 73.760,49.675 74.200 C 49.606 74.640,49.201 75.952,48.775 77.115 C 48.349 78.278,48.000 79.684,48.000 80.239 C 48.000 80.793,47.853 81.156,47.674 81.045 C 47.494 80.935,47.304 81.677,47.251 82.696 C 47.199 83.715,47.039 84.737,46.897 84.967 C 46.754 85.198,46.599 85.749,46.551 86.193 C 46.207 89.394,46.912 228.396,47.269 227.600 C 47.416 227.270,47.931 225.740,48.413 224.200 C 52.606 210.792,64.503 201.322,78.919 199.918 C 85.065 199.319,323.900 200.076,326.132 200.701 C 326.974 200.937,327.550 201.017,327.412 200.879 C 326.234 199.700,322.838 199.635,261.700 199.618 L 200.000 199.600 200.000 117.596 L 200.000 35.591 148.018 35.604 C 118.878 35.612,95.942 35.771,95.821 35.967 M342.093 59.600 C 342.562 60.351,343.200 60.680,343.200 60.171 C 343.200 59.873,342.125 58.800,341.825 58.800 C 341.698 58.800,341.818 59.160,342.093 59.600 M371.053 129.480 C 370.688 129.845,369.634 130.065,368.400 130.033 C 367.611 130.013,367.526 130.090,368.000 130.398 C 368.472 130.705,368.376 130.789,367.549 130.794 C 366.971 130.797,366.269 131.076,365.989 131.413 C 365.709 131.751,365.284 131.961,365.044 131.881 C 364.804 131.801,364.366 131.977,364.071 132.272 C 363.777 132.566,363.325 132.687,363.068 132.540 C 362.810 132.392,362.711 132.397,362.847 132.549 C 363.141 132.880,360.507 135.600,359.893 135.600 C 359.659 135.600,359.580 135.714,359.719 135.853 C 359.858 135.992,359.438 136.604,358.786 137.213 C 358.134 137.822,357.600 138.512,357.600 138.746 C 357.600 138.980,357.240 139.365,356.800 139.600 C 356.360 139.835,356.000 140.258,356.000 140.539 C 356.000 140.819,355.655 141.419,355.234 141.871 C 354.813 142.323,354.408 143.122,354.334 143.647 C 354.260 144.171,354.020 144.728,353.800 144.885 C 353.540 145.071,353.327 159.639,353.192 186.485 C 353.077 209.208,352.942 227.483,352.892 227.095 C 352.841 226.707,352.638 226.077,352.439 225.695 C 352.240 225.313,351.842 224.190,351.553 223.200 C 351.001 221.311,349.038 217.283,348.335 216.600 C 348.109 216.380,348.532 217.370,349.277 218.800 C 350.021 220.230,350.869 222.210,351.161 223.200 C 351.453 224.190,351.837 225.360,352.015 225.800 C 352.852 227.863,352.962 230.322,353.084 249.699 L 353.214 270.398 276.707 270.499 L 200.200 270.600 200.097 294.100 L 199.994 317.600 241.117 317.600 C 267.505 317.600,282.381 317.459,282.633 317.207 C 282.883 316.957,298.607 316.761,326.013 316.667 C 367.326 316.525,371.110 316.420,374.600 315.313 C 375.260 315.104,376.748 314.980,377.906 315.039 C 379.130 315.100,379.916 314.988,379.783 314.772 C 379.656 314.567,379.936 314.400,380.405 314.400 C 381.324 314.400,382.520 313.453,382.114 313.048 C 381.978 312.911,382.357 312.800,382.957 312.800 C 383.582 312.800,383.942 312.629,383.800 312.400 C 383.664 312.180,383.811 312.000,384.127 312.000 C 384.443 312.000,384.924 311.732,385.196 311.404 C 385.468 311.077,385.878 310.925,386.107 311.066 C 386.336 311.208,386.412 311.143,386.275 310.922 C 386.139 310.701,386.471 310.283,387.014 309.993 C 387.556 309.702,388.000 309.305,388.000 309.109 C 388.000 308.913,388.161 308.852,388.358 308.974 C 388.555 309.096,388.819 308.926,388.946 308.598 C 389.072 308.269,389.423 308.000,389.725 308.000 C 390.028 308.000,390.619 307.609,391.038 307.131 C 391.548 306.550,391.601 306.361,391.200 306.561 C 390.834 306.743,390.870 306.638,391.294 306.290 C 391.675 305.977,391.870 305.604,391.727 305.460 C 391.584 305.317,391.677 305.200,391.933 305.200 C 392.190 305.200,392.400 304.919,392.400 304.576 C 392.400 304.233,392.580 304.064,392.800 304.200 C 393.020 304.336,393.200 304.207,393.200 303.913 C 393.200 303.618,393.560 303.070,394.000 302.693 C 394.440 302.316,394.800 301.725,394.800 301.380 C 394.800 301.035,394.980 300.864,395.200 301.000 C 395.420 301.136,395.600 300.916,395.600 300.512 C 395.600 300.107,395.960 299.517,396.400 299.200 C 396.840 298.883,397.200 298.203,397.200 297.688 C 397.200 297.174,397.342 296.840,397.515 296.948 C 397.688 297.055,397.870 296.668,397.917 296.089 C 397.965 295.509,398.184 294.856,398.402 294.638 C 398.621 294.419,398.800 293.772,398.800 293.200 C 398.800 292.628,399.025 291.935,399.300 291.660 C 399.980 290.980,400.040 145.727,399.361 145.285 C 399.119 145.128,398.917 144.730,398.911 144.400 C 398.894 143.323,398.611 142.612,398.000 142.114 C 397.670 141.845,397.534 141.620,397.697 141.613 C 397.969 141.601,396.983 140.304,395.671 138.947 C 395.381 138.646,395.254 138.400,395.390 138.400 C 395.525 138.400,395.223 137.959,394.718 137.419 C 393.107 135.698,392.842 135.292,393.124 134.978 C 393.276 134.810,393.190 134.792,392.934 134.939 C 392.677 135.086,391.914 134.653,391.238 133.976 C 390.531 133.270,389.811 132.870,389.543 133.035 C 389.252 133.215,389.184 133.149,389.362 132.862 C 389.533 132.585,389.387 132.400,389.000 132.400 C 388.613 132.400,388.467 132.215,388.638 131.938 C 388.807 131.664,388.749 131.585,388.494 131.742 C 388.258 131.888,387.780 131.723,387.432 131.375 C 387.085 131.027,386.800 130.866,386.800 131.017 C 386.800 131.168,386.374 131.013,385.854 130.672 C 385.148 130.210,384.792 130.168,384.454 130.506 C 384.115 130.845,384.000 130.832,384.000 130.456 C 384.000 130.179,383.835 130.055,383.634 130.179 C 383.433 130.303,383.193 130.179,383.101 129.902 C 382.919 129.354,371.577 128.957,371.053 129.480 M328.033 201.344 C 328.505 201.750,330.443 201.993,330.210 201.616 C 330.068 201.387,329.483 201.200,328.910 201.200 C 328.336 201.200,327.942 201.265,328.033 201.344 M333.424 203.387 C 333.851 203.710,334.470 203.979,334.800 203.985 C 335.130 203.990,334.884 203.726,334.254 203.398 C 332.795 202.637,332.425 202.632,333.424 203.387 M337.994 205.982 C 338.541 206.402,339.068 206.666,339.165 206.569 C 339.391 206.342,337.929 205.227,337.400 205.222 C 337.180 205.220,337.447 205.561,337.994 205.982 M346.014 213.438 C 346.035 213.950,347.996 216.286,347.998 215.800 C 347.998 215.580,347.549 214.877,347.000 214.238 C 346.450 213.599,346.006 213.239,346.014 213.438 M26.800 315.994 C 27.130 316.211,27.835 316.391,28.367 316.394 C 29.651 316.402,29.325 316.175,27.600 315.858 C 26.615 315.677,26.378 315.718,26.800 315.994 M54.700 317.100 C 66.195 317.159,85.005 317.159,96.500 317.100 C 107.995 317.041,98.590 316.993,75.600 316.993 C 52.610 316.993,43.205 317.041,54.700 317.100 " stroke="none" fill="#dc3404" fill-rule="evenodd"></path><path id="path3" d="M200.000 117.600 L 200.000 199.600 261.700 199.618 C 323.182 199.635,326.229 199.695,327.447 200.914 C 327.605 201.071,328.156 201.200,328.672 201.200 C 329.188 201.200,329.923 201.360,330.305 201.556 C 330.687 201.752,331.900 202.337,333.000 202.856 C 334.100 203.375,335.060 203.935,335.133 204.100 C 335.207 204.265,335.612 204.400,336.033 204.400 C 336.455 204.400,336.800 204.580,336.800 204.800 C 336.800 205.020,337.035 205.200,337.322 205.200 C 338.609 205.200,346.398 212.972,348.099 215.954 C 349.996 219.281,351.058 221.505,351.559 223.200 C 351.852 224.190,352.238 225.360,352.416 225.800 C 352.595 226.240,352.816 226.870,352.907 227.200 C 353.150 228.081,353.645 87.578,353.403 86.400 C 353.290 85.850,353.087 84.680,352.951 83.800 C 352.816 82.920,352.502 81.940,352.253 81.623 C 351.906 81.181,351.917 81.116,352.300 81.347 C 352.575 81.512,352.800 81.472,352.800 81.257 C 352.800 81.042,352.622 80.807,352.403 80.733 C 352.185 80.660,351.969 80.060,351.922 79.400 C 351.875 78.740,351.514 77.610,351.119 76.888 C 350.723 76.166,350.400 75.041,350.400 74.388 C 350.400 73.735,350.263 73.200,350.096 73.200 C 349.929 73.200,349.556 72.821,349.267 72.358 C 348.978 71.895,348.934 71.636,349.170 71.782 C 349.407 71.928,349.600 71.767,349.600 71.424 C 349.600 71.081,349.420 70.800,349.200 70.800 C 348.980 70.800,348.800 70.612,348.800 70.383 C 348.800 70.154,348.440 69.580,348.000 69.108 C 347.560 68.636,347.200 67.944,347.200 67.570 C 347.200 66.836,346.019 64.339,345.984 65.000 C 345.972 65.220,345.532 64.590,345.005 63.600 C 344.479 62.610,343.497 61.170,342.825 60.400 C 342.152 59.630,341.601 58.784,341.601 58.520 C 341.600 58.256,341.345 57.896,341.032 57.720 C 340.720 57.544,340.405 57.135,340.332 56.811 C 340.260 56.487,339.860 56.037,339.445 55.811 C 339.030 55.585,338.753 55.310,338.830 55.200 C 338.965 55.008,336.976 52.941,334.555 50.759 C 333.920 50.187,333.135 49.332,332.812 48.859 C 332.488 48.387,331.905 48.000,331.515 48.000 C 331.126 48.000,330.582 47.640,330.307 47.200 C 330.032 46.760,329.581 46.400,329.304 46.400 C 329.027 46.400,328.800 46.220,328.800 46.000 C 328.800 45.780,328.570 45.600,328.288 45.600 C 328.007 45.600,327.517 45.240,327.200 44.800 C 326.883 44.360,326.183 44.000,325.645 44.000 C 325.107 44.000,324.785 43.881,324.930 43.737 C 325.275 43.392,320.815 41.143,320.354 41.429 C 320.159 41.549,320.000 41.427,320.000 41.157 C 320.000 40.887,319.880 40.787,319.732 40.934 C 319.585 41.081,319.127 40.896,318.715 40.523 C 318.302 40.149,317.567 39.784,317.082 39.710 C 316.597 39.637,316.140 39.402,316.067 39.188 C 315.993 38.975,315.408 38.800,314.767 38.800 C 314.125 38.800,313.600 38.620,313.600 38.400 C 313.600 38.180,313.060 38.000,312.400 38.000 C 311.740 38.000,311.200 37.838,311.200 37.640 C 311.200 37.442,310.592 37.280,309.848 37.280 C 309.105 37.280,308.127 37.082,307.675 36.840 C 307.223 36.598,306.211 36.400,305.426 36.400 C 304.642 36.400,304.000 36.220,304.000 36.000 C 304.000 35.780,303.719 35.600,303.376 35.600 C 303.025 35.600,302.871 35.792,303.025 36.040 C 303.222 36.360,303.072 36.360,302.475 36.040 C 301.889 35.727,287.019 35.600,250.826 35.600 L 200.000 35.600 200.000 117.600 M374.600 315.277 C 371.234 316.421,367.649 316.524,326.013 316.667 C 302.370 316.748,282.894 316.946,282.733 317.107 C 282.348 317.492,370.547 317.007,372.504 316.614 C 373.331 316.448,374.106 316.151,374.227 315.956 C 374.348 315.760,374.977 315.600,375.624 315.600 C 376.271 315.600,376.800 315.420,376.800 315.200 C 376.800 314.715,376.190 314.736,374.600 315.277 M29.300 316.676 C 29.685 316.776,30.315 316.776,30.700 316.676 C 31.085 316.575,30.770 316.493,30.000 316.493 C 29.230 316.493,28.915 316.575,29.300 316.676 M32.100 317.076 C 32.485 317.176,33.115 317.176,33.500 317.076 C 33.885 316.975,33.570 316.893,32.800 316.893 C 32.030 316.893,31.715 316.975,32.100 317.076 " stroke="none" fill="#cc2c04" fill-rule="evenodd"></path><path id="path4" d="M17.800 129.600 C 17.664 129.820,17.111 130.000,16.571 130.000 C 16.031 130.000,15.277 130.168,14.895 130.374 C 14.513 130.579,13.615 130.983,12.900 131.271 C 12.185 131.560,11.600 131.931,11.600 132.098 C 11.600 132.264,11.365 132.400,11.078 132.400 C 10.611 132.400,9.747 133.080,6.718 135.835 C 5.130 137.279,2.800 140.170,2.800 140.696 C 2.800 140.973,2.620 141.200,2.400 141.200 C 2.180 141.200,2.000 141.560,2.000 142.000 C 2.000 142.440,1.820 142.800,1.600 142.800 C 1.380 142.800,1.200 143.124,1.200 143.520 C 1.200 143.916,0.975 144.465,0.700 144.740 C -0.034 145.474,-0.034 291.326,0.700 292.060 C 0.975 292.335,1.200 293.064,1.200 293.680 C 1.200 294.296,1.380 294.800,1.600 294.800 C 1.820 294.800,2.000 295.216,2.000 295.725 C 2.000 296.233,2.360 297.036,2.800 297.508 C 3.240 297.980,3.600 298.644,3.600 298.983 C 3.600 299.322,3.780 299.600,4.000 299.600 C 4.220 299.600,4.400 299.960,4.400 300.400 C 4.400 300.840,4.580 301.200,4.800 301.200 C 5.020 301.200,5.200 301.427,5.200 301.704 C 5.200 303.019,14.181 312.000,15.496 312.000 C 15.773 312.000,16.000 312.180,16.000 312.400 C 16.000 312.620,16.360 312.800,16.800 312.800 C 17.240 312.800,17.600 312.980,17.600 313.200 C 17.600 313.420,17.878 313.600,18.217 313.600 C 18.556 313.600,19.220 313.960,19.692 314.400 C 20.164 314.840,20.967 315.200,21.475 315.200 C 21.984 315.200,22.400 315.380,22.400 315.600 C 22.400 315.820,22.580 316.000,22.800 316.000 C 23.020 316.000,23.200 315.709,23.200 315.353 C 23.200 314.645,23.303 314.658,27.400 315.856 C 29.610 316.502,33.260 316.568,73.397 316.695 C 100.463 316.781,117.139 316.979,117.377 317.217 C 117.616 317.456,133.197 317.600,158.877 317.600 L 199.994 317.600 200.097 294.100 L 200.200 270.600 276.700 270.499 L 353.200 270.398 353.194 249.899 C 353.191 238.625,353.056 229.192,352.894 228.938 C 352.732 228.683,352.653 237.788,352.717 249.171 L 352.833 269.867 238.517 270.133 C 175.643 270.280,106.776 270.400,85.479 270.400 L 46.758 270.400 46.940 250.700 C 47.041 239.865,47.251 230.211,47.408 229.247 C 47.607 228.029,47.562 227.576,47.261 227.762 C 46.952 227.953,46.796 216.198,46.714 186.635 C 46.625 154.176,46.492 145.132,46.100 144.740 C 45.825 144.465,45.600 143.916,45.600 143.520 C 45.600 143.124,45.420 142.800,45.200 142.800 C 44.980 142.800,44.800 142.440,44.800 142.000 C 44.800 141.560,44.620 141.200,44.400 141.200 C 44.180 141.200,44.000 140.924,44.000 140.587 C 44.000 140.249,43.385 139.358,42.633 138.607 C 41.882 137.855,41.149 136.871,41.006 136.420 C 40.863 135.969,40.554 135.600,40.320 135.600 C 40.086 135.600,39.603 135.274,39.247 134.875 C 38.453 133.985,35.425 131.965,33.800 131.241 C 33.140 130.947,32.287 130.548,31.905 130.353 C 31.523 130.159,30.758 130.000,30.205 130.000 C 29.652 130.000,29.200 129.820,29.200 129.600 C 29.200 129.352,27.075 129.200,23.624 129.200 C 20.337 129.200,17.946 129.364,17.800 129.600 M77.200 200.027 C 68.362 201.136,60.018 206.000,53.917 213.600 C 52.386 215.506,48.990 221.523,49.280 221.813 C 49.374 221.907,50.126 220.673,50.951 219.070 C 55.751 209.739,64.605 203.088,75.400 200.702 C 76.785 200.396,96.276 200.188,138.800 200.024 L 200.200 199.789 140.000 199.745 C 106.890 199.721,78.630 199.848,77.200 200.027 M321.233 200.149 C 321.325 200.231,322.300 200.407,323.400 200.541 C 324.746 200.705,325.139 200.665,324.600 200.420 C 323.839 200.074,320.883 199.836,321.233 200.149 M331.600 202.579 C 331.600 202.689,332.140 203.059,332.800 203.400 C 333.460 203.741,334.000 203.931,334.000 203.821 C 334.000 203.711,333.460 203.341,332.800 203.000 C 332.140 202.659,331.600 202.469,331.600 202.579 M336.000 204.924 C 336.000 205.017,336.737 205.582,337.638 206.178 C 340.797 208.268,343.380 210.770,346.049 214.324 C 348.163 217.139,348.626 217.650,348.049 216.527 C 346.295 213.113,336.000 203.200,336.000 204.924 M48.240 224.640 C 47.853 225.867,47.624 226.958,47.731 227.065 C 47.838 227.172,48.223 226.237,48.587 224.987 C 49.447 222.029,49.155 221.737,48.240 224.640 " stroke="none" fill="#fc4c04" fill-rule="evenodd"></path></g></svg>