<svg id="svg" version="1.1" xmlns="http://www.w3.org/2000/svg" xmlns:xlink="http://www.w3.org/1999/xlink" width="400" height="400" viewBox="0, 0, 400,400"><g id="svgg"><path id="path0" d="M72.200 138.508 C 68.506 140.575,68.052 144.035,70.906 148.367 C 75.194 154.875,75.190 154.845,75.195 176.100 L 75.200 194.000 68.128 194.000 C 59.589 194.000,56.685 194.763,53.874 197.745 C 50.745 201.065,50.413 202.671,50.406 214.500 L 50.400 224.800 200.000 224.800 L 349.600 224.800 349.594 214.500 C 349.587 202.671,349.255 201.065,346.126 197.745 C 343.315 194.763,340.411 194.000,331.872 194.000 L 324.800 194.000 324.800 176.146 C 324.800 164.319,324.950 157.737,325.244 156.646 C 326.121 153.396,326.926 151.679,329.078 148.472 C 331.969 144.164,331.509 140.578,327.800 138.507 C 325.080 136.988,323.808 137.265,319.000 140.427 C 313.408 144.104,314.841 143.969,281.277 143.986 C 253.280 144.000,249.962 143.879,247.905 142.773 C 247.523 142.568,246.938 142.400,246.605 142.400 C 246.272 142.400,246.000 142.220,246.000 142.000 C 246.000 141.780,245.810 141.600,245.578 141.600 C 245.346 141.600,244.131 140.918,242.878 140.084 C 238.690 137.297,237.181 137.010,234.678 138.525 C 231.004 140.750,230.569 144.066,233.381 148.413 C 237.746 155.161,237.591 154.153,237.596 175.700 L 237.600 194.000 200.000 194.000 L 162.400 194.000 162.400 175.946 C 162.400 154.772,162.342 155.145,166.695 148.330 C 169.423 144.058,168.956 140.725,165.322 138.525 C 162.819 137.010,161.310 137.297,157.122 140.084 C 155.869 140.918,154.654 141.600,154.422 141.600 C 154.190 141.600,154.000 141.780,154.000 142.000 C 154.000 142.220,153.728 142.400,153.395 142.400 C 153.062 142.400,152.477 142.568,152.095 142.773 C 150.038 143.879,146.720 144.000,118.723 143.986 C 85.159 143.969,86.592 144.104,81.000 140.427 C 76.191 137.265,74.919 136.987,72.200 138.508 " stroke="none" fill="#d0d3d3" fill-rule="evenodd"></path><path id="path1" d="M31.600 37.600 C 31.600 37.820,31.161 38.000,30.624 38.000 C 30.087 38.000,29.536 38.180,29.400 38.400 C 29.264 38.620,28.847 38.800,28.473 38.800 C 28.099 38.800,27.568 39.160,27.293 39.600 C 27.018 40.040,26.607 40.400,26.378 40.400 C 26.150 40.400,25.533 40.805,25.007 41.300 C 24.481 41.795,23.504 42.650,22.837 43.200 C 22.170 43.750,21.619 44.449,21.612 44.753 C 21.605 45.057,21.212 45.642,20.739 46.053 C 20.265 46.464,20.016 46.800,20.185 46.800 C 20.354 46.800,20.201 47.244,19.846 47.786 C 19.491 48.328,19.200 49.239,19.200 49.810 C 19.200 50.380,19.037 50.747,18.839 50.624 C 18.631 50.495,18.454 52.863,18.422 56.200 C 18.386 59.990,18.511 62.000,18.783 62.000 C 19.013 62.000,19.200 62.540,19.200 63.200 C 19.200 63.860,19.358 64.400,19.551 64.400 C 19.745 64.400,20.127 64.940,20.400 65.600 C 20.673 66.260,21.055 66.800,21.249 66.800 C 21.442 66.800,21.600 67.160,21.600 67.600 C 21.600 68.040,21.735 68.401,21.900 68.403 C 22.251 68.407,23.200 70.337,23.200 71.046 C 23.200 71.314,23.370 71.593,23.578 71.667 C 23.786 71.740,23.997 72.736,24.048 73.880 C 24.099 75.024,24.289 75.868,24.471 75.756 C 24.652 75.644,24.800 109.133,24.800 150.176 L 24.800 224.800 16.649 224.800 C 8.514 224.800,5.978 225.170,5.155 226.479 C 5.021 226.693,4.751 226.874,4.555 226.882 C 3.935 226.905,2.997 227.756,2.003 229.200 C 1.473 229.970,0.940 230.690,0.819 230.800 C 0.257 231.313,0.200 236.050,0.200 282.167 C 0.200 321.145,0.304 331.368,0.700 331.500 C 0.975 331.592,1.200 331.927,1.200 332.246 C 1.200 332.564,1.469 332.928,1.798 333.054 C 2.126 333.181,2.316 333.412,2.219 333.569 C 2.122 333.726,2.417 334.112,2.875 334.427 C 3.333 334.742,3.998 335.276,4.354 335.612 C 5.139 336.356,6.792 337.211,7.706 337.345 C 8.075 337.399,8.502 337.569,8.655 337.722 C 8.808 337.875,9.690 338.000,10.615 338.000 L 12.296 338.000 12.775 335.564 C 13.633 331.203,15.791 328.367,19.757 326.385 L 22.128 325.200 198.644 325.200 C 327.705 325.200,375.730 325.079,377.280 324.751 C 381.060 323.950,383.747 322.087,385.715 318.903 C 387.608 315.841,387.600 316.001,387.600 281.113 C 387.600 247.721,387.630 246.982,389.083 244.200 C 390.918 240.689,395.591 237.629,399.154 237.606 C 400.226 237.599,400.249 231.774,399.181 230.800 C 399.060 230.690,398.527 229.970,397.997 229.200 C 397.003 227.756,396.065 226.905,395.445 226.882 C 395.249 226.874,394.979 226.693,394.845 226.479 C 393.956 225.065,391.634 224.800,380.151 224.800 L 368.800 224.800 368.800 149.460 C 368.800 95.537,368.926 73.733,369.242 72.760 C 369.485 72.012,370.376 69.952,371.221 68.181 C 374.875 60.532,375.478 58.101,374.805 53.729 C 373.746 46.854,369.041 41.158,362.339 38.638 C 361.042 38.151,360.106 37.628,360.257 37.476 C 360.409 37.324,359.693 37.200,358.667 37.200 C 357.640 37.200,356.800 37.380,356.800 37.600 C 356.800 37.820,356.260 38.000,355.600 38.000 C 354.940 38.000,354.400 38.180,354.400 38.400 C 354.400 38.620,354.164 38.800,353.875 38.800 C 353.587 38.800,352.964 39.160,352.492 39.600 C 352.020 40.040,351.447 40.400,351.219 40.400 C 350.705 40.400,346.400 44.406,346.400 44.885 C 346.400 45.076,346.040 45.720,345.601 46.316 C 343.634 48.983,341.956 61.200,343.557 61.200 C 343.705 61.200,343.863 61.657,343.910 62.215 C 343.996 63.259,345.565 66.496,346.100 66.733 C 346.265 66.807,346.400 67.212,346.400 67.633 C 346.400 68.055,346.580 68.400,346.800 68.400 C 347.020 68.400,347.200 68.760,347.200 69.200 C 347.200 69.640,347.380 70.000,347.600 70.000 C 347.820 70.000,348.000 70.371,348.000 70.824 C 348.000 71.277,348.180 71.536,348.400 71.400 C 348.648 71.247,348.800 71.988,348.800 73.353 C 348.800 74.563,348.980 75.664,349.200 75.800 C 349.744 76.136,349.744 97.064,349.200 97.400 C 348.973 97.540,348.800 97.204,348.800 96.624 C 348.800 96.061,348.620 95.600,348.400 95.600 C 348.180 95.600,347.996 95.285,347.991 94.900 C 347.986 94.515,347.630 93.750,347.200 93.200 C 346.770 92.650,346.414 92.047,346.409 91.860 C 346.404 91.674,345.905 91.038,345.300 90.448 C 344.695 89.858,344.008 89.033,343.773 88.615 C 343.539 88.196,343.010 87.661,342.598 87.427 C 342.187 87.192,341.418 86.505,340.889 85.900 C 340.361 85.295,339.675 84.800,339.364 84.800 C 339.054 84.800,338.800 84.620,338.800 84.400 C 338.800 84.180,338.575 83.996,338.300 83.991 C 338.025 83.986,337.350 83.630,336.800 83.200 C 336.250 82.770,335.395 82.414,334.900 82.409 C 334.405 82.404,334.000 82.220,334.000 82.000 C 334.000 81.780,333.471 81.600,332.824 81.600 C 332.177 81.600,331.536 81.420,331.400 81.200 C 331.057 80.645,68.943 80.645,68.600 81.200 C 68.464 81.420,67.823 81.600,67.176 81.600 C 66.529 81.600,66.000 81.780,66.000 82.000 C 66.000 82.220,65.595 82.404,65.100 82.409 C 64.605 82.414,63.750 82.770,63.200 83.200 C 62.650 83.630,61.975 83.986,61.700 83.991 C 61.425 83.996,61.200 84.180,61.200 84.400 C 61.200 84.620,60.946 84.800,60.636 84.800 C 60.325 84.800,59.639 85.295,59.111 85.900 C 58.582 86.505,57.813 87.192,57.402 87.427 C 56.990 87.661,56.461 88.196,56.227 88.615 C 55.992 89.033,55.305 89.858,54.700 90.448 C 54.095 91.038,53.596 91.674,53.591 91.860 C 53.586 92.047,53.230 92.650,52.800 93.200 C 52.370 93.750,52.014 94.515,52.009 94.900 C 52.004 95.285,51.820 95.600,51.600 95.600 C 51.380 95.600,51.200 96.061,51.200 96.624 C 51.200 97.187,51.046 97.552,50.857 97.435 C 50.117 96.978,50.007 104.368,50.032 152.800 C 50.057 200.235,50.096 202.901,50.729 201.202 C 52.829 195.574,57.112 193.600,67.224 193.600 L 74.824 193.600 74.684 175.700 C 74.518 154.573,74.593 155.036,70.316 148.449 C 66.767 142.982,69.150 137.200,74.954 137.200 C 76.668 137.200,80.000 138.570,80.000 139.274 C 80.000 139.453,80.270 139.600,80.600 139.600 C 80.930 139.600,81.200 139.759,81.200 139.953 C 81.200 140.148,81.515 140.407,81.900 140.529 C 82.285 140.651,83.050 141.011,83.600 141.328 C 87.138 143.372,87.433 143.390,118.800 143.373 C 146.041 143.359,151.308 143.195,151.833 142.347 C 151.951 142.156,152.316 142.000,152.646 142.000 C 152.975 142.000,154.283 141.294,155.553 140.432 C 159.472 137.771,160.719 137.200,162.618 137.200 C 168.086 137.200,170.724 143.470,167.355 148.460 C 162.908 155.049,162.800 155.718,162.800 176.700 L 162.800 193.600 200.019 193.600 L 237.238 193.600 237.119 175.300 C 236.983 154.377,237.097 155.135,233.207 149.211 C 230.072 144.435,230.432 140.580,234.248 138.079 C 236.903 136.338,239.199 136.868,244.447 140.432 C 245.717 141.294,247.025 142.000,247.354 142.000 C 247.684 142.000,248.049 142.156,248.167 142.347 C 248.692 143.195,253.959 143.359,281.200 143.373 C 312.567 143.390,312.862 143.372,316.400 141.328 C 316.950 141.011,317.715 140.651,318.100 140.529 C 318.485 140.407,318.800 140.148,318.800 139.953 C 318.800 139.759,319.070 139.600,319.400 139.600 C 319.730 139.600,320.000 139.453,320.000 139.274 C 320.000 138.570,323.332 137.200,325.046 137.200 C 331.034 137.200,333.580 144.571,329.283 149.464 C 327.719 151.244,326.214 154.468,325.767 157.000 C 325.611 157.880,325.416 166.475,325.334 176.100 L 325.184 193.600 332.780 193.600 C 342.886 193.600,346.269 195.079,349.046 200.712 L 350.173 203.000 350.187 214.000 L 350.200 225.000 200.100 225.101 L 50.000 225.201 49.907 214.101 L 49.813 203.000 49.700 213.900 L 49.587 224.800 46.585 224.800 L 43.582 224.800 43.699 149.300 C 43.794 88.226,43.917 73.503,44.342 72.246 C 44.631 71.391,45.805 68.781,46.950 66.446 C 50.867 58.457,51.074 54.863,47.999 48.179 C 45.952 43.728,39.014 38.000,35.671 38.000 C 35.412 38.000,35.200 37.820,35.200 37.600 C 35.200 37.380,34.390 37.200,33.400 37.200 C 32.410 37.200,31.600 37.380,31.600 37.600 M375.467 74.267 C 375.041 74.692,375.158 76.473,375.594 76.204 C 375.811 76.070,375.951 75.519,375.907 74.980 C 375.816 73.879,375.830 73.903,375.467 74.267 " stroke="none" fill="#a35324" fill-rule="evenodd"></path><path id="path2" d="M35.200 37.600 C 35.200 37.820,35.412 38.000,35.671 38.000 C 39.014 38.000,45.952 43.728,47.999 48.179 C 51.074 54.863,50.867 58.457,46.950 66.446 C 45.805 68.781,44.631 71.391,44.342 72.246 C 43.917 73.503,43.794 88.226,43.699 149.300 L 43.582 224.800 46.526 224.800 L 49.470 224.800 49.735 208.534 C 49.881 199.588,50.000 174.433,50.000 152.634 C 50.001 108.132,50.363 76.330,50.865 76.640 C 51.049 76.754,51.197 76.432,51.194 75.924 C 51.189 75.181,51.112 75.117,50.800 75.600 C 50.488 76.083,50.411 76.019,50.406 75.276 C 50.402 74.672,50.562 74.453,50.868 74.642 C 51.173 74.831,51.255 74.721,51.104 74.328 C 50.977 73.996,51.187 73.021,51.571 72.162 C 51.955 71.303,52.185 70.350,52.083 70.044 C 51.980 69.738,52.078 69.601,52.303 69.740 C 52.637 69.947,52.947 69.356,53.217 68.000 C 53.239 67.890,53.469 67.530,53.729 67.200 C 54.912 65.693,55.538 64.144,54.770 64.618 C 54.533 64.765,54.569 64.518,54.851 64.068 C 55.131 63.619,55.504 63.341,55.680 63.449 C 55.856 63.558,56.000 63.007,56.000 62.224 C 56.000 61.441,56.191 60.800,56.424 60.800 C 56.705 60.800,56.817 59.120,56.756 55.818 C 56.706 53.078,56.515 50.929,56.332 51.042 C 56.044 51.220,55.796 49.628,55.963 48.670 C 55.994 48.489,55.835 48.455,55.610 48.594 C 55.368 48.744,55.197 48.388,55.194 47.724 C 55.189 46.851,55.101 46.734,54.800 47.200 C 54.485 47.688,54.411 47.636,54.406 46.923 C 54.403 46.440,54.000 45.765,53.511 45.423 C 53.022 45.080,52.842 44.800,53.111 44.800 C 53.380 44.800,53.600 44.620,53.600 44.400 C 53.600 44.180,53.465 44.021,53.300 44.047 C 52.265 44.211,51.807 43.983,52.400 43.600 C 52.911 43.270,52.894 43.211,52.287 43.206 C 51.896 43.203,51.471 42.930,51.345 42.600 C 51.218 42.270,50.763 42.000,50.334 42.000 C 49.904 42.000,49.664 41.820,49.800 41.600 C 49.936 41.380,49.806 41.200,49.512 41.200 C 49.217 41.200,48.724 40.850,48.415 40.421 C 48.107 39.993,47.726 39.722,47.569 39.819 C 47.412 39.916,47.181 39.726,47.054 39.398 C 46.928 39.069,46.449 38.800,45.989 38.800 C 45.529 38.800,45.263 38.622,45.397 38.405 C 45.533 38.185,45.387 38.107,45.067 38.229 C 44.752 38.351,43.820 38.169,42.998 37.825 C 41.308 37.119,35.200 36.943,35.200 37.600 M360.257 37.476 C 360.106 37.628,361.042 38.151,362.339 38.638 C 369.041 41.158,373.746 46.854,374.805 53.729 C 375.478 58.101,374.875 60.532,371.221 68.181 C 370.376 69.952,369.485 72.012,369.242 72.760 C 368.926 73.733,368.800 95.537,368.800 149.460 L 368.800 224.800 372.000 224.800 L 375.200 224.800 375.200 150.800 C 375.200 101.733,375.335 76.800,375.600 76.800 C 375.820 76.800,376.000 76.609,376.000 76.376 C 376.000 76.143,375.820 76.064,375.600 76.200 C 375.372 76.341,375.200 75.996,375.200 75.400 C 375.200 74.824,375.344 74.442,375.520 74.551 C 375.696 74.659,375.885 74.085,375.939 73.275 C 375.994 72.465,376.210 71.630,376.419 71.421 C 376.629 71.211,376.800 70.728,376.800 70.347 C 376.800 69.966,377.184 69.532,377.653 69.383 C 378.122 69.234,378.338 68.997,378.133 68.856 C 377.921 68.710,378.130 67.871,378.619 66.905 C 379.091 65.973,379.577 65.310,379.698 65.432 C 379.820 65.554,379.910 65.416,379.897 65.127 C 379.840 63.828,380.031 63.172,380.400 63.400 C 380.620 63.536,380.800 63.277,380.800 62.824 C 380.800 62.371,381.025 61.997,381.300 61.994 C 381.634 61.990,381.602 61.862,381.203 61.611 C 380.728 61.310,380.708 61.132,381.103 60.737 C 381.699 60.141,381.811 50.941,381.225 50.733 C 381.018 50.660,380.785 50.115,380.707 49.523 C 380.629 48.931,380.295 48.121,379.963 47.723 C 379.632 47.325,379.013 46.325,378.589 45.500 C 378.165 44.675,377.559 44.000,377.242 44.000 C 376.926 44.000,376.776 43.890,376.910 43.756 C 377.254 43.413,374.751 41.201,374.011 41.194 C 373.470 41.188,373.469 41.143,374.000 40.800 C 374.477 40.492,374.486 40.411,374.047 40.406 C 373.743 40.403,373.158 40.012,372.747 39.539 C 372.336 39.065,372.000 38.885,372.000 39.139 C 372.000 39.392,371.809 39.600,371.576 39.600 C 371.343 39.600,371.264 39.420,371.400 39.200 C 371.622 38.840,371.097 38.627,370.300 38.753 C 370.135 38.779,370.000 38.620,370.000 38.400 C 370.000 38.180,369.586 38.000,369.080 38.000 C 368.574 38.000,367.944 37.784,367.680 37.520 C 367.307 37.147,367.200 37.164,367.200 37.600 C 367.200 38.036,367.093 38.053,366.720 37.680 C 366.208 37.168,360.738 36.995,360.257 37.476 M396.400 238.149 C 392.335 239.498,389.347 242.572,388.028 246.760 C 387.738 247.680,387.600 258.789,387.600 281.113 C 387.600 316.001,387.608 315.841,385.715 318.903 C 383.747 322.087,381.060 323.950,377.280 324.751 C 375.731 325.079,327.701 325.201,198.680 325.204 L 22.200 325.208 20.144 326.165 C 15.674 328.247,12.500 332.898,12.410 337.500 C 12.402 337.889,15.141 338.000,24.800 338.000 L 37.200 338.000 37.200 348.653 L 37.200 359.305 38.947 361.053 L 40.695 362.800 62.600 362.800 L 84.505 362.800 86.253 361.053 L 88.000 359.305 88.000 348.653 L 88.000 338.000 200.000 338.000 L 312.000 338.000 312.000 348.653 L 312.000 359.305 313.747 361.053 L 315.495 362.800 337.400 362.800 L 359.305 362.800 361.053 361.053 L 362.800 359.305 362.800 348.653 L 362.800 338.000 376.520 338.000 C 386.913 338.000,390.360 337.880,390.737 337.503 C 391.132 337.108,391.307 337.126,391.594 337.591 C 391.900 338.085,392.066 338.052,392.677 337.381 C 393.075 336.944,393.940 336.397,394.600 336.165 C 395.260 335.932,395.755 335.530,395.700 335.271 C 395.645 335.012,395.971 334.800,396.424 334.800 C 396.877 334.800,397.148 334.639,397.026 334.442 C 396.904 334.245,397.074 333.981,397.402 333.854 C 397.731 333.728,398.000 333.337,398.000 332.984 C 398.000 332.318,399.170 330.892,399.240 331.471 C 399.262 331.652,399.422 331.350,399.597 330.800 C 399.771 330.250,399.934 309.055,399.960 283.700 L 400.006 237.600 398.903 237.642 C 398.296 237.665,397.170 237.893,396.400 238.149 " stroke="none" fill="#7a4022" fill-rule="evenodd"></path><path id="path3" d="M168.514 143.800 C 168.517 144.900,168.595 145.303,168.687 144.695 C 168.779 144.086,168.777 143.186,168.682 142.695 C 168.587 142.203,168.511 142.700,168.514 143.800 M231.314 143.800 C 231.317 144.900,231.395 145.303,231.487 144.695 C 231.579 144.086,231.577 143.186,231.482 142.695 C 231.387 142.203,231.311 142.700,231.314 143.800 M103.900 143.900 C 112.095 143.960,125.505 143.960,133.700 143.900 C 141.895 143.839,135.190 143.790,118.800 143.790 C 102.410 143.790,95.705 143.839,103.900 143.900 M266.300 143.900 C 274.495 143.960,287.905 143.960,296.100 143.900 C 304.295 143.839,297.590 143.790,281.200 143.790 C 264.810 143.790,258.105 143.839,266.300 143.900 M70.277 148.031 C 70.675 148.708,71.256 149.473,71.568 149.731 C 71.880 149.989,71.632 149.435,71.015 148.500 C 69.720 146.537,69.209 146.212,70.277 148.031 M328.653 149.053 C 327.808 150.261,327.198 151.332,327.298 151.431 C 327.397 151.531,328.149 150.602,328.968 149.368 C 330.905 146.451,330.649 146.195,328.653 149.053 M162.600 157.200 C 162.448 157.891,162.414 158.547,162.524 158.657 C 162.634 158.767,162.848 158.291,163.000 157.600 C 163.152 156.909,163.186 156.253,163.076 156.143 C 162.966 156.033,162.752 156.509,162.600 157.200 M325.056 157.284 C 324.921 157.788,324.827 158.560,324.846 159.000 C 324.865 159.440,325.045 159.098,325.246 158.240 C 325.636 156.578,325.470 155.740,325.056 157.284 M74.800 175.590 L 74.800 193.580 68.500 193.701 L 62.200 193.822 68.700 193.911 L 75.200 194.000 75.200 175.800 C 75.200 165.790,75.110 157.600,75.000 157.600 C 74.890 157.600,74.800 165.695,74.800 175.590 M324.799 193.700 C 324.800 193.865,327.725 193.966,331.300 193.924 C 337.840 193.848,337.063 193.700,329.099 193.505 C 326.734 193.447,324.799 193.535,324.799 193.700 M181.100 193.900 C 191.495 193.959,208.505 193.959,218.900 193.900 C 229.295 193.841,220.790 193.792,200.000 193.792 C 179.210 193.792,170.705 193.841,181.100 193.900 M58.600 194.400 L 57.800 194.744 58.600 194.766 C 59.040 194.778,59.670 194.613,60.000 194.400 C 60.795 193.886,59.796 193.886,58.600 194.400 M340.000 194.400 C 340.330 194.613,340.960 194.778,341.400 194.766 L 342.200 194.744 341.400 194.400 C 340.204 193.886,339.205 193.886,340.000 194.400 M56.300 195.429 C 54.805 196.240,54.896 196.578,56.400 195.800 C 57.060 195.459,57.600 195.094,57.600 194.990 C 57.600 194.732,57.557 194.747,56.300 195.429 M342.400 194.979 C 342.400 195.089,342.940 195.459,343.600 195.800 C 344.260 196.141,344.800 196.331,344.800 196.221 C 344.800 196.111,344.260 195.741,343.600 195.400 C 342.940 195.059,342.400 194.869,342.400 194.979 M52.345 199.100 C 51.786 199.776,51.406 200.542,50.450 202.919 C 50.148 203.669,50.029 207.492,50.087 214.519 L 50.175 225.000 50.406 214.200 C 50.646 202.975,50.724 202.373,52.271 199.900 C 53.269 198.306,53.302 197.943,52.345 199.100 M347.668 199.800 C 349.284 202.388,349.353 202.901,349.594 214.200 L 349.825 225.000 349.913 214.519 C 349.972 207.400,349.854 203.679,349.544 202.919 C 348.358 200.011,347.966 199.270,347.342 198.755 C 346.915 198.404,347.035 198.787,347.668 199.800 " stroke="none" fill="#c1a496" fill-rule="evenodd"></path><path id="path4" d="M72.662 137.500 C 72.560 137.665,73.612 137.800,75.000 137.800 C 76.388 137.800,77.440 137.665,77.338 137.500 C 77.236 137.335,76.184 137.200,75.000 137.200 C 73.816 137.200,72.764 137.335,72.662 137.500 M160.261 137.500 C 160.158 137.665,161.042 137.739,162.225 137.664 C 163.913 137.557,164.627 137.707,165.549 138.364 C 166.195 138.824,166.872 139.200,167.055 139.200 C 167.237 139.200,166.723 138.750,165.914 138.200 C 164.463 137.214,160.726 136.751,160.261 137.500 M234.011 138.220 C 233.247 138.759,232.770 139.200,232.950 139.200 C 233.129 139.200,233.805 138.824,234.451 138.364 C 235.373 137.707,236.087 137.557,237.775 137.664 C 238.958 137.739,239.842 137.665,239.739 137.500 C 239.279 136.760,235.386 137.249,234.011 138.220 M322.662 137.500 C 322.560 137.665,323.612 137.800,325.000 137.800 C 326.388 137.800,327.440 137.665,327.338 137.500 C 327.236 137.335,326.184 137.200,325.000 137.200 C 323.816 137.200,322.764 137.335,322.662 137.500 M78.856 138.766 C 79.375 139.187,79.877 139.455,79.971 139.361 C 80.176 139.157,78.744 138.031,78.256 138.013 C 78.066 138.006,78.336 138.345,78.856 138.766 M157.087 139.368 C 154.869 140.904,154.045 141.702,155.800 140.615 C 158.273 139.083,159.773 138.001,159.393 138.022 C 159.177 138.034,158.139 138.640,157.087 139.368 M241.607 138.936 C 244.328 140.764,245.200 141.290,245.200 141.103 C 245.200 140.850,240.895 138.000,240.513 138.000 C 240.349 138.000,240.841 138.421,241.607 138.936 M320.629 138.609 C 320.205 138.929,319.935 139.268,320.029 139.361 C 320.123 139.455,320.625 139.187,321.144 138.766 C 322.238 137.879,321.779 137.739,320.629 138.609 M70.102 139.300 C 69.536 140.015,68.740 141.600,68.946 141.600 C 69.042 141.600,69.493 140.970,69.947 140.200 C 70.773 138.801,70.849 138.357,70.102 139.300 M330.039 140.176 C 330.501 140.959,330.956 141.600,331.050 141.600 C 331.334 141.600,330.036 139.269,329.602 139.001 C 329.380 138.864,329.577 139.393,330.039 140.176 M167.855 140.600 C 168.780 142.179,168.800 142.203,168.800 141.711 C 168.800 141.479,168.429 140.864,167.976 140.344 L 167.153 139.400 167.855 140.600 M231.755 140.612 C 231.390 141.169,231.164 141.698,231.253 141.787 C 231.342 141.876,231.718 141.420,232.089 140.774 C 232.914 139.336,232.669 139.217,231.755 140.612 M81.600 140.590 C 81.600 140.694,82.185 141.065,82.900 141.414 L 84.200 142.048 83.200 141.233 C 82.237 140.448,81.600 140.192,81.600 140.590 M316.800 141.233 L 315.800 142.048 317.100 141.414 C 317.815 141.065,318.400 140.694,318.400 140.590 C 318.400 140.192,317.763 140.448,316.800 141.233 M68.514 143.800 C 68.517 144.900,68.595 145.303,68.687 144.695 C 68.779 144.086,68.777 143.186,68.682 142.695 C 68.587 142.203,68.511 142.700,68.514 143.800 M331.314 143.800 C 331.317 144.900,331.395 145.303,331.487 144.695 C 331.579 144.086,331.577 143.186,331.482 142.695 C 331.387 142.203,331.311 142.700,331.314 143.800 M87.600 143.200 C 88.150 143.376,88.960 143.526,89.400 143.532 L 90.200 143.544 89.400 143.200 C 88.960 143.011,88.150 142.862,87.600 142.868 L 86.600 142.880 87.600 143.200 M148.200 143.200 L 147.400 143.544 148.200 143.532 C 148.640 143.526,149.450 143.376,150.000 143.200 L 151.000 142.880 150.000 142.868 C 149.450 142.862,148.640 143.011,148.200 143.200 M250.000 143.200 C 250.550 143.376,251.360 143.526,251.800 143.532 L 252.600 143.544 251.800 143.200 C 251.360 143.011,250.550 142.862,250.000 142.868 L 249.000 142.880 250.000 143.200 M310.600 143.200 L 309.800 143.544 310.600 143.532 C 311.040 143.526,311.850 143.376,312.400 143.200 L 313.400 142.880 312.400 142.868 C 311.850 142.862,311.040 143.011,310.600 143.200 M167.956 146.703 C 167.602 147.306,166.567 149.012,165.656 150.493 C 164.745 151.974,164.000 153.412,164.000 153.690 C 164.000 153.967,164.431 153.385,164.958 152.397 C 165.485 151.409,166.565 149.637,167.358 148.460 C 168.597 146.621,169.080 145.593,168.700 145.603 C 168.645 145.604,168.310 146.099,167.956 146.703 M231.200 145.805 C 231.200 145.997,232.103 147.529,233.207 149.211 C 235.176 152.210,236.754 155.888,236.846 157.690 C 236.882 158.392,236.935 158.436,237.079 157.884 C 237.421 156.565,235.894 152.777,233.537 149.101 C 232.251 147.097,231.200 145.614,231.200 145.805 M330.522 146.700 C 330.383 147.085,329.939 147.878,329.535 148.462 C 329.131 149.046,328.800 149.672,328.800 149.855 C 328.800 150.277,330.578 147.630,330.918 146.700 C 331.059 146.315,331.085 146.000,330.975 146.000 C 330.865 146.000,330.661 146.315,330.522 146.700 M327.453 151.700 L 326.733 153.000 327.558 152.000 C 328.289 151.113,328.614 150.400,328.286 150.400 C 328.224 150.400,327.849 150.985,327.453 151.700 M163.356 154.971 C 163.235 155.285,163.204 155.960,163.286 156.471 C 163.395 157.154,163.488 157.004,163.637 155.900 C 163.847 154.347,163.736 153.981,163.356 154.971 M74.068 156.000 C 74.062 156.550,74.211 157.360,74.400 157.800 L 74.744 158.600 74.732 157.800 C 74.726 157.360,74.576 156.550,74.400 156.000 L 74.080 155.000 74.068 156.000 M325.659 156.000 C 325.620 156.550,325.489 157.450,325.367 158.000 C 325.176 158.862,325.208 158.902,325.597 158.291 C 325.846 157.902,325.977 157.002,325.889 156.291 C 325.764 155.287,325.713 155.222,325.659 156.000 M162.656 158.484 C 162.521 158.988,162.449 167.140,162.495 176.600 L 162.580 193.800 162.790 175.800 C 162.905 165.900,162.978 157.748,162.951 157.684 C 162.924 157.620,162.791 157.980,162.656 158.484 M237.384 176.200 C 237.384 185.880,237.436 189.783,237.500 184.873 C 237.563 179.963,237.563 172.043,237.500 167.273 C 237.436 162.503,237.384 166.520,237.384 176.200 M324.983 176.400 C 324.983 185.750,325.036 189.575,325.100 184.900 C 325.164 180.225,325.164 172.575,325.100 167.900 C 325.036 163.225,324.983 167.050,324.983 176.400 M58.846 193.963 C 58.507 194.178,59.051 194.232,60.246 194.104 C 61.321 193.988,62.275 193.828,62.367 193.747 C 62.729 193.428,59.365 193.635,58.846 193.963 M337.633 193.747 C 337.725 193.828,338.679 193.988,339.754 194.104 C 340.949 194.232,341.493 194.178,341.154 193.963 C 340.635 193.635,337.271 193.428,337.633 193.747 M55.029 195.809 C 54.605 196.129,54.335 196.468,54.429 196.561 C 54.523 196.655,55.025 196.387,55.544 195.966 C 56.638 195.079,56.179 194.939,55.029 195.809 M344.456 195.966 C 344.975 196.387,345.477 196.655,345.571 196.561 C 345.776 196.357,344.344 195.231,343.856 195.213 C 343.666 195.206,343.936 195.545,344.456 195.966 M52.463 198.251 C 51.805 199.048,51.179 200.038,51.071 200.451 C 50.800 201.487,51.138 201.391,51.602 200.300 C 51.813 199.805,52.461 198.815,53.044 198.100 C 53.626 197.385,54.003 196.800,53.880 196.800 C 53.758 196.800,53.120 197.453,52.463 198.251 M346.962 198.000 C 347.541 198.770,348.187 199.805,348.398 200.300 C 348.868 201.407,349.199 201.482,348.921 200.418 C 348.808 199.988,348.085 198.953,347.313 198.118 C 345.920 196.612,345.918 196.611,346.962 198.000 M349.212 202.000 C 349.212 202.330,349.387 202.870,349.600 203.200 C 349.945 203.733,349.988 203.733,349.988 203.200 C 349.988 202.870,349.813 202.330,349.600 202.000 C 349.255 201.467,349.212 201.467,349.212 202.000 M350.092 214.899 L 350.000 224.799 199.900 224.900 L 49.800 225.001 199.913 225.101 C 320.953 225.181,350.063 225.102,350.220 224.692 C 350.327 224.413,350.363 219.868,350.300 214.592 L 350.185 205.000 350.092 214.899 " stroke="none" fill="#b4846c" fill-rule="evenodd"></path></g></svg>