<svg id="svg" version="1.1" xmlns="http://www.w3.org/2000/svg" xmlns:xlink="http://www.w3.org/1999/xlink" width="400" height="400" viewBox="0, 0, 400,400"><g id="svgg"><path id="path0" d="M105.200 64.000 C 105.200 64.225,104.075 64.400,102.624 64.400 C 101.207 64.400,99.936 64.580,99.800 64.800 C 99.664 65.020,98.764 65.200,97.800 65.200 C 96.836 65.200,95.936 65.380,95.800 65.600 C 95.664 65.820,95.034 66.000,94.400 66.000 C 93.766 66.000,93.136 66.180,93.000 66.400 C 92.864 66.620,92.223 66.800,91.576 66.800 C 90.929 66.800,90.400 66.980,90.400 67.200 C 90.400 67.420,89.860 67.600,89.200 67.600 C 88.540 67.600,88.000 67.780,88.000 68.000 C 88.000 68.220,87.460 68.400,86.800 68.400 C 86.140 68.400,85.600 68.580,85.600 68.800 C 85.600 69.020,85.251 69.200,84.824 69.200 C 84.397 69.200,83.936 69.380,83.800 69.600 C 83.664 69.820,83.113 70.000,82.576 70.000 C 82.039 70.000,81.600 70.180,81.600 70.400 C 81.600 70.620,81.240 70.800,80.800 70.800 C 80.360 70.800,80.000 70.980,80.000 71.200 C 80.000 71.420,79.640 71.600,79.200 71.600 C 78.760 71.600,78.400 71.780,78.400 72.000 C 78.400 72.220,78.040 72.400,77.600 72.400 C 77.160 72.400,76.800 72.580,76.800 72.800 C 76.800 73.020,76.530 73.200,76.200 73.200 C 75.870 73.200,75.600 73.363,75.600 73.562 C 75.600 73.761,74.520 74.423,73.200 75.032 C 71.880 75.642,70.800 76.289,70.800 76.470 C 70.800 76.652,70.522 76.800,70.182 76.800 C 69.842 76.800,69.114 77.250,68.564 77.800 C 68.014 78.350,67.400 78.800,67.200 78.800 C 67.000 78.800,66.386 79.250,65.836 79.800 C 65.286 80.350,64.662 80.800,64.449 80.800 C 64.236 80.800,62.876 82.015,61.427 83.500 C 54.837 90.253,52.800 92.402,52.800 92.597 C 52.800 92.713,52.260 93.372,51.600 94.063 C 50.940 94.754,50.400 95.490,50.400 95.699 C 50.400 95.908,49.860 96.583,49.200 97.200 C 48.540 97.817,48.000 98.609,48.000 98.960 C 48.000 99.312,47.820 99.600,47.600 99.600 C 47.380 99.600,47.200 99.836,47.200 100.125 C 47.200 100.413,46.840 101.036,46.400 101.508 C 45.960 101.980,45.600 102.644,45.600 102.983 C 45.600 103.322,45.456 103.600,45.280 103.600 C 44.882 103.600,43.200 107.006,43.200 107.811 C 43.200 108.135,43.034 108.400,42.832 108.400 C 42.629 108.400,42.345 108.938,42.201 109.595 C 42.057 110.253,41.772 110.894,41.569 111.019 C 41.366 111.145,41.200 111.597,41.200 112.024 C 41.200 112.451,41.020 112.800,40.800 112.800 C 40.580 112.800,40.400 113.340,40.400 114.000 C 40.400 114.660,40.220 115.200,40.000 115.200 C 39.780 115.200,39.600 115.740,39.600 116.400 C 39.600 117.060,39.420 117.600,39.200 117.600 C 38.980 117.600,38.800 118.140,38.800 118.800 C 38.800 119.460,38.620 120.000,38.400 120.000 C 38.180 120.000,38.000 120.720,38.000 121.600 C 38.000 122.480,37.820 123.200,37.600 123.200 C 37.380 123.200,37.200 123.729,37.200 124.376 C 37.200 125.023,37.020 125.664,36.800 125.800 C 36.580 125.936,36.400 126.991,36.400 128.144 C 36.400 129.297,36.232 130.411,36.027 130.620 C 35.429 131.230,35.162 137.476,34.967 155.500 L 34.783 172.400 38.992 172.400 L 43.200 172.400 43.200 156.600 C 43.200 146.333,43.340 140.800,43.600 140.800 C 43.841 140.800,44.000 139.133,44.000 136.600 C 44.000 134.067,44.159 132.400,44.400 132.400 C 44.620 132.400,44.800 131.500,44.800 130.400 C 44.800 129.300,44.980 128.400,45.200 128.400 C 45.420 128.400,45.600 127.680,45.600 126.800 C 45.600 125.920,45.780 125.200,46.000 125.200 C 46.220 125.200,46.400 124.570,46.400 123.800 C 46.400 123.030,46.580 122.400,46.800 122.400 C 47.020 122.400,47.200 121.860,47.200 121.200 C 47.200 120.540,47.380 120.000,47.600 120.000 C 47.820 120.000,48.000 119.561,48.000 119.024 C 48.000 118.487,48.180 117.936,48.400 117.800 C 48.620 117.664,48.800 117.203,48.800 116.776 C 48.800 116.349,48.980 116.000,49.200 116.000 C 49.420 116.000,49.600 115.765,49.600 115.479 C 49.600 115.192,50.032 114.067,50.560 112.979 C 51.087 111.890,51.828 110.325,52.205 109.500 C 52.582 108.675,53.051 108.000,53.246 108.000 C 53.441 108.000,53.600 107.807,53.600 107.572 C 53.600 107.337,54.140 106.359,54.800 105.400 C 55.460 104.441,56.000 103.545,56.000 103.410 C 56.000 103.276,56.450 102.680,57.000 102.087 C 57.550 101.493,58.000 100.809,58.000 100.565 C 58.000 100.322,59.080 98.987,60.400 97.600 C 61.720 96.213,62.800 94.919,62.800 94.726 C 62.800 94.290,65.456 91.600,65.887 91.600 C 66.203 91.599,67.509 90.557,69.913 88.386 C 70.636 87.734,71.309 87.200,71.409 87.200 C 71.597 87.200,72.889 86.180,73.816 85.300 C 74.106 85.025,74.496 84.800,74.683 84.800 C 74.870 84.800,75.283 84.440,75.600 84.000 C 75.917 83.560,76.497 83.200,76.888 83.200 C 77.280 83.200,77.600 83.020,77.600 82.800 C 77.600 82.580,77.836 82.400,78.125 82.400 C 78.413 82.400,79.036 82.040,79.508 81.600 C 79.980 81.160,80.644 80.800,80.983 80.800 C 81.322 80.800,81.600 80.620,81.600 80.400 C 81.600 80.180,81.960 80.000,82.400 80.000 C 82.840 80.000,83.200 79.820,83.200 79.600 C 83.200 79.380,83.560 79.200,84.000 79.200 C 84.440 79.200,84.800 79.020,84.800 78.800 C 84.800 78.580,85.160 78.400,85.600 78.400 C 86.040 78.400,86.400 78.220,86.400 78.000 C 86.400 77.780,86.839 77.600,87.376 77.600 C 87.913 77.600,88.464 77.420,88.600 77.200 C 88.736 76.980,89.197 76.800,89.624 76.800 C 90.051 76.800,90.400 76.620,90.400 76.400 C 90.400 76.180,90.850 76.000,91.400 76.000 C 91.950 76.000,92.400 75.820,92.400 75.600 C 92.400 75.380,92.986 75.200,93.703 75.200 C 94.419 75.200,95.634 75.000,96.403 74.756 C 97.841 74.299,99.880 73.882,104.400 73.121 C 106.231 72.813,134.497 72.683,200.000 72.683 C 265.503 72.683,293.769 72.813,295.600 73.121 C 300.120 73.882,302.159 74.299,303.597 74.756 C 304.366 75.000,305.581 75.200,306.297 75.200 C 307.014 75.200,307.600 75.380,307.600 75.600 C 307.600 75.820,308.050 76.000,308.600 76.000 C 309.150 76.000,309.600 76.180,309.600 76.400 C 309.600 76.620,309.949 76.800,310.376 76.800 C 310.803 76.800,311.264 76.980,311.400 77.200 C 311.536 77.420,312.087 77.600,312.624 77.600 C 313.161 77.600,313.600 77.780,313.600 78.000 C 313.600 78.220,313.960 78.400,314.400 78.400 C 314.840 78.400,315.200 78.580,315.200 78.800 C 315.200 79.020,315.560 79.200,316.000 79.200 C 316.440 79.200,316.800 79.380,316.800 79.600 C 316.800 79.820,317.160 80.000,317.600 80.000 C 318.040 80.000,318.400 80.180,318.400 80.400 C 318.400 80.620,318.678 80.800,319.017 80.800 C 319.356 80.800,320.020 81.160,320.492 81.600 C 320.964 82.040,321.587 82.400,321.875 82.400 C 322.164 82.400,322.400 82.580,322.400 82.800 C 322.400 83.020,322.720 83.200,323.112 83.200 C 323.503 83.200,324.083 83.560,324.400 84.000 C 324.717 84.440,325.115 84.800,325.284 84.800 C 325.578 84.800,326.704 85.645,327.816 86.700 C 328.106 86.975,328.440 87.200,328.558 87.200 C 328.676 87.200,329.364 87.734,330.087 88.386 C 332.491 90.557,333.797 91.599,334.113 91.600 C 334.544 91.600,337.200 94.290,337.200 94.726 C 337.200 94.919,338.280 96.213,339.600 97.600 C 340.920 98.987,342.000 100.322,342.000 100.565 C 342.000 100.809,342.450 101.493,343.000 102.087 C 343.550 102.680,344.000 103.276,344.000 103.410 C 344.000 103.545,344.540 104.441,345.200 105.400 C 345.860 106.359,346.400 107.337,346.400 107.572 C 346.400 107.807,346.559 108.000,346.754 108.000 C 346.949 108.000,347.418 108.675,347.795 109.500 C 348.172 110.325,348.913 111.890,349.440 112.979 C 349.968 114.067,350.400 115.192,350.400 115.479 C 350.400 115.765,350.580 116.000,350.800 116.000 C 351.020 116.000,351.200 116.349,351.200 116.776 C 351.200 117.203,351.380 117.664,351.600 117.800 C 351.820 117.936,352.000 118.487,352.000 119.024 C 352.000 119.561,352.180 120.000,352.400 120.000 C 352.620 120.000,352.800 120.540,352.800 121.200 C 352.800 121.860,352.980 122.400,353.200 122.400 C 353.420 122.400,353.600 123.030,353.600 123.800 C 353.600 124.570,353.780 125.200,354.000 125.200 C 354.220 125.200,354.400 125.920,354.400 126.800 C 354.400 127.680,354.580 128.400,354.800 128.400 C 355.020 128.400,355.200 129.300,355.200 130.400 C 355.200 131.500,355.380 132.400,355.600 132.400 C 355.841 132.400,356.000 134.067,356.000 136.600 C 356.000 139.133,356.159 140.800,356.400 140.800 C 356.660 140.800,356.800 146.333,356.800 156.600 L 356.800 172.400 361.008 172.400 L 365.217 172.400 365.033 155.500 C 364.838 137.476,364.571 131.230,363.973 130.620 C 363.768 130.411,363.600 129.297,363.600 128.144 C 363.600 126.991,363.420 125.936,363.200 125.800 C 362.980 125.664,362.800 125.023,362.800 124.376 C 362.800 123.729,362.620 123.200,362.400 123.200 C 362.180 123.200,362.000 122.480,362.000 121.600 C 362.000 120.720,361.820 120.000,361.600 120.000 C 361.380 120.000,361.200 119.460,361.200 118.800 C 361.200 118.140,361.020 117.600,360.800 117.600 C 360.580 117.600,360.400 117.060,360.400 116.400 C 360.400 115.740,360.220 115.200,360.000 115.200 C 359.780 115.200,359.600 114.660,359.600 114.000 C 359.600 113.340,359.420 112.800,359.200 112.800 C 358.980 112.800,358.800 112.451,358.800 112.024 C 358.800 111.597,358.634 111.145,358.431 111.019 C 358.228 110.894,357.943 110.253,357.799 109.595 C 357.655 108.938,357.371 108.400,357.168 108.400 C 356.966 108.400,356.800 108.135,356.800 107.811 C 356.800 107.006,355.118 103.600,354.720 103.600 C 354.544 103.600,354.400 103.322,354.400 102.983 C 354.400 102.644,354.040 101.980,353.600 101.508 C 353.160 101.036,352.800 100.413,352.800 100.125 C 352.800 99.836,352.620 99.600,352.400 99.600 C 352.180 99.600,352.000 99.312,352.000 98.960 C 352.000 98.609,351.460 97.817,350.800 97.200 C 350.140 96.583,349.600 95.908,349.600 95.699 C 349.600 95.490,349.060 94.754,348.400 94.063 C 347.740 93.372,347.200 92.713,347.200 92.597 C 347.200 92.402,345.163 90.253,338.573 83.500 C 337.124 82.015,335.764 80.800,335.551 80.800 C 335.338 80.800,334.714 80.350,334.164 79.800 C 333.614 79.250,333.000 78.800,332.800 78.800 C 332.600 78.800,331.986 78.350,331.436 77.800 C 330.886 77.250,330.158 76.800,329.818 76.800 C 329.478 76.800,329.200 76.652,329.200 76.470 C 329.200 76.289,328.120 75.642,326.800 75.032 C 325.480 74.423,324.400 73.761,324.400 73.562 C 324.400 73.363,324.130 73.200,323.800 73.200 C 323.470 73.200,323.200 73.020,323.200 72.800 C 323.200 72.580,322.840 72.400,322.400 72.400 C 321.960 72.400,321.600 72.220,321.600 72.000 C 321.600 71.780,321.240 71.600,320.800 71.600 C 320.360 71.600,320.000 71.420,320.000 71.200 C 320.000 70.980,319.640 70.800,319.200 70.800 C 318.760 70.800,318.400 70.620,318.400 70.400 C 318.400 70.180,317.961 70.000,317.424 70.000 C 316.887 70.000,316.336 69.820,316.200 69.600 C 316.064 69.380,315.603 69.200,315.176 69.200 C 314.749 69.200,314.400 69.020,314.400 68.800 C 314.400 68.580,313.860 68.400,313.200 68.400 C 312.540 68.400,312.000 68.220,312.000 68.000 C 312.000 67.780,311.460 67.600,310.800 67.600 C 310.140 67.600,309.600 67.420,309.600 67.200 C 309.600 66.980,309.071 66.800,308.424 66.800 C 307.777 66.800,307.136 66.620,307.000 66.400 C 306.864 66.180,306.234 66.000,305.600 66.000 C 304.966 66.000,304.336 65.820,304.200 65.600 C 304.064 65.380,303.164 65.200,302.200 65.200 C 301.236 65.200,300.336 65.020,300.200 64.800 C 300.064 64.580,298.793 64.400,297.376 64.400 C 295.925 64.400,294.800 64.225,294.800 64.000 C 294.800 63.734,262.933 63.600,200.000 63.600 C 137.067 63.600,105.200 63.734,105.200 64.000 M110.000 85.200 C 110.000 85.433,108.667 85.600,106.800 85.600 C 104.933 85.600,103.600 85.767,103.600 86.000 C 103.600 86.220,102.700 86.400,101.600 86.400 C 100.500 86.400,99.600 86.580,99.600 86.800 C 99.600 87.020,98.970 87.200,98.200 87.200 C 97.430 87.200,96.800 87.380,96.800 87.600 C 96.800 87.820,96.350 88.000,95.800 88.000 C 95.250 88.000,94.800 88.180,94.800 88.400 C 94.800 88.620,94.361 88.800,93.824 88.800 C 93.287 88.800,92.736 88.980,92.600 89.200 C 92.464 89.420,91.913 89.600,91.376 89.600 C 90.839 89.600,90.400 89.780,90.400 90.000 C 90.400 90.220,90.040 90.400,89.600 90.400 C 89.160 90.400,88.800 90.580,88.800 90.800 C 88.800 91.020,88.440 91.200,88.000 91.200 C 87.560 91.200,87.200 91.380,87.200 91.600 C 87.200 91.820,86.851 92.000,86.424 92.000 C 85.997 92.000,85.543 92.169,85.416 92.375 C 85.288 92.581,84.693 92.998,84.092 93.301 C 82.038 94.339,81.008 95.000,80.357 95.700 C 79.999 96.085,79.520 96.400,79.293 96.400 C 79.065 96.400,77.792 97.480,76.464 98.800 C 75.136 100.120,73.889 101.200,73.692 101.200 C 73.496 101.200,73.080 101.695,72.768 102.300 C 72.455 102.905,71.390 104.216,70.400 105.212 C 68.190 107.437,66.000 110.207,66.000 110.777 C 66.000 111.009,65.820 111.200,65.600 111.200 C 65.380 111.200,65.200 111.470,65.200 111.800 C 65.200 112.130,65.020 112.400,64.800 112.400 C 64.580 112.400,64.400 112.670,64.400 113.000 C 64.400 113.330,64.220 113.600,64.000 113.600 C 63.780 113.600,63.600 113.960,63.600 114.400 C 63.600 114.840,63.420 115.200,63.200 115.200 C 62.980 115.200,62.800 115.560,62.800 116.000 C 62.800 116.440,62.620 116.800,62.400 116.800 C 62.180 116.800,62.000 117.160,62.000 117.600 C 62.000 118.040,61.820 118.400,61.600 118.400 C 61.380 118.400,61.200 118.760,61.200 119.200 C 61.200 119.640,61.020 120.000,60.800 120.000 C 60.580 120.000,60.400 120.540,60.400 121.200 C 60.400 121.860,60.264 122.400,60.097 122.400 C 59.679 122.400,58.788 125.379,58.514 127.699 C 58.388 128.757,58.131 129.719,57.943 129.835 C 57.754 129.952,57.600 130.937,57.600 132.024 C 57.600 133.111,57.420 134.000,57.200 134.000 C 56.939 134.000,56.800 140.667,56.800 153.200 L 56.800 172.400 71.600 172.400 L 86.400 172.400 86.400 153.995 C 86.400 143.872,86.559 135.277,86.753 134.895 C 86.948 134.513,87.353 133.660,87.653 133.000 C 88.301 131.579,88.980 130.800,89.571 130.800 C 89.807 130.800,90.000 130.620,90.000 130.400 C 90.000 130.180,90.360 130.000,90.800 130.000 C 91.240 130.000,91.600 129.820,91.600 129.600 C 91.600 129.336,106.525 129.200,135.576 129.200 C 164.463 129.200,179.638 129.337,179.800 129.600 C 179.936 129.820,180.324 130.000,180.663 130.000 C 181.002 130.000,182.071 130.839,183.040 131.864 L 184.800 133.727 184.800 153.064 L 184.800 172.400 200.000 172.400 L 215.200 172.400 215.200 153.064 L 215.200 133.727 216.960 131.864 C 217.929 130.839,218.998 130.000,219.337 130.000 C 219.676 130.000,220.064 129.820,220.200 129.600 C 220.362 129.337,235.537 129.200,264.424 129.200 C 293.475 129.200,308.400 129.336,308.400 129.600 C 308.400 129.820,308.760 130.000,309.200 130.000 C 309.640 130.000,310.000 130.180,310.000 130.400 C 310.000 130.620,310.193 130.800,310.429 130.800 C 311.020 130.800,311.699 131.579,312.347 133.000 C 312.647 133.660,313.052 134.513,313.247 134.895 C 313.441 135.277,313.600 143.872,313.600 153.995 L 313.600 172.400 328.400 172.400 L 343.200 172.400 343.200 153.200 C 343.200 140.667,343.061 134.000,342.800 134.000 C 342.580 134.000,342.400 133.111,342.400 132.024 C 342.400 130.937,342.246 129.952,342.057 129.835 C 341.869 129.719,341.612 128.757,341.486 127.699 C 341.212 125.379,340.321 122.400,339.903 122.400 C 339.736 122.400,339.600 121.860,339.600 121.200 C 339.600 120.540,339.420 120.000,339.200 120.000 C 338.980 120.000,338.800 119.640,338.800 119.200 C 338.800 118.760,338.620 118.400,338.400 118.400 C 338.180 118.400,338.000 118.040,338.000 117.600 C 338.000 117.160,337.820 116.800,337.600 116.800 C 337.380 116.800,337.200 116.440,337.200 116.000 C 337.200 115.560,337.020 115.200,336.800 115.200 C 336.580 115.200,336.400 114.840,336.400 114.400 C 336.400 113.960,336.220 113.600,336.000 113.600 C 335.780 113.600,335.600 113.330,335.600 113.000 C 335.600 112.670,335.420 112.400,335.200 112.400 C 334.980 112.400,334.800 112.130,334.800 111.800 C 334.800 111.470,334.620 111.200,334.400 111.200 C 334.180 111.200,334.000 111.009,334.000 110.777 C 334.000 110.207,331.810 107.437,329.600 105.212 C 328.610 104.216,327.545 102.905,327.232 102.300 C 326.920 101.695,326.504 101.200,326.308 101.200 C 326.111 101.200,324.864 100.120,323.536 98.800 C 322.208 97.480,320.935 96.400,320.707 96.400 C 320.480 96.400,320.001 96.085,319.643 95.700 C 318.992 95.000,317.962 94.339,315.908 93.301 C 315.307 92.998,314.712 92.581,314.584 92.375 C 314.457 92.169,314.003 92.000,313.576 92.000 C 313.149 92.000,312.800 91.820,312.800 91.600 C 312.800 91.380,312.440 91.200,312.000 91.200 C 311.560 91.200,311.200 91.020,311.200 90.800 C 311.200 90.580,310.840 90.400,310.400 90.400 C 309.960 90.400,309.600 90.220,309.600 90.000 C 309.600 89.780,309.161 89.600,308.624 89.600 C 308.087 89.600,307.536 89.420,307.400 89.200 C 307.264 88.980,306.713 88.800,306.176 88.800 C 305.639 88.800,305.200 88.620,305.200 88.400 C 305.200 88.180,304.750 88.000,304.200 88.000 C 303.650 88.000,303.200 87.820,303.200 87.600 C 303.200 87.380,302.570 87.200,301.800 87.200 C 301.030 87.200,300.400 87.020,300.400 86.800 C 300.400 86.580,299.500 86.400,298.400 86.400 C 297.300 86.400,296.400 86.220,296.400 86.000 C 296.400 85.767,295.067 85.600,293.200 85.600 C 291.333 85.600,290.000 85.433,290.000 85.200 C 290.000 84.935,259.733 84.800,200.000 84.800 C 140.267 84.800,110.000 84.935,110.000 85.200 M99.600 157.202 L 99.600 172.404 135.900 172.302 L 172.200 172.200 172.305 157.100 L 172.410 142.000 136.005 142.000 L 99.600 142.000 99.600 157.202 M227.695 157.100 L 227.800 172.200 264.100 172.302 L 300.400 172.404 300.400 157.202 L 300.400 142.000 263.995 142.000 L 227.590 142.000 227.695 157.100 M26.400 185.200 C 26.400 185.420,25.421 185.600,24.224 185.600 C 23.027 185.600,21.936 185.780,21.800 186.000 C 21.664 186.220,21.106 186.400,20.560 186.400 C 20.013 186.400,19.180 186.760,18.708 187.200 C 18.236 187.640,17.613 188.000,17.325 188.000 C 17.036 188.000,16.800 188.180,16.800 188.400 C 16.800 188.620,16.536 188.800,16.214 188.800 C 14.560 188.800,8.400 196.197,8.400 198.184 C 8.400 198.523,8.220 198.800,8.000 198.800 C 7.780 198.800,7.600 199.340,7.600 200.000 C 7.600 200.660,7.420 201.200,7.200 201.200 C 6.945 201.200,6.800 204.600,6.800 210.600 C 6.800 216.600,6.945 220.000,7.200 220.000 C 7.420 220.000,7.600 220.540,7.600 221.200 C 7.600 221.860,7.780 222.400,8.000 222.400 C 8.220 222.400,8.400 222.837,8.400 223.371 C 8.400 223.906,8.670 224.613,9.000 224.943 C 9.330 225.273,9.600 225.786,9.600 226.083 C 9.600 226.380,9.960 226.883,10.400 227.200 C 10.840 227.517,11.200 227.989,11.200 228.248 C 11.200 228.862,13.938 231.600,14.552 231.600 C 14.811 231.600,15.283 231.960,15.600 232.400 C 15.917 232.840,16.497 233.200,16.888 233.200 C 17.280 233.200,17.601 233.335,17.603 233.500 C 17.607 233.859,19.544 234.800,20.280 234.800 C 20.566 234.800,20.800 234.980,20.800 235.200 C 20.800 235.420,21.340 235.600,22.000 235.600 C 22.660 235.600,23.200 235.780,23.200 236.000 C 23.200 236.266,82.400 236.400,200.000 236.400 C 317.600 236.400,376.800 236.266,376.800 236.000 C 376.800 235.780,377.340 235.600,378.000 235.600 C 378.660 235.600,379.200 235.420,379.200 235.200 C 379.200 234.980,379.434 234.800,379.720 234.800 C 380.456 234.800,382.393 233.859,382.397 233.500 C 382.399 233.335,382.720 233.200,383.112 233.200 C 383.503 233.200,384.083 232.840,384.400 232.400 C 384.717 231.960,385.189 231.600,385.448 231.600 C 386.062 231.600,388.800 228.862,388.800 228.248 C 388.800 227.989,389.160 227.517,389.600 227.200 C 390.040 226.883,390.400 226.380,390.400 226.083 C 390.400 225.786,390.670 225.273,391.000 224.943 C 391.330 224.613,391.600 223.906,391.600 223.371 C 391.600 222.837,391.780 222.400,392.000 222.400 C 392.220 222.400,392.400 221.860,392.400 221.200 C 392.400 220.540,392.580 220.000,392.800 220.000 C 393.055 220.000,393.200 216.600,393.200 210.600 C 393.200 204.600,393.055 201.200,392.800 201.200 C 392.580 201.200,392.400 200.660,392.400 200.000 C 392.400 199.340,392.220 198.800,392.000 198.800 C 391.780 198.800,391.600 198.523,391.600 198.184 C 391.600 196.197,385.440 188.800,383.786 188.800 C 383.464 188.800,383.200 188.620,383.200 188.400 C 383.200 188.180,382.964 188.000,382.675 188.000 C 382.387 188.000,381.764 187.640,381.292 187.200 C 380.820 186.760,379.987 186.400,379.440 186.400 C 378.894 186.400,378.336 186.220,378.200 186.000 C 378.064 185.780,376.973 185.600,375.776 185.600 C 374.579 185.600,373.600 185.420,373.600 185.200 C 373.600 184.934,315.467 184.800,200.000 184.800 C 84.533 184.800,26.400 184.934,26.400 185.200 M0.000 293.000 L 0.000 336.400 7.600 336.400 L 15.200 336.400 15.200 323.728 C 15.200 315.343,15.354 310.574,15.656 309.628 C 16.267 307.717,17.727 304.633,18.100 304.467 C 18.265 304.393,18.400 304.068,18.400 303.744 C 18.400 303.063,24.097 297.200,24.758 297.200 C 25.001 297.200,25.200 297.020,25.200 296.800 C 25.200 296.580,25.436 296.400,25.725 296.400 C 26.013 296.400,26.636 296.040,27.108 295.600 C 27.580 295.160,28.503 294.800,29.160 294.800 C 29.816 294.800,30.464 294.620,30.600 294.400 C 30.736 294.180,31.737 294.000,32.824 294.000 C 33.911 294.000,34.800 293.820,34.800 293.600 C 34.800 293.334,90.133 293.200,200.000 293.200 C 309.867 293.200,365.200 293.334,365.200 293.600 C 365.200 293.820,366.089 294.000,367.176 294.000 C 368.263 294.000,369.264 294.180,369.400 294.400 C 369.536 294.620,370.184 294.800,370.840 294.800 C 371.497 294.800,372.420 295.160,372.892 295.600 C 373.364 296.040,373.987 296.400,374.275 296.400 C 374.564 296.400,374.800 296.580,374.800 296.800 C 374.800 297.020,374.999 297.200,375.242 297.200 C 375.903 297.200,381.600 303.063,381.600 303.744 C 381.600 304.068,381.735 304.393,381.900 304.467 C 382.273 304.633,383.733 307.717,384.344 309.628 C 384.646 310.574,384.800 315.343,384.800 323.728 L 384.800 336.400 392.400 336.400 L 400.000 336.400 400.000 293.000 L 400.000 249.600 200.000 249.600 L 0.000 249.600 0.000 293.000 " stroke="none" fill="#040404" fill-rule="evenodd"></path><path id="path1" d="" stroke="none" fill="#080404" fill-rule="evenodd"></path><path id="path2" d="" stroke="none" fill="#080404" fill-rule="evenodd"></path><path id="path3" d="" stroke="none" fill="#080404" fill-rule="evenodd"></path><path id="path4" d="" stroke="none" fill="#080404" fill-rule="evenodd"></path></g></svg>