<svg id="svg" version="1.1" xmlns="http://www.w3.org/2000/svg" xmlns:xlink="http://www.w3.org/1999/xlink" width="400" height="400" viewBox="0, 0, 400,400"><g id="svgg"><path id="path0" d="M118.700 0.284 C 118.095 0.377,117.600 0.621,117.600 0.827 C 117.600 1.032,117.306 1.200,116.947 1.200 C 116.588 1.200,116.003 1.530,115.647 1.933 C 115.291 2.336,114.505 2.987,113.900 3.379 C 113.295 3.771,112.800 4.302,112.800 4.558 C 112.800 4.814,112.440 5.283,112.000 5.600 C 111.560 5.917,111.200 6.497,111.200 6.888 C 111.200 7.280,111.042 7.600,110.849 7.600 C 110.480 7.600,110.005 8.716,109.231 11.400 C 108.887 12.593,108.799 36.475,108.885 105.400 L 109.000 197.800 200.000 197.800 L 291.000 197.800 291.115 105.400 C 291.201 36.475,291.113 12.593,290.769 11.400 C 289.995 8.716,289.520 7.600,289.151 7.600 C 288.958 7.600,288.800 7.280,288.800 6.888 C 288.800 6.497,288.440 5.917,288.000 5.600 C 287.560 5.283,287.200 4.814,287.200 4.558 C 287.200 4.302,286.705 3.771,286.100 3.379 C 285.495 2.987,284.709 2.336,284.353 1.933 C 283.997 1.530,283.427 1.200,283.086 1.200 C 282.746 1.200,282.392 0.975,282.300 0.700 C 282.140 0.220,121.773 -0.188,118.700 0.284 M94.600 213.200 C 94.464 213.420,93.823 213.600,93.176 213.600 C 92.529 213.600,92.000 213.780,92.000 214.000 C 92.000 214.220,91.640 214.400,91.200 214.400 C 90.760 214.400,90.400 214.580,90.400 214.800 C 90.400 215.020,90.126 215.200,89.791 215.200 C 88.999 215.200,84.800 219.399,84.800 220.191 C 84.800 220.526,84.620 220.800,84.400 220.800 C 84.180 220.800,84.000 221.160,84.000 221.600 C 84.000 222.040,83.820 222.400,83.600 222.400 C 83.380 222.400,83.200 222.940,83.200 223.600 C 83.200 224.260,83.020 224.800,82.800 224.800 C 82.541 224.800,82.400 229.867,82.400 239.200 C 82.400 248.533,82.541 253.600,82.800 253.600 C 83.020 253.600,83.200 254.140,83.200 254.800 C 83.200 255.460,83.336 256.000,83.502 256.000 C 83.669 256.000,84.059 256.574,84.369 257.276 C 85.060 258.835,88.951 262.800,89.791 262.800 C 90.126 262.800,90.400 262.980,90.400 263.200 C 90.400 263.420,90.760 263.600,91.200 263.600 C 91.640 263.600,92.000 263.780,92.000 264.000 C 92.000 264.220,92.439 264.400,92.976 264.400 C 93.513 264.400,94.064 264.580,94.200 264.800 C 94.364 265.065,130.063 265.200,200.000 265.200 C 269.937 265.200,305.636 265.065,305.800 264.800 C 305.936 264.580,306.487 264.400,307.024 264.400 C 307.561 264.400,308.000 264.220,308.000 264.000 C 308.000 263.780,308.360 263.600,308.800 263.600 C 309.240 263.600,309.600 263.420,309.600 263.200 C 309.600 262.980,309.874 262.800,310.209 262.800 C 311.049 262.800,314.940 258.835,315.631 257.276 C 315.941 256.574,316.331 256.000,316.498 256.000 C 316.664 256.000,316.800 255.460,316.800 254.800 C 316.800 254.140,316.980 253.600,317.200 253.600 C 317.459 253.600,317.600 248.533,317.600 239.200 C 317.600 229.867,317.459 224.800,317.200 224.800 C 316.980 224.800,316.800 224.260,316.800 223.600 C 316.800 222.940,316.620 222.400,316.400 222.400 C 316.180 222.400,316.000 222.040,316.000 221.600 C 316.000 221.160,315.820 220.800,315.600 220.800 C 315.380 220.800,315.200 220.526,315.200 220.191 C 315.200 219.399,311.001 215.200,310.209 215.200 C 309.874 215.200,309.600 215.020,309.600 214.800 C 309.600 214.580,309.240 214.400,308.800 214.400 C 308.360 214.400,308.000 214.220,308.000 214.000 C 308.000 213.780,307.471 213.600,306.824 213.600 C 306.177 213.600,305.536 213.420,305.400 213.200 C 305.057 212.646,94.943 212.646,94.600 213.200 M103.600 337.792 C 103.600 369.587,103.750 395.600,103.932 395.600 C 104.115 395.600,104.520 396.095,104.832 396.700 C 107.866 402.580,120.800 400.576,120.800 394.226 C 120.800 393.662,120.981 393.200,121.201 393.200 C 121.468 393.200,121.569 374.297,121.501 336.700 L 121.400 280.200 112.500 280.092 L 103.600 279.985 103.600 337.792 M278.667 280.267 C 278.216 280.718,278.348 393.200,278.800 393.200 C 279.020 393.200,279.200 393.662,279.200 394.226 C 279.200 400.576,292.134 402.580,295.168 396.700 C 295.480 396.095,295.885 395.600,296.068 395.600 C 296.250 395.600,296.400 369.590,296.400 337.800 L 296.400 280.000 287.667 280.000 C 282.863 280.000,278.813 280.120,278.667 280.267 " stroke="none" fill="#040404" fill-rule="evenodd"></path><path id="path1" d="" stroke="none" fill="#080404" fill-rule="evenodd"></path><path id="path2" d="" stroke="none" fill="#080404" fill-rule="evenodd"></path><path id="path3" d="" stroke="none" fill="#080404" fill-rule="evenodd"></path><path id="path4" d="" stroke="none" fill="#080404" fill-rule="evenodd"></path></g></svg>