<svg id="svg" version="1.1" xmlns="http://www.w3.org/2000/svg" xmlns:xlink="http://www.w3.org/1999/xlink" width="400" height="400" viewBox="0, 0, 400,400"><g id="svgg"><path id="path0" d="M271.800 75.421 C 271.580 75.508,269.510 75.761,267.200 75.984 C 261.040 76.579,256.566 77.515,251.000 79.373 C 247.508 80.538,241.784 83.115,238.600 84.956 C 237.500 85.592,235.970 86.466,235.200 86.899 C 227.941 90.979,215.156 103.862,211.729 110.548 C 211.376 111.237,210.573 112.552,209.944 113.472 C 209.315 114.392,208.800 115.427,208.800 115.772 C 208.800 116.117,208.620 116.400,208.400 116.400 C 208.180 116.400,208.000 116.652,208.000 116.959 C 208.000 117.267,207.499 118.482,206.886 119.659 C 206.274 120.837,205.521 122.610,205.214 123.600 C 204.907 124.590,204.541 125.580,204.400 125.800 C 204.141 126.205,203.502 128.366,202.833 131.100 C 202.631 131.925,202.287 133.320,202.069 134.200 C 200.785 139.378,200.678 141.845,200.510 170.395 C 200.396 189.756,200.200 199.559,199.921 199.895 C 199.592 200.291,194.221 200.400,174.951 200.400 L 150.400 200.400 150.400 231.397 L 150.400 262.394 175.300 262.497 L 200.200 262.600 200.301 331.300 L 200.402 400.000 237.601 400.000 L 274.800 400.000 274.800 331.204 L 274.800 262.408 293.500 262.304 L 312.200 262.200 315.472 254.000 C 318.591 246.183,319.535 243.848,320.485 241.600 C 320.717 241.050,321.063 240.195,321.254 239.700 C 321.444 239.205,321.804 238.305,322.054 237.700 C 322.303 237.095,322.663 236.195,322.854 235.700 C 323.044 235.205,323.380 234.350,323.600 233.800 C 323.820 233.250,324.180 232.350,324.400 231.800 C 324.620 231.250,324.980 230.350,325.200 229.800 C 325.420 229.250,325.804 228.305,326.054 227.700 C 326.303 227.095,326.663 226.195,326.854 225.700 C 327.295 224.554,327.876 223.100,328.454 221.700 C 328.703 221.095,329.063 220.195,329.254 219.700 C 329.444 219.205,329.756 218.395,329.946 217.900 C 330.137 217.405,330.486 216.550,330.722 216.000 C 331.709 213.701,336.800 200.819,336.800 200.621 C 336.800 200.502,322.895 200.359,305.900 200.302 L 275.000 200.200 274.891 173.600 C 274.785 147.376,274.935 143.600,276.087 143.600 C 276.259 143.600,276.400 143.324,276.400 142.987 C 276.400 142.077,278.748 139.920,280.800 138.945 C 284.196 137.331,286.081 137.200,305.831 137.200 L 324.800 137.200 324.800 106.200 L 324.800 75.200 298.500 75.232 C 284.035 75.249,272.020 75.334,271.800 75.421 " stroke="none" fill="#fbfbfb" fill-rule="evenodd"></path><path id="path1" d="M39.300 0.292 C 38.145 0.375,37.200 0.612,37.200 0.821 C 37.200 1.029,36.581 1.200,35.824 1.200 C 35.067 1.200,34.336 1.380,34.200 1.600 C 34.064 1.820,33.603 2.000,33.176 2.000 C 32.749 2.000,32.400 2.180,32.400 2.400 C 32.400 2.620,31.860 2.800,31.200 2.800 C 30.540 2.800,30.000 2.980,30.000 3.200 C 30.000 3.420,29.640 3.600,29.200 3.600 C 28.760 3.600,28.399 3.735,28.399 3.900 C 28.398 4.065,27.408 4.650,26.200 5.200 C 24.992 5.750,24.002 6.335,24.001 6.500 C 24.001 6.665,23.764 6.800,23.475 6.800 C 23.187 6.800,22.597 7.115,22.163 7.500 C 21.730 7.885,20.752 8.552,19.988 8.981 C 19.225 9.411,18.204 10.131,17.718 10.581 C 17.233 11.032,16.266 11.850,15.569 12.400 C 13.991 13.646,13.646 13.991,12.400 15.569 C 11.850 16.266,11.032 17.233,10.581 17.718 C 10.131 18.204,9.411 19.225,8.981 19.988 C 8.552 20.752,7.885 21.730,7.500 22.163 C 7.115 22.597,6.800 23.187,6.800 23.475 C 6.800 23.764,6.665 24.001,6.500 24.001 C 6.335 24.002,5.750 24.992,5.200 26.200 C 4.650 27.408,4.065 28.398,3.900 28.399 C 3.735 28.399,3.600 28.760,3.600 29.200 C 3.600 29.640,3.420 30.000,3.200 30.000 C 2.980 30.000,2.800 30.540,2.800 31.200 C 2.800 31.860,2.620 32.400,2.400 32.400 C 2.180 32.400,2.000 32.749,2.000 33.176 C 2.000 33.603,1.820 34.064,1.600 34.200 C 1.380 34.336,1.200 35.052,1.200 35.790 C 1.200 36.529,0.975 37.208,0.700 37.300 C -0.036 37.545,-0.036 362.455,0.700 362.700 C 0.975 362.792,1.200 363.471,1.200 364.210 C 1.200 364.948,1.380 365.664,1.600 365.800 C 1.820 365.936,2.000 366.397,2.000 366.824 C 2.000 367.251,2.180 367.600,2.400 367.600 C 2.620 367.600,2.800 368.140,2.800 368.800 C 2.800 369.460,2.980 370.000,3.200 370.000 C 3.420 370.000,3.600 370.360,3.600 370.800 C 3.600 371.240,3.735 371.601,3.900 371.601 C 4.065 371.602,4.650 372.592,5.200 373.800 C 5.750 375.008,6.335 375.998,6.500 375.999 C 6.665 375.999,6.800 376.236,6.800 376.525 C 6.800 376.813,7.115 377.403,7.500 377.837 C 7.885 378.270,8.552 379.248,8.981 380.012 C 9.411 380.775,10.131 381.796,10.581 382.282 C 11.032 382.767,11.850 383.734,12.400 384.431 C 13.646 386.009,13.991 386.354,15.569 387.600 C 16.266 388.150,17.233 388.968,17.718 389.419 C 18.204 389.869,19.225 390.589,19.988 391.019 C 20.752 391.448,21.730 392.115,22.163 392.500 C 22.597 392.885,23.187 393.200,23.475 393.200 C 23.764 393.200,24.001 393.335,24.001 393.500 C 24.002 393.665,24.992 394.250,26.200 394.800 C 27.408 395.350,28.398 395.935,28.399 396.100 C 28.399 396.265,28.760 396.400,29.200 396.400 C 29.640 396.400,30.000 396.580,30.000 396.800 C 30.000 397.020,30.540 397.200,31.200 397.200 C 31.860 397.200,32.400 397.380,32.400 397.600 C 32.400 397.820,32.749 398.000,33.176 398.000 C 33.603 398.000,34.064 398.180,34.200 398.400 C 34.336 398.620,35.052 398.800,35.790 398.800 C 36.529 398.800,37.208 399.025,37.300 399.300 C 37.432 399.697,54.113 399.822,118.533 399.909 L 199.600 400.019 199.600 331.412 L 199.600 262.806 174.700 262.703 L 149.800 262.600 149.698 231.644 C 149.623 209.107,149.718 200.540,150.046 200.144 C 150.418 199.696,154.833 199.600,175.017 199.600 L 199.536 199.600 199.703 170.900 C 199.891 138.729,200.022 137.087,203.183 127.271 C 204.672 122.648,208.289 114.583,210.032 112.000 C 210.403 111.450,211.090 110.314,211.560 109.476 C 212.029 108.638,212.593 107.738,212.813 107.476 C 213.034 107.214,214.145 105.740,215.284 104.200 C 217.568 101.111,225.797 92.694,228.000 91.192 C 228.770 90.668,229.490 90.131,229.600 90.000 C 229.710 89.869,230.430 89.329,231.200 88.800 C 231.970 88.271,232.690 87.736,232.800 87.610 C 233.861 86.396,247.185 79.600,248.505 79.600 C 248.799 79.600,249.211 79.451,249.420 79.270 C 249.629 79.088,250.610 78.709,251.600 78.428 C 252.590 78.147,253.813 77.755,254.319 77.558 C 254.824 77.361,255.669 77.200,256.195 77.200 C 256.722 77.200,257.249 77.044,257.367 76.853 C 257.485 76.662,258.441 76.379,259.491 76.224 C 260.541 76.070,262.480 75.751,263.800 75.516 C 265.298 75.250,277.283 75.033,295.700 74.937 L 325.200 74.785 325.200 106.192 L 325.200 137.600 307.900 137.619 C 273.149 137.658,275.200 135.332,275.200 174.700 L 275.200 199.600 306.176 199.600 C 326.730 199.600,337.237 199.737,337.404 200.007 C 337.611 200.342,330.264 219.627,327.501 226.000 C 326.577 228.131,326.020 229.471,325.546 230.700 C 325.356 231.195,325.020 232.050,324.800 232.600 C 324.580 233.150,324.244 234.005,324.054 234.500 C 323.863 234.995,323.479 235.940,323.200 236.600 C 322.921 237.260,322.516 238.250,322.300 238.800 C 322.084 239.350,321.748 240.113,321.553 240.495 C 321.359 240.877,321.200 241.374,321.200 241.599 C 321.200 241.824,320.861 242.772,320.448 243.704 C 320.034 244.637,318.214 249.090,316.404 253.600 C 314.593 258.110,312.930 262.025,312.707 262.300 C 312.394 262.687,308.109 262.800,293.751 262.800 L 275.200 262.800 275.200 331.417 L 275.200 400.033 318.867 399.917 C 353.361 399.824,362.568 399.695,362.700 399.300 C 362.792 399.025,363.471 398.800,364.210 398.800 C 364.948 398.800,365.664 398.620,365.800 398.400 C 365.936 398.180,366.397 398.000,366.824 398.000 C 367.251 398.000,367.600 397.820,367.600 397.600 C 367.600 397.380,368.140 397.200,368.800 397.200 C 369.460 397.200,370.000 397.020,370.000 396.800 C 370.000 396.580,370.360 396.400,370.800 396.400 C 371.240 396.400,371.601 396.265,371.601 396.100 C 371.602 395.935,372.592 395.350,373.800 394.800 C 375.008 394.250,375.998 393.665,375.999 393.500 C 375.999 393.335,376.236 393.200,376.525 393.200 C 376.813 393.200,377.403 392.885,377.837 392.500 C 378.270 392.115,379.248 391.448,380.012 391.019 C 380.775 390.589,381.796 389.869,382.282 389.419 C 382.767 388.968,383.734 388.150,384.431 387.600 C 386.009 386.354,386.354 386.009,387.600 384.431 C 388.150 383.734,388.968 382.767,389.419 382.282 C 389.869 381.796,390.589 380.775,391.019 380.012 C 391.448 379.248,392.115 378.270,392.500 377.837 C 392.885 377.403,393.200 376.813,393.200 376.525 C 393.200 376.236,393.335 375.999,393.500 375.999 C 393.665 375.998,394.250 375.008,394.800 373.800 C 395.350 372.592,395.935 371.602,396.100 371.601 C 396.265 371.601,396.400 371.240,396.400 370.800 C 396.400 370.360,396.580 370.000,396.800 370.000 C 397.020 370.000,397.200 369.460,397.200 368.800 C 397.200 368.140,397.380 367.600,397.600 367.600 C 397.820 367.600,398.000 367.251,398.000 366.824 C 398.000 366.397,398.180 365.936,398.400 365.800 C 398.620 365.664,398.800 364.948,398.800 364.210 C 398.800 363.471,399.025 362.792,399.300 362.700 C 400.036 362.455,400.036 37.545,399.300 37.300 C 399.025 37.208,398.800 36.529,398.800 35.790 C 398.800 35.052,398.620 34.336,398.400 34.200 C 398.180 34.064,398.000 33.603,398.000 33.176 C 398.000 32.749,397.820 32.400,397.600 32.400 C 397.380 32.400,397.200 31.860,397.200 31.200 C 397.200 30.540,397.020 30.000,396.800 30.000 C 396.580 30.000,396.400 29.640,396.400 29.200 C 396.400 28.760,396.265 28.399,396.100 28.399 C 395.935 28.398,395.350 27.408,394.800 26.200 C 394.250 24.992,393.665 24.002,393.500 24.001 C 393.335 24.001,393.200 23.764,393.200 23.475 C 393.200 23.187,392.885 22.597,392.500 22.163 C 392.115 21.730,391.448 20.752,391.019 19.988 C 390.589 19.225,389.869 18.204,389.419 17.718 C 388.968 17.233,388.150 16.266,387.600 15.569 C 386.354 13.991,386.009 13.646,384.431 12.400 C 383.734 11.850,382.767 11.032,382.282 10.581 C 381.796 10.131,380.775 9.411,380.012 8.981 C 379.248 8.552,378.270 7.885,377.837 7.500 C 377.403 7.115,376.813 6.800,376.525 6.800 C 376.236 6.800,375.999 6.665,375.999 6.500 C 375.998 6.335,375.008 5.750,373.800 5.200 C 372.592 4.650,371.602 4.065,371.601 3.900 C 371.601 3.735,371.240 3.600,370.800 3.600 C 370.360 3.600,370.000 3.420,370.000 3.200 C 370.000 2.980,369.460 2.800,368.800 2.800 C 368.140 2.800,367.600 2.620,367.600 2.400 C 367.600 2.180,367.251 2.000,366.824 2.000 C 366.397 2.000,365.936 1.820,365.800 1.600 C 365.664 1.380,364.948 1.200,364.210 1.200 C 363.471 1.200,362.792 0.975,362.700 0.700 C 362.544 0.232,45.763 -0.167,39.300 0.292 " stroke="none" fill="#1c74d4" fill-rule="evenodd"></path><path id="path2" d="M266.600 75.600 L 265.000 75.886 266.600 75.908 C 267.480 75.920,269.100 75.790,270.200 75.618 L 272.200 75.307 270.200 75.310 C 269.100 75.312,267.480 75.442,266.600 75.600 M261.200 76.400 C 259.833 76.688,259.828 76.695,261.000 76.719 C 261.660 76.733,262.560 76.589,263.000 76.400 C 263.962 75.987,263.164 75.987,261.200 76.400 M257.600 77.200 C 256.776 77.464,256.741 77.526,257.400 77.554 C 257.840 77.573,258.470 77.413,258.800 77.200 C 259.501 76.747,259.014 76.747,257.600 77.200 M254.400 78.000 C 253.576 78.264,253.541 78.326,254.200 78.354 C 254.640 78.373,255.270 78.213,255.600 78.000 C 256.301 77.547,255.814 77.547,254.400 78.000 M242.800 82.400 C 241.590 83.039,240.780 83.562,241.000 83.562 C 241.220 83.562,242.390 83.039,243.600 82.400 C 244.810 81.761,245.620 81.238,245.400 81.238 C 245.180 81.238,244.010 81.761,242.800 82.400 M239.100 84.229 C 237.605 85.040,237.696 85.378,239.200 84.600 C 239.860 84.259,240.400 83.894,240.400 83.790 C 240.400 83.532,240.357 83.547,239.100 84.229 M230.800 89.649 C 229.406 90.871,229.405 90.872,230.688 90.019 C 231.396 89.548,232.082 88.991,232.212 88.781 C 232.597 88.157,232.277 88.354,230.800 89.649 M227.200 92.434 L 225.400 94.065 227.300 92.584 C 228.966 91.286,229.459 90.797,229.100 90.801 C 229.045 90.802,228.190 91.536,227.200 92.434 M222.000 97.000 C 221.028 97.990,220.335 98.800,220.459 98.800 C 220.583 98.800,221.517 97.990,222.536 97.000 C 223.555 96.010,224.248 95.200,224.077 95.200 C 223.906 95.200,222.972 96.010,222.000 97.000 M218.371 100.938 C 217.585 101.852,216.443 103.320,215.833 104.200 L 214.724 105.800 215.862 104.403 C 216.488 103.635,217.790 102.150,218.755 101.103 C 219.720 100.056,220.350 99.217,220.155 99.238 C 219.960 99.258,219.157 100.023,218.371 100.938 M213.479 107.300 C 212.394 108.768,211.662 110.032,212.263 109.400 C 213.005 108.620,214.838 106.000,214.641 106.000 C 214.531 106.000,214.008 106.585,213.479 107.300 M211.152 110.900 C 210.890 111.395,210.415 112.250,210.096 112.800 C 209.539 113.759,209.543 113.767,210.188 113.000 C 210.986 112.052,212.105 110.000,211.824 110.000 C 211.716 110.000,211.414 110.405,211.152 110.900 M201.800 133.600 C 201.650 134.073,201.617 134.550,201.727 134.660 C 201.837 134.770,202.050 134.473,202.200 134.000 C 202.350 133.527,202.383 133.050,202.273 132.940 C 202.163 132.830,201.950 133.127,201.800 133.600 M201.018 138.218 C 200.865 139.239,200.822 140.155,200.922 140.255 C 201.022 140.355,201.229 139.602,201.382 138.582 C 201.535 137.561,201.578 136.645,201.478 136.545 C 201.378 136.445,201.171 137.198,201.018 138.218 M295.472 137.500 C 300.792 137.563,309.612 137.563,315.072 137.500 C 320.533 137.437,316.180 137.385,305.400 137.385 C 294.620 137.385,290.153 137.437,295.472 137.500 M281.845 138.328 C 281.733 138.508,282.173 138.577,282.821 138.482 C 283.470 138.387,284.000 138.240,284.000 138.155 C 284.000 137.850,282.043 138.007,281.845 138.328 M200.259 145.053 C 200.117 146.740,200.038 159.749,200.085 173.960 L 200.171 199.800 200.385 171.000 C 200.503 155.160,200.582 142.152,200.559 142.093 C 200.537 142.034,200.402 143.366,200.259 145.053 M275.049 145.815 C 274.912 146.173,274.824 147.126,274.853 147.933 C 274.901 149.244,274.938 149.187,275.195 147.400 C 275.503 145.271,275.455 144.758,275.049 145.815 M275.135 200.095 C 275.522 200.482,337.200 200.690,337.200 200.305 C 337.200 200.142,323.169 199.962,306.020 199.905 C 288.871 199.847,274.973 199.933,275.135 200.095 M150.098 231.300 L 150.195 262.600 150.300 231.503 L 150.405 200.406 175.102 200.300 L 199.800 200.194 174.900 200.097 L 150.000 200.000 150.098 231.300 M319.231 244.500 C 319.039 244.995,318.497 246.368,318.026 247.552 C 317.556 248.736,317.246 249.780,317.339 249.872 C 317.432 249.965,317.688 249.537,317.909 248.920 C 318.130 248.304,318.688 246.855,319.149 245.700 C 319.611 244.545,319.896 243.600,319.784 243.600 C 319.672 243.600,319.423 244.005,319.231 244.500 M200.195 331.400 C 200.195 369.240,200.243 384.661,200.300 365.668 C 200.357 346.676,200.357 315.716,200.300 296.868 C 200.242 278.021,200.195 293.560,200.195 331.400 " stroke="none" fill="#a4c4ec" fill-rule="evenodd"></path><path id="path3" d="M299.098 75.098 L 324.795 75.206 324.901 106.203 L 325.007 137.200 325.004 106.100 L 325.000 75.000 299.200 74.996 L 273.400 74.991 299.098 75.098 M200.093 144.800 C 200.093 145.570,200.175 145.885,200.276 145.500 C 200.376 145.115,200.376 144.485,200.276 144.100 C 200.175 143.715,200.093 144.030,200.093 144.800 M274.988 174.400 C 274.988 188.370,275.039 194.085,275.100 187.100 C 275.161 180.115,275.161 168.685,275.100 161.700 C 275.039 154.715,274.988 160.430,274.988 174.400 M274.995 331.400 C 274.995 369.240,275.043 384.661,275.100 365.668 C 275.157 346.676,275.157 315.716,275.100 296.868 C 275.042 278.021,274.995 293.560,274.995 331.400 " stroke="none" fill="#8cbce4" fill-rule="evenodd"></path><path id="path4" d="M266.200 75.176 C 265.456 75.474,272.516 75.301,273.400 74.999 C 273.620 74.924,272.270 74.862,270.400 74.860 C 268.530 74.858,266.640 75.000,266.200 75.176 M261.000 76.010 C 260.466 76.247,260.798 76.286,262.000 76.127 C 262.990 75.996,263.875 75.824,263.967 75.744 C 264.314 75.443,261.764 75.672,261.000 76.010 M257.400 76.800 C 257.108 77.273,257.499 77.273,258.600 76.800 C 259.371 76.469,259.369 76.455,258.524 76.428 C 258.042 76.413,257.536 76.580,257.400 76.800 M239.096 83.750 C 236.772 85.179,236.774 85.412,239.100 84.205 C 240.255 83.606,241.200 83.045,241.200 82.958 C 241.200 82.615,240.533 82.866,239.096 83.750 M234.600 86.417 C 233.500 87.064,232.764 87.595,232.965 87.597 C 233.406 87.601,236.800 85.642,236.800 85.383 C 236.800 85.122,236.804 85.120,234.600 86.417 M226.635 92.203 C 225.995 92.753,225.558 93.291,225.665 93.398 C 225.771 93.504,226.374 93.054,227.004 92.396 C 228.399 90.939,228.216 90.843,226.635 92.203 M221.212 97.388 C 219.579 99.032,218.324 100.430,218.422 100.495 C 218.520 100.560,219.938 99.216,221.572 97.507 C 225.365 93.543,225.113 93.461,221.212 97.388 M216.959 102.100 C 215.207 104.121,214.687 104.800,214.890 104.800 C 215.007 104.800,215.767 103.990,216.579 103.000 C 218.081 101.166,218.379 100.463,216.959 102.100 M212.057 108.457 C 211.775 108.909,211.632 109.366,211.740 109.473 C 211.847 109.581,212.144 109.278,212.400 108.800 C 213.005 107.670,212.724 107.390,212.057 108.457 M209.814 112.235 C 209.441 112.804,209.227 113.361,209.339 113.472 C 209.450 113.583,209.829 113.118,210.181 112.437 C 210.959 110.933,210.744 110.815,209.814 112.235 M204.258 124.104 C 203.328 126.540,203.480 127.004,204.436 124.647 C 204.872 123.573,205.158 122.624,205.072 122.538 C 204.986 122.452,204.620 123.157,204.258 124.104 M202.452 129.659 C 202.166 130.836,201.835 132.160,201.716 132.600 C 201.598 133.040,201.616 133.292,201.756 133.161 C 202.112 132.827,203.252 128.355,203.098 127.894 C 203.029 127.687,202.738 128.481,202.452 129.659 M285.600 138.021 C 284.952 138.242,285.445 138.280,287.000 138.131 C 288.320 138.004,289.475 137.832,289.567 137.750 C 289.890 137.459,286.586 137.684,285.600 138.021 M200.229 140.829 C 200.076 142.179,200.033 143.366,200.133 143.467 C 200.234 143.567,200.444 142.547,200.600 141.200 C 200.756 139.853,200.799 138.666,200.695 138.562 C 200.591 138.458,200.381 139.478,200.229 140.829 M275.400 146.800 C 275.246 147.710,275.211 148.544,275.321 148.654 C 275.431 148.764,275.646 148.110,275.800 147.200 C 275.954 146.290,275.989 145.456,275.879 145.346 C 275.769 145.236,275.554 145.890,275.400 146.800 M199.600 173.397 L 199.600 199.594 174.900 199.700 L 150.200 199.806 175.100 199.903 L 200.000 200.000 200.000 173.600 C 200.000 159.080,199.910 147.200,199.800 147.200 C 199.690 147.200,199.600 158.989,199.600 173.397 M306.143 199.900 L 337.285 200.005 337.037 201.102 C 336.830 202.019,336.861 202.081,337.228 201.476 C 338.404 199.536,339.410 199.593,306.113 199.698 L 275.000 199.795 306.143 199.900 M149.796 231.400 L 149.800 262.600 174.699 262.703 L 199.598 262.806 199.701 331.403 L 199.803 400.000 199.802 331.300 L 199.800 262.600 174.902 262.497 L 150.005 262.394 149.899 231.297 L 149.793 200.200 149.796 231.400 M330.200 218.304 C 328.913 221.547,327.605 224.830,327.293 225.600 C 326.981 226.370,326.896 226.820,327.104 226.600 C 327.585 226.092,332.888 212.755,332.689 212.556 C 332.607 212.474,331.488 215.061,330.200 218.304 M312.564 261.996 C 312.317 262.243,305.164 262.433,293.584 262.500 L 275.000 262.608 293.651 262.704 C 309.821 262.787,312.368 262.720,312.800 262.200 C 313.356 261.531,313.181 261.379,312.564 261.996 " stroke="none" fill="#70aae2" fill-rule="evenodd"></path></g></svg>