<?xml version="1.0" standalone="no"?>
<!DOCTYPE svg PUBLIC "-//W3C//DTD SVG 20010904//EN"
 "http://www.w3.org/TR/2001/REC-SVG-20010904/DTD/svg10.dtd">
<svg version="1.0" xmlns="http://www.w3.org/2000/svg"
 width="512.000000pt" height="512.000000pt" viewBox="0 0 512.000000 512.000000"
 preserveAspectRatio="xMidYMid meet">

<g transform="translate(0.000000,512.000000) scale(0.100000,-0.100000)"
fill="#000000" stroke="none">
<path d="M1471 4411 c-628 -390 -1144 -711 -1146 -713 -3 -3 839 -648 850
-651 4 -1 17 25 30 58 178 474 601 830 1120 942 116 25 457 25 575 0 231 -49
420 -132 593 -260 l69 -50 369 369 c203 203 368 372 367 375 -6 16 -174 144
-284 216 -136 90 -383 215 -529 269 -218 80 -501 136 -745 149 l-125 6 -1144
-710z"/>
<path d="M4586 1875 c-153 -646 -280 -1185 -283 -1197 -7 -34 142 124 246 262
169 224 289 459 379 741 122 380 163 869 103 1214 -30 169 -21 155 -100 155
l-67 0 -278 -1175z"/>
<path d="M2650 2351 l0 -281 638 0 c367 0 631 4 622 9 -12 7 -1200 529 -1247
548 -10 4 -13 -55 -13 -276z"/>
</g>
</svg>
