<svg id="svg" version="1.1" xmlns="http://www.w3.org/2000/svg" xmlns:xlink="http://www.w3.org/1999/xlink" width="400" height="400" viewBox="0, 0, 400,400"><g id="svgg"><path id="path0" d="M206.267 160.667 C 206.120 160.813,206.000 178.633,206.000 200.267 L 206.000 239.600 258.200 239.600 L 310.400 239.600 310.400 240.776 C 310.400 241.423,310.240 242.052,310.044 242.173 C 309.849 242.294,309.591 242.979,309.473 243.696 C 308.955 246.820,308.311 249.428,307.969 249.780 C 307.766 249.989,307.600 250.574,307.600 251.080 C 307.600 251.586,307.420 252.000,307.200 252.000 C 306.980 252.000,306.800 252.540,306.800 253.200 C 306.800 253.860,306.620 254.400,306.400 254.400 C 306.180 254.400,306.000 254.940,306.000 255.600 C 306.000 256.260,305.820 256.800,305.600 256.800 C 305.380 256.800,305.200 257.145,305.200 257.567 C 305.200 257.988,305.065 258.393,304.900 258.467 C 304.468 258.659,302.800 261.972,302.800 262.638 C 302.800 262.947,302.620 263.200,302.400 263.200 C 302.180 263.200,302.000 263.568,302.000 264.017 C 302.000 264.466,301.640 265.220,301.200 265.692 C 300.760 266.164,300.400 266.787,300.400 267.075 C 300.400 267.364,300.220 267.600,300.000 267.600 C 299.780 267.600,299.600 267.960,299.600 268.400 C 299.600 268.840,299.420 269.200,299.200 269.200 C 298.980 269.200,298.800 269.520,298.800 269.912 C 298.800 270.303,298.440 270.883,298.000 271.200 C 297.560 271.517,297.200 272.097,297.200 272.488 C 297.200 272.880,297.032 273.200,296.827 273.200 C 296.622 273.200,296.340 273.559,296.201 273.998 C 296.062 274.436,295.731 275.021,295.466 275.298 C 294.708 276.087,292.000 279.880,292.000 280.152 C 292.000 280.286,291.100 281.315,290.000 282.439 C 288.900 283.562,288.000 284.645,288.000 284.846 C 288.000 285.249,281.360 292.000,280.964 292.000 C 280.720 292.000,276.843 295.100,274.693 297.014 C 274.084 297.557,273.401 298.000,273.175 298.000 C 272.949 298.000,272.303 298.460,271.741 299.023 C 270.322 300.441,269.043 299.227,284.666 311.296 C 288.442 314.213,294.806 319.120,298.808 322.200 C 302.810 325.280,307.574 328.970,309.393 330.400 C 311.212 331.830,315.976 335.520,319.979 338.600 C 323.982 341.680,329.058 345.595,331.259 347.300 C 333.461 349.005,335.419 350.400,335.612 350.400 C 336.340 350.400,343.200 343.746,343.200 343.040 C 343.200 342.785,343.584 342.312,344.053 341.988 C 345.481 341.004,349.600 336.872,349.600 336.424 C 349.600 336.193,350.500 335.085,351.600 333.961 C 352.700 332.838,353.600 331.739,353.600 331.520 C 353.600 331.301,354.140 330.617,354.800 330.000 C 355.460 329.383,356.000 328.673,356.000 328.421 C 356.000 328.170,356.450 327.514,357.000 326.964 C 357.550 326.414,358.000 325.837,358.001 325.682 C 358.001 325.527,358.541 324.770,359.200 324.000 C 359.859 323.230,360.399 322.415,360.399 322.188 C 360.400 321.962,360.760 321.517,361.200 321.200 C 361.640 320.883,362.000 320.343,362.000 320.000 C 362.000 319.657,362.360 319.117,362.800 318.800 C 363.240 318.483,363.600 317.943,363.600 317.600 C 363.600 317.257,363.960 316.717,364.400 316.400 C 364.840 316.083,365.200 315.503,365.200 315.112 C 365.200 314.720,365.380 314.400,365.600 314.400 C 365.820 314.400,366.000 314.080,366.000 313.688 C 366.000 313.297,366.360 312.717,366.800 312.400 C 367.240 312.083,367.600 311.503,367.600 311.112 C 367.600 310.720,367.780 310.400,368.000 310.400 C 368.220 310.400,368.400 310.106,368.400 309.747 C 368.400 309.388,368.729 308.803,369.130 308.447 C 369.532 308.091,370.116 307.215,370.428 306.500 C 370.740 305.785,371.131 305.200,371.298 305.200 C 371.464 305.200,371.600 304.840,371.600 304.400 C 371.600 303.960,371.780 303.600,372.000 303.600 C 372.220 303.600,372.400 303.240,372.400 302.800 C 372.400 302.360,372.580 302.000,372.800 302.000 C 373.020 302.000,373.200 301.640,373.200 301.200 C 373.200 300.760,373.360 300.400,373.557 300.400 C 373.998 300.400,375.200 297.469,375.200 296.392 C 375.200 295.956,375.380 295.600,375.600 295.600 C 375.820 295.600,376.000 295.240,376.000 294.800 C 376.000 294.360,376.180 294.000,376.400 294.000 C 376.620 294.000,376.800 293.655,376.800 293.233 C 376.800 292.812,376.935 292.407,377.100 292.333 C 377.599 292.112,379.200 288.778,379.200 287.962 C 379.200 287.543,379.380 287.200,379.600 287.200 C 379.820 287.200,380.000 286.851,380.000 286.424 C 380.000 285.997,380.180 285.536,380.400 285.400 C 380.620 285.264,380.800 284.713,380.800 284.176 C 380.800 283.639,380.980 283.200,381.200 283.200 C 381.420 283.200,381.600 282.840,381.600 282.400 C 381.600 281.960,381.780 281.600,382.000 281.600 C 382.220 281.600,382.400 281.075,382.400 280.433 C 382.400 279.792,382.578 279.207,382.797 279.133 C 383.015 279.060,383.234 278.505,383.284 277.900 C 383.334 277.295,383.515 276.800,383.687 276.800 C 383.859 276.800,384.000 276.440,384.000 276.000 C 384.000 275.560,384.180 275.200,384.400 275.200 C 384.620 275.200,384.800 274.660,384.800 274.000 C 384.800 273.340,384.980 272.800,385.200 272.800 C 385.420 272.800,385.600 272.361,385.600 271.824 C 385.600 271.287,385.780 270.736,386.000 270.600 C 386.220 270.464,386.400 269.834,386.400 269.200 C 386.400 268.566,386.580 267.936,386.800 267.800 C 387.020 267.664,387.200 267.023,387.200 266.376 C 387.200 265.729,387.380 265.200,387.600 265.200 C 387.820 265.200,388.000 264.581,388.000 263.824 C 388.000 263.067,388.180 262.336,388.400 262.200 C 388.620 262.064,388.800 261.423,388.800 260.776 C 388.800 260.129,388.980 259.600,389.200 259.600 C 389.420 259.600,389.600 258.891,389.600 258.024 C 389.600 257.157,389.780 256.336,390.000 256.200 C 390.220 256.064,390.400 255.279,390.400 254.456 C 390.400 253.633,390.572 252.788,390.783 252.577 C 390.993 252.367,391.289 250.711,391.440 248.897 C 391.591 247.084,391.869 245.600,392.058 245.600 C 392.246 245.600,392.400 244.621,392.400 243.424 C 392.400 242.227,392.580 241.136,392.800 241.000 C 393.020 240.864,393.200 239.863,393.200 238.776 C 393.200 237.689,393.380 236.800,393.600 236.800 C 393.831 236.800,394.000 235.533,394.000 233.800 C 394.000 232.067,394.169 230.800,394.400 230.800 C 394.633 230.800,394.800 229.467,394.800 227.600 C 394.800 225.733,394.967 224.400,395.200 224.400 C 395.448 224.400,395.600 222.259,395.600 218.776 C 395.600 215.336,395.747 213.244,395.979 213.387 C 396.215 213.533,396.370 208.770,396.389 200.811 C 396.409 192.312,396.282 188.000,396.010 188.000 C 395.760 188.000,395.600 186.591,395.600 184.400 C 395.600 182.267,395.437 180.800,395.200 180.800 C 394.974 180.800,394.800 179.667,394.800 178.200 C 394.800 176.733,394.626 175.600,394.400 175.600 C 394.171 175.600,394.000 174.400,394.000 172.800 C 394.000 171.200,393.829 170.000,393.600 170.000 C 393.380 170.000,393.200 169.100,393.200 168.000 C 393.200 166.900,393.020 166.000,392.800 166.000 C 392.580 166.000,392.400 165.089,392.400 163.976 C 392.400 162.729,392.247 162.048,392.000 162.200 C 391.773 162.340,391.600 162.004,391.600 161.424 L 391.600 160.400 299.067 160.400 C 248.173 160.400,206.413 160.520,206.267 160.667 " stroke="none" fill="#0dabf3" fill-rule="evenodd"></path><path id="path1" d="M202.200 1.344 C 201.100 2.094,197.050 4.643,193.200 7.009 C 189.350 9.374,184.850 12.156,183.200 13.191 C 178.769 15.970,175.412 18.050,158.800 28.310 C 152.510 32.196,149.714 33.931,146.400 36.007 C 143.512 37.816,137.441 41.576,132.000 44.927 C 130.570 45.807,128.050 47.377,126.400 48.415 C 123.688 50.122,121.186 51.672,107.200 60.310 C 101.468 63.851,98.339 65.791,94.800 68.000 C 90.225 70.855,87.107 72.784,81.200 76.414 C 78.230 78.239,74.900 80.305,73.800 81.005 C 71.320 82.583,68.511 84.324,50.400 95.510 C 48.090 96.937,45.062 98.831,43.671 99.718 C 42.281 100.605,40.638 101.617,40.021 101.966 C 39.404 102.315,35.728 104.564,31.853 106.965 L 24.806 111.330 26.303 112.335 C 27.126 112.887,27.890 113.452,28.000 113.589 C 28.110 113.726,28.830 114.271,29.600 114.800 C 30.370 115.329,31.090 115.860,31.200 115.981 C 31.310 116.101,32.930 117.362,34.800 118.783 C 36.670 120.204,38.290 121.465,38.400 121.585 C 38.605 121.810,40.491 123.245,52.000 131.935 C 55.630 134.676,58.690 137.031,58.800 137.169 C 58.910 137.308,61.503 139.306,64.562 141.610 C 67.621 143.915,72.609 147.690,75.646 150.000 C 78.683 152.310,83.685 156.090,86.761 158.400 C 89.837 160.710,92.364 162.825,92.377 163.100 C 92.427 164.183,93.200 163.525,93.200 162.400 C 93.200 161.740,93.380 161.200,93.600 161.200 C 93.820 161.200,94.000 160.660,94.000 160.000 C 94.000 159.340,94.180 158.800,94.400 158.800 C 94.620 158.800,94.800 158.440,94.800 158.000 C 94.800 157.560,94.980 157.200,95.200 157.200 C 95.420 157.200,95.579 157.065,95.553 156.900 C 95.414 156.020,95.636 154.303,95.861 154.527 C 96.165 154.831,97.200 152.979,97.200 152.131 C 97.200 151.813,97.380 151.664,97.600 151.800 C 97.820 151.936,98.000 151.707,98.000 151.290 C 98.000 150.874,98.127 150.407,98.282 150.252 C 98.437 150.097,98.628 149.482,98.706 148.885 C 98.785 148.288,99.018 147.740,99.225 147.667 C 99.431 147.593,99.600 147.278,99.600 146.967 C 99.600 146.655,99.780 146.400,100.000 146.400 C 100.220 146.400,100.400 146.164,100.400 145.875 C 100.400 145.587,100.760 144.964,101.200 144.492 C 101.640 144.020,102.000 143.356,102.000 143.017 C 102.000 142.678,102.210 142.400,102.467 142.400 C 102.723 142.400,102.813 142.280,102.666 142.132 C 102.519 141.985,102.697 141.535,103.061 141.132 C 103.426 140.730,103.582 140.400,103.407 140.400 C 103.233 140.400,103.565 139.925,104.145 139.345 C 104.725 138.765,105.200 137.945,105.200 137.522 C 105.200 137.099,105.380 136.864,105.600 137.000 C 105.820 137.136,106.000 136.967,106.000 136.624 C 106.000 136.281,106.191 136.000,106.424 136.000 C 106.657 136.000,106.740 135.827,106.609 135.615 C 106.478 135.403,106.698 134.902,107.099 134.501 C 107.499 134.101,108.125 133.145,108.489 132.377 C 108.854 131.609,109.613 130.445,110.175 129.790 C 110.738 129.136,111.199 128.364,111.200 128.076 C 111.200 127.788,111.380 127.664,111.600 127.800 C 111.820 127.936,112.000 127.883,112.000 127.683 C 112.000 127.483,112.540 126.754,113.200 126.063 C 113.860 125.372,114.414 124.491,114.432 124.104 C 114.449 123.717,114.548 123.608,114.652 123.861 C 114.850 124.344,116.800 122.667,116.800 122.015 C 116.800 121.823,116.935 121.607,117.100 121.533 C 117.265 121.460,117.895 120.801,118.500 120.069 C 119.105 119.337,119.600 118.855,119.600 118.998 C 119.600 119.343,120.627 118.305,120.836 117.749 C 120.926 117.508,121.866 116.566,122.924 115.656 C 123.983 114.745,124.735 114.000,124.596 114.000 C 124.258 114.000,125.255 113.100,126.148 112.600 C 126.540 112.380,126.880 112.020,126.902 111.800 C 126.967 111.160,127.886 110.400,128.595 110.400 C 128.954 110.400,129.136 110.220,129.000 110.000 C 128.864 109.780,129.063 109.600,129.443 109.600 C 129.823 109.600,130.010 109.476,129.859 109.325 C 129.708 109.174,130.317 108.715,131.213 108.304 C 132.108 107.894,132.943 107.293,133.067 106.969 C 133.191 106.645,134.005 106.054,134.876 105.655 C 135.747 105.256,136.491 104.765,136.530 104.565 C 136.568 104.364,136.735 104.245,136.900 104.300 C 137.065 104.355,137.200 104.220,137.200 104.000 C 137.200 103.780,137.560 103.600,138.000 103.600 C 138.440 103.600,138.800 103.363,138.800 103.074 C 138.800 102.785,139.430 102.248,140.200 101.881 C 140.970 101.513,141.600 101.030,141.600 100.806 C 141.600 100.583,141.881 100.400,142.224 100.400 C 142.567 100.400,142.736 100.220,142.600 100.000 C 142.454 99.764,142.897 99.597,143.676 99.594 C 144.678 99.589,144.854 99.493,144.400 99.200 C 143.915 98.886,143.972 98.811,144.700 98.806 C 145.195 98.803,145.600 98.620,145.600 98.400 C 145.600 98.180,145.960 98.000,146.400 98.000 C 146.840 98.000,147.200 97.820,147.200 97.600 C 147.200 97.380,147.481 97.200,147.824 97.200 C 148.167 97.200,148.336 97.020,148.200 96.800 C 148.060 96.573,148.396 96.400,148.976 96.400 C 149.539 96.400,150.000 96.220,150.000 96.000 C 150.000 95.780,150.270 95.600,150.600 95.600 C 150.930 95.600,151.203 95.375,151.206 95.100 C 151.210 94.767,151.342 94.800,151.600 95.200 C 151.830 95.556,151.990 95.608,151.994 95.326 C 151.997 95.065,152.630 94.624,153.400 94.346 C 154.170 94.067,154.800 93.695,154.800 93.520 C 154.800 93.344,155.072 93.200,155.405 93.200 C 156.002 93.200,157.610 92.430,158.000 91.958 C 158.219 91.693,161.217 91.024,161.700 91.133 C 161.865 91.170,162.000 91.020,162.000 90.800 C 162.000 90.580,162.540 90.400,163.200 90.400 C 163.860 90.400,164.400 90.220,164.400 90.000 C 164.400 89.780,164.679 89.600,165.019 89.600 C 165.360 89.600,166.384 89.240,167.294 88.800 C 168.205 88.360,169.420 88.000,169.995 88.000 C 170.570 88.000,171.211 87.831,171.420 87.625 C 171.629 87.418,172.250 87.189,172.800 87.115 C 173.350 87.040,174.009 86.849,174.264 86.688 C 174.520 86.528,175.182 86.359,175.735 86.314 C 176.289 86.268,176.665 86.106,176.571 85.954 C 176.411 85.695,177.491 85.519,182.700 84.954 C 183.855 84.828,184.800 84.563,184.800 84.363 C 184.800 84.163,185.689 84.000,186.776 84.000 C 187.863 84.000,188.864 83.820,189.000 83.600 C 189.136 83.380,189.462 83.203,189.724 83.206 C 190.010 83.210,189.961 83.367,189.600 83.600 C 189.270 83.813,189.189 83.991,189.420 83.994 C 189.651 83.997,190.017 83.823,190.233 83.607 C 190.450 83.390,192.151 83.183,194.013 83.146 C 195.876 83.109,197.660 82.881,197.977 82.639 C 198.414 82.306,198.481 82.321,198.253 82.700 C 198.066 83.011,198.179 83.200,198.553 83.200 C 198.883 83.200,199.264 83.020,199.400 82.800 C 199.784 82.178,209.198 82.274,209.206 82.900 C 209.211 83.262,209.309 83.248,209.561 82.849 C 209.782 82.501,210.112 82.423,210.455 82.638 C 211.145 83.069,211.116 83.066,215.324 83.139 C 217.557 83.178,218.757 83.347,218.600 83.600 C 218.445 83.851,219.370 84.011,221.076 84.031 C 222.574 84.047,224.070 84.130,224.400 84.215 C 224.730 84.299,225.720 84.571,226.600 84.818 C 228.069 85.230,229.358 85.507,233.200 86.235 C 233.970 86.381,234.860 86.703,235.177 86.950 C 235.611 87.289,235.683 87.283,235.470 86.927 C 235.302 86.648,235.721 86.722,236.493 87.108 C 237.212 87.467,238.132 87.786,238.537 87.816 C 238.942 87.847,239.415 88.101,239.588 88.381 C 239.839 88.787,239.947 88.780,240.120 88.345 C 240.274 87.958,240.346 87.945,240.368 88.300 C 240.386 88.575,240.850 88.800,241.400 88.800 C 241.950 88.800,242.400 88.950,242.400 89.133 C 242.400 89.317,242.670 89.497,243.000 89.533 C 243.330 89.570,243.870 89.630,244.200 89.667 C 244.530 89.703,244.800 89.891,244.800 90.084 C 244.800 90.277,245.025 90.406,245.300 90.370 C 246.433 90.223,247.232 90.425,247.000 90.800 C 246.860 91.026,247.186 91.200,247.748 91.200 C 248.295 91.200,248.981 91.425,249.271 91.700 C 249.562 91.975,250.160 92.253,250.600 92.317 C 251.575 92.459,254.948 94.084,255.133 94.500 C 255.207 94.665,255.576 94.800,255.955 94.800 C 256.334 94.800,257.495 95.340,258.536 96.000 C 259.576 96.660,260.602 97.200,260.814 97.200 C 261.026 97.200,261.200 97.380,261.200 97.600 C 261.200 97.820,261.550 98.000,261.977 98.000 C 262.405 98.000,263.035 98.400,263.377 98.889 C 263.720 99.378,264.000 99.620,264.000 99.427 C 264.000 99.234,264.315 99.337,264.700 99.655 C 265.085 99.974,265.895 100.482,266.500 100.785 C 267.105 101.088,267.600 101.485,267.600 101.668 C 267.600 101.850,268.005 102.003,268.500 102.006 C 269.228 102.011,269.285 102.086,268.800 102.400 C 268.315 102.714,268.372 102.789,269.100 102.794 C 269.595 102.797,270.000 102.991,270.000 103.224 C 270.000 103.457,270.180 103.536,270.400 103.400 C 270.620 103.264,270.800 103.348,270.800 103.586 C 270.800 103.825,271.255 104.193,271.810 104.404 C 272.366 104.615,272.925 105.060,273.052 105.392 C 273.180 105.724,273.445 105.896,273.642 105.774 C 273.839 105.652,274.014 105.878,274.032 106.276 C 274.052 106.742,274.138 106.812,274.274 106.472 C 274.428 106.087,274.643 106.169,275.065 106.772 C 275.384 107.227,275.905 107.600,276.223 107.600 C 276.540 107.600,276.800 107.870,276.800 108.200 C 276.800 109.202,278.786 108.925,279.671 107.800 C 280.104 107.250,280.685 106.800,280.961 106.800 C 281.238 106.800,281.706 106.350,282.000 105.801 C 282.294 105.251,282.613 104.880,282.710 104.977 C 282.981 105.247,283.940 104.239,283.734 103.900 C 283.635 103.735,283.844 103.600,284.200 103.600 C 284.556 103.600,284.736 103.420,284.600 103.200 C 284.464 102.980,284.644 102.800,285.000 102.800 C 285.356 102.800,285.536 102.620,285.400 102.400 C 285.264 102.180,285.433 102.000,285.776 102.000 C 286.119 102.000,286.355 101.865,286.300 101.700 C 286.245 101.535,286.349 101.367,286.530 101.326 C 286.882 101.248,287.730 100.307,288.950 98.640 C 289.363 98.076,289.825 97.692,289.978 97.786 C 290.130 97.880,290.512 97.582,290.827 97.124 C 291.619 95.971,296.800 90.696,296.800 91.042 C 296.800 91.343,297.830 90.201,298.788 88.837 C 299.112 88.377,299.521 88.000,299.697 88.000 C 300.117 88.000,304.400 83.714,304.400 83.294 C 304.400 83.117,305.153 82.393,306.073 81.686 C 306.993 80.979,307.608 80.400,307.439 80.400 C 307.271 80.400,308.614 78.960,310.425 77.200 C 312.235 75.440,313.870 74.000,314.058 74.000 C 314.246 74.000,314.400 73.822,314.400 73.605 C 314.400 72.984,315.720 71.600,316.313 71.600 C 316.607 71.600,316.736 71.420,316.600 71.200 C 316.464 70.980,316.556 70.800,316.805 70.800 C 317.374 70.800,318.164 70.012,318.510 69.100 C 318.656 68.715,318.975 68.400,319.219 68.400 C 319.744 68.400,322.800 65.300,322.800 64.767 C 322.800 64.565,323.070 64.400,323.400 64.400 C 323.730 64.400,324.000 64.242,324.000 64.049 C 324.000 63.550,329.896 57.600,330.390 57.600 C 330.616 57.600,330.801 57.375,330.801 57.100 C 330.802 56.825,331.341 56.240,332.000 55.800 C 332.659 55.360,333.198 54.764,333.199 54.476 C 333.199 54.188,333.335 54.035,333.500 54.134 C 333.891 54.371,334.826 53.360,334.509 53.043 C 334.376 52.909,334.490 52.800,334.762 52.800 C 335.405 52.800,336.436 51.769,336.114 51.448 C 335.978 51.311,336.142 51.200,336.478 51.200 C 337.498 51.200,337.138 49.117,335.942 48.100 C 335.360 47.605,334.685 47.200,334.442 47.200 C 334.199 47.200,334.000 47.020,334.000 46.800 C 334.000 46.580,333.719 46.400,333.376 46.400 C 333.033 46.400,332.864 46.220,333.000 46.000 C 333.137 45.778,332.836 45.597,332.324 45.594 C 331.581 45.589,331.517 45.512,332.000 45.200 C 332.513 44.869,332.498 44.811,331.900 44.806 C 331.515 44.803,331.200 44.620,331.200 44.400 C 331.200 44.180,330.970 44.000,330.688 44.000 C 330.407 44.000,329.924 43.650,329.615 43.221 C 329.307 42.793,328.907 42.534,328.727 42.645 C 328.547 42.756,328.400 42.657,328.400 42.424 C 328.400 42.191,328.130 42.000,327.800 42.000 C 327.470 42.000,327.200 41.820,327.200 41.600 C 327.200 41.380,327.012 41.200,326.782 41.200 C 326.552 41.200,325.949 40.795,325.443 40.300 C 323.309 38.214,321.734 36.997,320.094 36.166 C 319.064 35.645,318.565 35.197,318.875 35.073 C 319.180 34.951,319.060 34.850,318.588 34.832 C 318.142 34.814,317.517 34.440,317.200 34.000 C 316.883 33.560,316.303 33.200,315.912 33.200 C 315.520 33.200,315.200 33.020,315.200 32.800 C 315.200 32.580,314.919 32.400,314.576 32.400 C 314.233 32.400,314.064 32.220,314.200 32.000 C 314.336 31.780,314.077 31.600,313.624 31.600 C 313.171 31.600,312.800 31.420,312.800 31.200 C 312.800 30.980,312.575 30.845,312.300 30.900 C 312.025 30.955,311.845 30.775,311.900 30.500 C 311.955 30.225,311.640 30.000,311.200 30.000 C 310.760 30.000,310.400 29.809,310.400 29.576 C 310.400 29.343,310.220 29.264,310.000 29.400 C 309.780 29.536,309.586 29.322,309.568 28.924 C 309.549 28.476,309.458 28.397,309.330 28.716 C 309.174 29.105,308.957 29.055,308.457 28.516 C 308.091 28.122,307.343 27.547,306.796 27.239 C 306.248 26.930,305.395 26.415,304.900 26.093 C 304.173 25.621,304.000 25.611,304.000 26.043 C 304.000 26.338,303.721 26.179,303.377 25.689 C 303.016 25.173,302.335 24.800,301.754 24.800 C 301.188 24.800,300.860 24.626,301.000 24.400 C 301.136 24.180,300.964 24.000,300.618 24.000 C 299.825 24.000,298.405 23.211,297.557 22.300 C 297.199 21.915,296.445 21.562,295.882 21.515 C 295.319 21.468,294.945 21.288,295.052 21.115 C 295.160 20.942,294.967 20.800,294.624 20.800 C 294.281 20.800,294.000 20.620,294.000 20.400 C 294.000 20.180,293.640 20.000,293.200 20.000 C 292.760 20.000,292.399 19.865,292.397 19.700 C 292.395 19.535,291.945 19.192,291.396 18.937 C 290.848 18.683,290.500 18.638,290.623 18.837 C 291.075 19.569,290.306 19.173,289.577 18.300 C 289.164 17.805,288.821 17.625,288.813 17.900 C 288.805 18.205,288.488 18.088,288.000 17.600 C 287.560 17.160,286.930 16.800,286.600 16.800 C 286.270 16.800,286.000 16.620,286.000 16.400 C 286.000 16.180,285.449 16.000,284.776 16.000 C 284.063 16.000,283.656 15.833,283.800 15.600 C 284.010 15.260,282.891 14.996,281.900 15.153 C 281.735 15.179,281.600 15.020,281.600 14.800 C 281.600 14.580,281.240 14.400,280.800 14.400 C 280.360 14.400,280.000 14.220,280.000 14.000 C 280.000 13.780,279.415 13.597,278.700 13.594 C 277.714 13.589,277.545 13.494,278.000 13.200 C 278.468 12.898,278.357 12.811,277.500 12.806 C 276.895 12.803,276.400 12.601,276.400 12.357 C 276.400 12.114,276.135 12.016,275.812 12.140 C 275.488 12.264,274.961 12.104,274.640 11.783 C 274.319 11.462,273.504 11.200,272.829 11.200 C 272.153 11.200,271.600 11.020,271.600 10.800 C 271.600 10.580,271.139 10.400,270.576 10.400 C 269.905 10.400,269.651 10.241,269.838 9.938 C 270.007 9.665,269.949 9.584,269.695 9.741 C 269.460 9.887,268.757 9.797,268.134 9.541 C 266.639 8.929,266.472 8.884,264.600 8.589 C 263.048 8.344,262.507 8.176,260.400 7.284 C 259.177 6.766,257.545 6.395,255.300 6.124 C 254.365 6.012,253.600 5.758,253.600 5.560 C 253.600 5.362,252.981 5.200,252.224 5.200 C 251.467 5.200,250.736 5.020,250.600 4.800 C 250.464 4.580,249.834 4.400,249.200 4.400 C 248.566 4.400,247.936 4.220,247.800 4.000 C 247.664 3.780,246.528 3.597,245.276 3.594 C 243.659 3.590,243.174 3.475,243.600 3.200 C 244.022 2.927,243.428 2.809,241.600 2.800 C 239.772 2.791,239.178 2.673,239.600 2.400 C 240.022 2.127,239.453 2.010,237.676 2.006 C 236.288 2.003,235.236 1.865,235.338 1.700 C 235.440 1.535,234.056 1.339,232.264 1.265 C 230.471 1.191,228.913 1.011,228.802 0.865 C 228.439 0.389,227.557 0.341,215.809 0.159 L 204.200 -0.021 202.200 1.344 " stroke="none" fill="#e4443c" fill-rule="evenodd"></path><path id="path2" d="M183.600 0.466 C 181.510 0.643,178.495 0.896,176.900 1.027 C 175.305 1.158,174.000 1.431,174.000 1.633 C 174.000 1.835,172.866 2.000,171.480 2.000 C 170.094 2.000,168.789 2.162,168.580 2.359 C 168.214 2.705,166.737 2.980,162.700 3.454 C 161.655 3.577,160.800 3.840,160.800 4.039 C 160.800 4.237,160.080 4.400,159.200 4.400 C 158.320 4.400,157.600 4.580,157.600 4.800 C 157.600 5.020,156.880 5.200,156.000 5.200 C 155.120 5.200,154.400 5.380,154.400 5.600 C 154.400 5.820,153.680 6.000,152.800 6.000 C 151.920 6.000,151.200 6.180,151.200 6.400 C 151.200 6.620,150.469 6.800,149.576 6.800 C 148.596 6.800,148.051 6.958,148.200 7.200 C 148.347 7.438,147.871 7.600,147.024 7.600 C 146.241 7.600,145.600 7.760,145.600 7.955 C 145.600 8.150,145.105 8.401,144.500 8.514 C 143.298 8.738,142.482 8.949,140.493 9.552 C 139.774 9.770,139.098 9.958,138.991 9.970 C 138.884 9.981,138.145 10.263,137.349 10.595 C 136.553 10.928,135.660 11.200,135.363 11.200 C 135.067 11.200,134.183 11.560,133.400 12.000 C 132.617 12.440,131.531 12.800,130.988 12.800 C 130.445 12.800,130.000 12.980,130.000 13.200 C 130.000 13.420,129.550 13.600,129.000 13.600 C 128.450 13.600,128.000 13.780,128.000 14.000 C 128.000 14.220,127.640 14.400,127.200 14.400 C 126.760 14.400,126.400 14.580,126.400 14.800 C 126.400 15.020,126.151 15.200,125.846 15.200 C 125.541 15.200,124.789 15.461,124.174 15.780 C 123.560 16.098,122.909 16.268,122.729 16.156 C 122.548 16.044,122.400 16.143,122.400 16.376 C 122.400 16.609,122.040 16.800,121.600 16.800 C 121.160 16.800,120.800 16.980,120.800 17.200 C 120.800 17.420,120.440 17.600,120.000 17.600 C 119.560 17.600,119.200 17.780,119.200 18.000 C 119.200 18.220,118.840 18.400,118.400 18.400 C 117.960 18.400,117.600 18.580,117.600 18.800 C 117.600 19.020,117.240 19.200,116.800 19.200 C 116.360 19.200,116.000 19.380,116.000 19.600 C 116.000 19.820,115.640 20.000,115.200 20.000 C 114.760 20.000,114.400 20.180,114.400 20.400 C 114.400 20.620,114.040 20.800,113.600 20.800 C 113.160 20.800,112.799 20.935,112.797 21.100 C 112.793 21.465,110.851 22.400,110.097 22.400 C 109.798 22.400,109.664 22.580,109.800 22.800 C 109.936 23.020,109.677 23.200,109.224 23.200 C 108.771 23.200,108.400 23.380,108.400 23.600 C 108.400 23.820,108.040 24.000,107.600 24.000 C 107.160 24.000,106.800 24.180,106.800 24.400 C 106.800 24.620,106.455 24.800,106.033 24.800 C 105.612 24.800,105.207 24.943,105.133 25.118 C 105.060 25.292,103.605 26.139,101.900 26.999 C 100.195 27.859,98.800 28.706,98.800 28.881 C 98.800 29.057,98.564 29.200,98.275 29.200 C 97.987 29.200,97.364 29.560,96.892 30.000 C 96.420 30.440,95.846 30.800,95.617 30.800 C 95.388 30.800,95.200 30.958,95.200 31.151 C 95.200 31.345,94.660 31.727,94.000 32.000 C 93.340 32.273,92.800 32.655,92.800 32.849 C 92.800 33.042,92.512 33.200,92.160 33.200 C 91.809 33.200,91.017 33.740,90.400 34.400 C 89.783 35.060,89.126 35.600,88.940 35.600 C 88.753 35.601,88.082 36.047,87.448 36.592 C 86.814 37.137,86.111 37.469,85.886 37.330 C 85.651 37.184,85.598 37.273,85.762 37.538 C 85.923 37.799,85.815 38.000,85.512 38.000 C 85.217 38.000,84.717 38.360,84.400 38.800 C 84.083 39.240,83.575 39.600,83.272 39.600 C 82.969 39.600,82.217 40.140,81.600 40.800 C 80.983 41.460,80.321 42.000,80.129 42.000 C 79.797 42.000,77.542 43.775,75.937 45.300 C 75.532 45.685,75.200 45.919,75.200 45.819 C 75.200 45.720,74.345 46.489,73.300 47.528 C 72.255 48.568,70.810 49.835,70.090 50.344 C 68.266 51.631,56.800 63.080,56.800 63.612 C 56.800 63.852,56.641 63.949,56.446 63.829 C 56.252 63.709,55.871 64.146,55.600 64.800 C 55.329 65.454,54.948 65.891,54.754 65.771 C 54.559 65.651,54.400 65.742,54.400 65.974 C 54.400 66.205,53.320 67.492,52.000 68.832 C 50.680 70.173,49.600 71.434,49.600 71.634 C 49.600 71.834,48.880 72.763,48.000 73.697 C 47.120 74.631,46.400 75.582,46.400 75.810 C 46.400 76.037,46.027 76.488,45.572 76.812 C 44.620 77.488,42.000 81.004,42.000 81.605 C 42.000 81.826,41.460 82.572,40.800 83.263 C 40.140 83.954,39.600 84.762,39.600 85.059 C 39.600 85.357,39.450 85.600,39.268 85.600 C 39.085 85.600,38.681 86.095,38.370 86.700 C 38.060 87.305,37.489 88.091,37.103 88.447 C 36.716 88.803,36.400 89.322,36.400 89.600 C 36.400 89.878,36.076 90.397,35.680 90.753 C 35.283 91.109,34.657 92.050,34.287 92.845 C 33.917 93.640,33.341 94.517,33.007 94.794 C 32.673 95.071,32.400 95.463,32.400 95.666 C 32.400 95.868,32.040 96.420,31.600 96.892 C 31.160 97.364,30.800 97.987,30.800 98.275 C 30.800 98.564,30.620 98.800,30.400 98.800 C 30.180 98.800,30.000 99.160,30.000 99.600 C 30.000 100.040,29.820 100.400,29.600 100.400 C 29.380 100.400,29.200 100.687,29.200 101.038 C 29.200 101.389,28.868 102.154,28.463 102.738 C 27.542 104.064,25.499 108.268,25.596 108.637 C 25.636 108.787,25.457 109.041,25.199 109.201 C 24.941 109.360,24.791 109.884,24.865 110.366 C 24.988 111.163,25.640 110.843,32.200 106.769 C 36.160 104.310,39.973 101.970,40.673 101.571 C 41.373 101.171,42.903 100.225,44.073 99.468 C 45.243 98.711,48.900 96.425,52.200 94.388 C 69.913 83.453,71.430 82.513,73.800 81.005 C 74.900 80.305,78.230 78.239,81.200 76.414 C 87.107 72.784,90.225 70.855,94.800 68.000 C 99.993 64.759,105.796 61.166,119.200 52.891 C 121.510 51.465,124.750 49.450,126.400 48.413 C 128.050 47.376,130.570 45.807,132.000 44.927 C 137.441 41.576,143.512 37.816,146.400 36.007 C 149.714 33.931,152.510 32.196,158.800 28.310 C 175.412 18.050,178.769 15.970,183.200 13.191 C 184.850 12.156,189.350 9.371,193.200 7.003 C 202.947 1.006,204.000 0.338,204.000 0.158 C 204.000 -0.118,187.557 0.129,183.600 0.466 M127.304 110.994 C 127.031 111.304,126.950 111.646,127.124 111.753 C 127.298 111.860,127.657 111.600,127.923 111.174 C 128.480 110.283,128.042 110.156,127.304 110.994 " stroke="none" fill="#fc7b74" fill-rule="evenodd"></path><path id="path3" d="M92.333 236.771 C 92.260 236.975,90.920 238.100,89.355 239.271 C 87.790 240.442,83.110 244.009,78.955 247.197 C 74.800 250.386,70.320 253.806,69.000 254.797 C 67.680 255.788,66.330 256.821,66.000 257.092 C 65.670 257.363,61.980 260.200,57.800 263.397 C 53.620 266.594,49.930 269.433,49.600 269.706 C 49.270 269.979,46.930 271.759,44.400 273.662 C 41.870 275.565,37.280 279.054,34.200 281.416 C 31.120 283.779,27.575 286.451,26.322 287.356 C 24.454 288.704,22.966 290.286,24.400 289.400 C 24.624 289.262,24.800 289.570,24.800 290.100 C 24.800 290.621,25.064 291.396,25.387 291.824 C 25.710 292.251,25.980 292.900,25.987 293.267 C 25.994 293.633,26.135 293.993,26.300 294.067 C 26.465 294.140,27.228 295.415,27.996 296.900 C 28.763 298.385,29.528 299.600,29.696 299.600 C 29.863 299.600,30.000 299.960,30.000 300.400 C 30.000 300.840,30.180 301.200,30.400 301.200 C 30.620 301.200,30.800 301.520,30.800 301.912 C 30.800 302.303,31.160 302.883,31.600 303.200 C 32.040 303.517,32.400 304.097,32.400 304.488 C 32.400 304.880,32.580 305.200,32.800 305.200 C 33.020 305.200,33.200 305.470,33.200 305.800 C 33.200 306.130,33.380 306.400,33.600 306.400 C 33.820 306.400,34.000 306.670,34.000 307.000 C 34.000 307.330,34.180 307.600,34.400 307.600 C 34.620 307.600,34.800 307.830,34.800 308.112 C 34.800 308.393,35.160 308.883,35.600 309.200 C 36.040 309.517,36.400 310.057,36.400 310.400 C 36.400 310.743,36.760 311.283,37.200 311.600 C 37.640 311.917,38.000 312.457,38.000 312.800 C 38.000 313.143,38.360 313.683,38.800 314.000 C 39.240 314.317,39.600 314.857,39.600 315.200 C 39.600 315.543,39.960 316.083,40.400 316.400 C 40.840 316.717,41.200 317.121,41.200 317.298 C 41.200 318.159,45.133 323.409,47.900 326.239 C 48.835 327.196,49.600 328.174,49.600 328.412 C 49.600 328.650,50.680 329.904,52.000 331.200 C 53.320 332.496,54.400 333.765,54.400 334.022 C 54.400 334.583,70.260 350.400,70.823 350.400 C 71.040 350.400,72.181 351.345,73.359 352.500 C 76.067 355.155,79.047 357.636,80.328 358.300 C 80.872 358.583,81.628 359.171,82.006 359.607 C 82.384 360.043,82.998 360.400,83.371 360.400 C 83.743 360.400,83.936 360.580,83.800 360.800 C 83.664 361.020,83.794 361.200,84.088 361.200 C 84.383 361.200,84.883 361.560,85.200 362.000 C 85.517 362.440,86.009 362.800,86.292 362.800 C 86.575 362.800,87.372 363.340,88.063 364.000 C 88.754 364.660,89.522 365.200,89.771 365.200 C 90.020 365.200,90.483 365.560,90.800 366.000 C 91.117 366.440,91.607 366.800,91.888 366.800 C 92.170 366.800,92.400 366.980,92.400 367.200 C 92.400 367.420,92.670 367.600,93.000 367.600 C 93.330 367.600,93.600 367.780,93.600 368.000 C 93.600 368.220,93.870 368.400,94.200 368.400 C 94.530 368.400,94.800 368.580,94.800 368.800 C 94.800 369.020,95.120 369.200,95.512 369.200 C 95.903 369.200,96.483 369.560,96.800 370.000 C 97.117 370.440,97.614 370.800,97.905 370.800 C 98.196 370.800,98.820 371.160,99.292 371.600 C 99.764 372.040,100.387 372.400,100.675 372.400 C 100.964 372.400,101.200 372.580,101.200 372.800 C 101.200 373.020,101.560 373.200,102.000 373.200 C 102.440 373.200,102.800 373.347,102.800 373.526 C 102.800 373.924,105.401 375.200,106.214 375.200 C 106.536 375.200,106.800 375.380,106.800 375.600 C 106.800 375.820,107.160 376.000,107.600 376.000 C 108.040 376.000,108.400 376.180,108.400 376.400 C 108.400 376.620,108.670 376.800,109.000 376.800 C 109.330 376.800,109.600 376.980,109.600 377.200 C 109.600 377.420,109.945 377.600,110.367 377.600 C 110.788 377.600,111.193 377.737,111.267 377.905 C 111.445 378.314,119.665 382.406,120.300 382.403 C 120.575 382.401,120.800 382.580,120.800 382.800 C 120.800 383.020,121.160 383.200,121.600 383.200 C 122.040 383.200,122.400 383.380,122.400 383.600 C 122.400 383.820,122.749 384.000,123.176 384.000 C 123.603 384.000,124.064 384.180,124.200 384.400 C 124.336 384.620,124.797 384.800,125.224 384.800 C 125.651 384.800,126.000 384.980,126.000 385.200 C 126.000 385.420,126.349 385.600,126.776 385.600 C 127.203 385.600,127.664 385.780,127.800 386.000 C 127.936 386.220,128.487 386.400,129.024 386.400 C 129.561 386.400,130.000 386.547,130.000 386.728 C 130.000 386.908,130.900 387.300,132.000 387.600 C 133.100 387.900,134.000 388.292,134.000 388.472 C 134.000 388.653,134.525 388.800,135.167 388.800 C 135.808 388.800,136.393 388.935,136.467 389.101 C 136.668 389.555,141.665 391.169,143.758 391.456 C 144.771 391.595,145.600 391.864,145.600 392.054 C 145.600 392.244,146.140 392.400,146.800 392.400 C 147.460 392.400,148.000 392.580,148.000 392.800 C 148.000 393.020,148.720 393.200,149.600 393.200 C 150.480 393.200,151.200 393.380,151.200 393.600 C 151.200 393.820,151.920 394.000,152.800 394.000 C 153.680 394.000,154.400 394.180,154.400 394.400 C 154.400 394.620,155.120 394.800,156.000 394.800 C 156.880 394.800,157.600 394.980,157.600 395.200 C 157.600 395.420,158.230 395.600,159.000 395.600 C 159.770 395.600,160.400 395.780,160.400 396.000 C 160.400 396.220,161.289 396.400,162.376 396.400 C 163.463 396.400,164.464 396.580,164.600 396.800 C 164.736 397.020,165.647 397.200,166.624 397.200 C 167.601 397.200,168.400 397.380,168.400 397.600 C 168.400 397.822,169.459 398.000,170.776 398.000 C 172.083 398.000,173.264 398.180,173.400 398.400 C 173.536 398.620,174.882 398.800,176.390 398.800 C 178.229 398.800,179.188 398.965,179.300 399.300 C 179.431 399.693,184.769 399.800,204.200 399.800 C 223.631 399.800,228.969 399.693,229.100 399.300 C 229.215 398.956,230.256 398.800,232.433 398.800 C 234.278 398.800,235.600 398.633,235.600 398.400 C 235.600 398.180,236.590 398.000,237.800 398.000 C 239.010 398.000,240.000 397.820,240.000 397.600 C 240.000 397.378,241.067 397.200,242.400 397.200 C 243.733 397.200,244.800 397.022,244.800 396.800 C 244.800 396.580,245.520 396.400,246.400 396.400 C 247.280 396.400,248.000 396.220,248.000 396.000 C 248.000 395.780,248.720 395.600,249.600 395.600 C 250.480 395.600,251.200 395.420,251.200 395.200 C 251.200 394.980,251.920 394.800,252.800 394.800 C 253.680 394.800,254.400 394.620,254.400 394.400 C 254.400 394.180,255.210 394.000,256.200 394.000 C 257.190 394.000,258.000 393.820,258.000 393.600 C 258.000 393.380,258.540 393.200,259.200 393.200 C 259.860 393.200,260.400 393.020,260.400 392.800 C 260.400 392.580,260.940 392.400,261.600 392.400 C 262.260 392.400,262.800 392.220,262.800 392.000 C 262.800 391.780,263.409 391.600,264.154 391.600 C 265.504 391.600,269.177 390.652,270.495 389.963 C 270.877 389.763,271.462 389.600,271.795 389.600 C 272.128 389.600,272.400 389.420,272.400 389.200 C 272.400 388.980,272.850 388.800,273.400 388.800 C 273.950 388.800,274.400 388.620,274.400 388.400 C 274.400 388.180,274.940 388.000,275.600 388.000 C 276.260 388.000,276.800 387.853,276.800 387.672 C 276.800 387.492,277.700 387.100,278.800 386.800 C 279.900 386.500,280.800 386.108,280.800 385.928 C 280.800 385.747,281.160 385.600,281.600 385.600 C 282.040 385.600,282.400 385.420,282.400 385.200 C 282.400 384.980,282.839 384.800,283.376 384.800 C 283.913 384.800,284.464 384.620,284.600 384.400 C 284.736 384.180,285.197 384.000,285.624 384.000 C 286.051 384.000,286.400 383.820,286.400 383.600 C 286.400 383.380,286.760 383.200,287.200 383.200 C 287.640 383.200,288.000 383.020,288.000 382.800 C 288.000 382.580,288.360 382.400,288.800 382.400 C 289.240 382.400,289.600 382.220,289.600 382.000 C 289.600 381.780,289.960 381.600,290.400 381.600 C 290.840 381.600,291.200 381.420,291.200 381.200 C 291.200 380.980,291.470 380.800,291.800 380.800 C 292.130 380.800,292.400 380.620,292.400 380.400 C 292.400 380.180,292.760 380.000,293.200 380.000 C 293.640 380.000,294.000 379.820,294.000 379.600 C 294.000 379.380,294.360 379.200,294.800 379.200 C 295.240 379.200,295.600 379.020,295.600 378.800 C 295.600 378.580,295.960 378.400,296.400 378.400 C 296.840 378.400,297.200 378.220,297.200 378.000 C 297.200 377.780,297.560 377.600,298.000 377.600 C 298.440 377.600,298.800 377.420,298.800 377.200 C 298.800 376.980,299.160 376.800,299.600 376.800 C 300.040 376.800,300.400 376.620,300.400 376.400 C 300.400 376.180,300.790 376.000,301.267 376.000 C 301.743 376.000,302.025 375.891,301.892 375.759 C 301.684 375.551,302.898 374.829,307.097 372.663 C 307.590 372.408,307.995 372.065,307.997 371.900 C 307.999 371.735,308.320 371.600,308.712 371.600 C 309.103 371.600,309.683 371.240,310.000 370.800 C 310.317 370.360,310.857 370.000,311.200 370.000 C 311.543 370.000,312.083 369.640,312.400 369.200 C 312.717 368.760,313.209 368.400,313.492 368.400 C 313.775 368.400,314.572 367.860,315.263 367.200 C 315.954 366.540,316.722 366.000,316.971 366.000 C 317.220 366.000,317.683 365.640,318.000 365.200 C 318.317 364.760,318.825 364.400,319.128 364.400 C 319.431 364.400,320.183 363.860,320.800 363.200 C 321.417 362.540,322.103 362.000,322.327 362.000 C 322.550 362.000,323.242 361.460,323.865 360.800 C 324.488 360.140,325.139 359.600,325.313 359.600 C 325.487 359.600,326.027 359.236,326.514 358.791 C 329.048 356.479,330.113 355.600,330.384 355.600 C 330.767 355.600,335.742 350.805,335.546 350.624 C 335.360 350.453,329.276 345.754,319.979 338.600 C 315.976 335.520,311.212 331.830,309.393 330.400 C 307.574 328.970,302.810 325.280,298.808 322.200 C 290.996 316.188,279.634 307.416,274.863 303.711 C 273.247 302.457,271.581 300.993,271.160 300.458 L 270.394 299.484 269.650 300.342 C 269.241 300.814,268.612 301.200,268.253 301.200 C 267.894 301.200,267.600 301.380,267.600 301.600 C 267.600 301.820,267.240 302.000,266.800 302.000 C 266.360 302.000,266.000 302.180,266.000 302.400 C 266.000 302.620,265.764 302.800,265.475 302.800 C 265.187 302.800,264.564 303.160,264.092 303.600 C 263.620 304.040,262.956 304.400,262.617 304.400 C 262.278 304.400,262.000 304.580,262.000 304.800 C 262.000 305.020,261.651 305.200,261.224 305.200 C 260.797 305.200,260.336 305.380,260.200 305.600 C 260.064 305.820,259.603 306.000,259.176 306.000 C 258.749 306.000,258.400 306.180,258.400 306.400 C 258.400 306.620,258.040 306.800,257.600 306.800 C 257.160 306.800,256.800 306.980,256.800 307.200 C 256.800 307.420,256.440 307.600,256.000 307.600 C 255.560 307.600,255.200 307.780,255.200 308.000 C 255.200 308.220,254.705 308.401,254.100 308.402 C 253.495 308.404,252.484 308.674,251.854 309.002 C 251.224 309.331,250.380 309.600,249.978 309.600 C 249.576 309.600,249.136 309.780,249.000 310.000 C 248.864 310.220,248.324 310.400,247.800 310.400 C 247.276 310.400,246.736 310.580,246.600 310.800 C 246.464 311.020,246.001 311.200,245.571 311.200 C 245.141 311.200,244.477 311.358,244.095 311.551 C 242.928 312.140,240.592 312.800,239.672 312.800 C 239.192 312.800,238.800 312.980,238.800 313.200 C 238.800 313.420,238.001 313.600,237.024 313.600 C 236.047 313.600,235.136 313.780,235.000 314.000 C 234.864 314.220,234.043 314.400,233.176 314.400 C 232.309 314.400,231.600 314.580,231.600 314.800 C 231.600 315.020,230.621 315.200,229.424 315.200 C 228.227 315.200,227.136 315.380,227.000 315.600 C 226.864 315.820,225.593 316.000,224.176 316.000 C 222.759 316.000,221.600 316.160,221.600 316.356 C 221.600 316.552,219.395 316.741,216.700 316.776 C 214.006 316.811,211.630 317.010,211.420 317.220 C 210.902 317.738,200.400 317.719,200.400 317.200 C 200.400 316.956,198.541 316.800,195.624 316.800 C 192.871 316.800,190.742 316.631,190.600 316.400 C 190.464 316.180,189.204 316.000,187.800 316.000 C 186.396 316.000,185.136 315.820,185.000 315.600 C 184.864 315.380,183.863 315.200,182.776 315.200 C 181.689 315.200,180.800 315.020,180.800 314.800 C 180.800 314.580,180.080 314.400,179.200 314.400 C 178.320 314.400,177.600 314.220,177.600 314.000 C 177.600 313.780,176.880 313.600,176.000 313.600 C 175.120 313.600,174.400 313.420,174.400 313.200 C 174.400 312.980,173.770 312.800,173.000 312.800 C 172.230 312.800,171.600 312.620,171.600 312.400 C 171.600 312.180,171.060 312.000,170.400 312.000 C 169.740 312.000,169.200 311.820,169.200 311.600 C 169.200 311.380,168.660 311.200,168.000 311.200 C 167.340 311.200,166.800 311.020,166.800 310.800 C 166.800 310.580,166.260 310.400,165.600 310.400 C 164.940 310.400,164.400 310.220,164.400 310.000 C 164.400 309.780,163.860 309.600,163.200 309.600 C 162.540 309.600,162.000 309.436,162.000 309.235 C 162.000 309.034,161.280 308.749,160.400 308.600 C 159.520 308.451,158.800 308.166,158.800 307.965 C 158.800 307.764,158.350 307.600,157.800 307.600 C 157.250 307.600,156.800 307.420,156.800 307.200 C 156.800 306.980,156.440 306.800,156.000 306.800 C 155.560 306.800,155.200 306.620,155.200 306.400 C 155.200 306.180,154.840 306.000,154.400 306.000 C 153.960 306.000,153.600 305.820,153.600 305.600 C 153.600 305.380,153.240 305.200,152.800 305.200 C 152.360 305.200,152.000 305.020,152.000 304.800 C 152.000 304.580,151.640 304.400,151.200 304.400 C 150.760 304.400,150.400 304.220,150.400 304.000 C 150.400 303.780,150.040 303.600,149.600 303.600 C 149.160 303.600,148.800 303.420,148.800 303.200 C 148.800 302.980,148.480 302.800,148.088 302.800 C 147.697 302.800,147.117 302.440,146.800 302.000 C 146.483 301.560,145.903 301.200,145.512 301.200 C 145.120 301.200,144.800 301.020,144.800 300.800 C 144.800 300.580,144.455 300.400,144.033 300.400 C 143.612 300.400,143.207 300.255,143.133 300.077 C 143.060 299.899,142.100 299.141,141.000 298.393 C 139.900 297.645,138.651 296.711,138.225 296.317 C 137.798 295.922,137.213 295.600,136.925 295.600 C 136.636 295.600,136.400 295.441,136.400 295.246 C 136.400 295.051,135.815 294.608,135.100 294.261 C 134.385 293.914,133.225 293.084,132.522 292.415 C 131.819 291.747,131.044 291.200,130.800 291.200 C 130.555 291.200,129.286 290.110,127.978 288.777 C 126.670 287.445,125.600 286.480,125.600 286.633 C 125.600 286.879,121.507 282.735,114.995 275.894 C 113.788 274.626,112.800 273.397,112.800 273.163 C 112.800 272.929,112.080 272.046,111.200 271.200 C 110.320 270.354,109.600 269.461,109.600 269.215 C 109.600 268.968,109.240 268.380,108.800 267.908 C 108.360 267.436,108.000 266.813,108.000 266.525 C 108.000 266.236,107.847 266.000,107.661 266.000 C 107.474 266.000,106.997 265.280,106.600 264.400 C 106.203 263.520,105.726 262.800,105.539 262.800 C 105.353 262.800,105.200 262.530,105.200 262.200 C 105.200 261.870,105.020 261.600,104.800 261.600 C 104.580 261.600,104.400 261.330,104.400 261.000 C 104.400 260.670,104.254 260.400,104.075 260.400 C 103.896 260.400,103.502 259.770,103.200 259.000 C 102.898 258.230,102.504 257.600,102.325 257.600 C 102.146 257.600,102.000 257.322,102.000 256.983 C 102.000 256.644,101.640 255.980,101.200 255.508 C 100.760 255.036,100.400 254.413,100.400 254.125 C 100.400 253.836,100.220 253.600,100.000 253.600 C 99.780 253.600,99.600 253.240,99.600 252.800 C 99.600 252.360,99.420 252.000,99.200 252.000 C 98.980 252.000,98.800 251.645,98.800 251.212 C 98.800 250.779,98.440 249.783,98.000 249.000 C 97.560 248.217,97.200 247.311,97.200 246.988 C 97.200 246.665,97.020 246.400,96.800 246.400 C 96.580 246.400,96.400 246.040,96.400 245.600 C 96.400 245.160,96.220 244.800,96.000 244.800 C 95.780 244.800,95.600 244.451,95.600 244.024 C 95.600 243.597,95.420 243.136,95.200 243.000 C 94.980 242.864,94.800 242.403,94.800 241.976 C 94.800 241.549,94.620 241.200,94.400 241.200 C 94.180 241.200,94.000 240.660,94.000 240.000 C 94.000 239.340,93.820 238.800,93.600 238.800 C 93.380 238.800,93.200 238.260,93.200 237.600 C 93.200 236.480,92.633 235.938,92.333 236.771 " stroke="none" fill="#44a454" fill-rule="evenodd"></path><path id="path4" d="M24.000 111.200 C 24.000 111.640,23.820 112.000,23.600 112.000 C 23.380 112.000,23.200 112.360,23.200 112.800 C 23.200 113.240,23.020 113.600,22.800 113.600 C 22.580 113.600,22.400 113.960,22.400 114.400 C 22.400 114.840,22.220 115.200,22.000 115.200 C 21.780 115.200,21.600 115.549,21.600 115.976 C 21.600 116.403,21.420 116.864,21.200 117.000 C 20.980 117.136,20.800 117.687,20.800 118.224 C 20.800 118.761,20.620 119.200,20.400 119.200 C 20.180 119.200,20.000 119.560,20.000 120.000 C 20.000 120.440,19.820 120.800,19.600 120.800 C 19.380 120.800,19.200 121.160,19.200 121.600 C 19.200 122.040,19.020 122.400,18.800 122.400 C 18.580 122.400,18.400 122.940,18.400 123.600 C 18.400 124.260,18.220 124.800,18.000 124.800 C 17.780 124.800,17.600 125.160,17.600 125.600 C 17.600 126.040,17.420 126.400,17.200 126.400 C 16.980 126.400,16.800 126.850,16.800 127.400 C 16.800 127.950,16.620 128.400,16.400 128.400 C 16.180 128.400,16.000 128.839,16.000 129.376 C 16.000 129.913,15.820 130.464,15.600 130.600 C 15.380 130.736,15.200 131.199,15.200 131.629 C 15.200 132.059,15.026 132.723,14.814 133.105 C 14.148 134.303,12.000 141.054,12.000 141.947 C 12.000 142.416,11.840 142.800,11.644 142.800 C 11.448 142.800,11.195 143.385,11.081 144.100 C 10.967 144.815,10.666 146.120,10.411 147.000 C 9.086 151.570,8.438 154.724,8.417 156.700 C 8.408 157.635,8.220 158.400,8.000 158.400 C 7.780 158.400,7.600 159.210,7.600 160.200 C 7.600 161.190,7.420 162.000,7.200 162.000 C 6.978 162.000,6.800 163.067,6.800 164.400 C 6.800 165.733,6.622 166.800,6.400 166.800 C 6.178 166.800,6.000 167.867,6.000 169.200 C 6.000 170.533,5.822 171.600,5.600 171.600 C 5.365 171.600,5.200 172.992,5.200 174.976 C 5.200 176.833,5.020 178.464,4.800 178.600 C 4.568 178.743,4.400 180.937,4.400 183.824 C 4.400 186.875,4.245 188.800,4.000 188.800 C 3.743 188.800,3.600 192.800,3.600 200.000 C 3.600 207.200,3.743 211.200,4.000 211.200 C 4.245 211.200,4.400 213.125,4.400 216.176 C 4.400 219.063,4.568 221.257,4.800 221.400 C 5.020 221.536,5.200 223.167,5.200 225.024 C 5.200 227.008,5.365 228.400,5.600 228.400 C 5.822 228.400,6.000 229.467,6.000 230.800 C 6.000 232.133,6.178 233.200,6.400 233.200 C 6.622 233.200,6.800 234.267,6.800 235.600 C 6.800 236.933,6.978 238.000,7.200 238.000 C 7.420 238.000,7.600 238.810,7.600 239.800 C 7.600 240.790,7.780 241.600,8.000 241.600 C 8.220 241.600,8.408 242.365,8.417 243.300 C 8.437 245.239,9.111 248.515,10.411 253.000 C 10.666 253.880,10.967 255.185,11.081 255.900 C 11.195 256.615,11.448 257.200,11.644 257.200 C 11.840 257.200,12.000 257.584,12.000 258.053 C 12.000 258.946,14.148 265.697,14.814 266.895 C 15.026 267.277,15.200 267.941,15.200 268.371 C 15.200 268.801,15.380 269.264,15.600 269.400 C 15.820 269.536,16.000 270.087,16.000 270.624 C 16.000 271.161,16.180 271.600,16.400 271.600 C 16.620 271.600,16.800 272.050,16.800 272.600 C 16.800 273.150,16.980 273.600,17.200 273.600 C 17.420 273.600,17.600 273.960,17.600 274.400 C 17.600 274.840,17.780 275.200,18.000 275.200 C 18.220 275.200,18.400 275.740,18.400 276.400 C 18.400 277.060,18.580 277.600,18.800 277.600 C 19.020 277.600,19.200 277.960,19.200 278.400 C 19.200 278.840,19.380 279.200,19.600 279.200 C 19.820 279.200,20.000 279.560,20.000 280.000 C 20.000 280.440,20.180 280.800,20.400 280.800 C 20.620 280.800,20.800 281.239,20.800 281.776 C 20.800 282.313,20.980 282.864,21.200 283.000 C 21.420 283.136,21.600 283.597,21.600 284.024 C 21.600 284.451,21.780 284.800,22.000 284.800 C 22.220 284.800,22.400 285.160,22.400 285.600 C 22.400 286.040,22.580 286.400,22.800 286.400 C 23.020 286.400,23.200 286.683,23.200 287.029 C 23.200 287.374,23.475 287.932,23.811 288.268 C 24.494 288.951,23.441 289.645,34.200 281.409 C 37.280 279.051,41.870 275.565,44.400 273.662 C 46.930 271.759,49.270 269.979,49.600 269.706 C 49.930 269.433,53.620 266.594,57.800 263.397 C 61.980 260.200,65.673 257.363,66.007 257.092 C 66.342 256.822,68.862 254.893,71.607 252.807 C 74.353 250.721,78.670 247.423,81.200 245.478 C 83.730 243.534,87.285 240.831,89.100 239.473 C 92.209 237.146,92.400 236.916,92.400 235.502 C 92.400 234.676,92.257 234.000,92.082 234.000 C 91.907 234.000,91.560 232.875,91.311 231.500 C 91.061 230.125,90.651 228.100,90.400 227.000 C 90.148 225.900,89.847 224.235,89.731 223.300 C 89.614 222.365,89.358 221.600,89.160 221.600 C 88.962 221.600,88.800 220.441,88.800 219.024 C 88.800 217.607,88.620 216.336,88.400 216.200 C 88.180 216.064,88.000 214.433,88.000 212.576 C 88.000 210.592,87.835 209.200,87.600 209.200 C 87.345 209.200,87.200 205.867,87.200 200.000 C 87.200 194.133,87.345 190.800,87.600 190.800 C 87.835 190.800,88.000 189.408,88.000 187.424 C 88.000 185.567,88.180 183.936,88.400 183.800 C 88.620 183.664,88.800 182.393,88.800 180.976 C 88.800 179.559,88.962 178.400,89.160 178.400 C 89.358 178.400,89.614 177.635,89.731 176.700 C 89.847 175.765,90.148 174.100,90.400 173.000 C 90.651 171.900,91.061 169.875,91.311 168.500 C 91.560 167.125,91.907 166.000,92.082 166.000 C 93.335 166.000,92.300 162.733,90.658 161.504 C 84.032 156.546,78.002 151.948,77.543 151.505 C 77.244 151.216,74.137 148.825,70.637 146.190 C 60.198 138.332,56.635 135.629,55.975 135.068 C 55.410 134.587,46.823 128.040,38.600 121.820 C 36.840 120.489,35.198 119.220,34.952 119.000 C 34.706 118.780,32.328 116.980,29.669 115.000 C 27.010 113.020,24.826 111.175,24.817 110.900 C 24.788 110.057,24.000 110.346,24.000 111.200 " stroke="none" fill="#f3c12c" fill-rule="evenodd"></path></g></svg>