<?xml version="1.0" standalone="no"?>
<!DOCTYPE svg PUBLIC "-//W3C//DTD SVG 20010904//EN"
 "http://www.w3.org/TR/2001/REC-SVG-20010904/DTD/svg10.dtd">
<svg version="1.0" xmlns="http://www.w3.org/2000/svg"
 width="512.000000pt" height="512.000000pt" viewBox="0 0 512.000000 512.000000"
 preserveAspectRatio="xMidYMid meet">

<g transform="translate(0.000000,512.000000) scale(0.100000,-0.100000)"
fill="#000000" stroke="none">
<path d="M2396 5109 c-483 -67 -895 -404 -1046 -857 -63 -192 -63 -185 -67
-804 l-4 -567 -197 -3 c-188 -3 -199 -4 -253 -29 -71 -33 -125 -87 -158 -158
l-26 -56 0 -1195 0 -1195 26 -56 c33 -71 87 -125 158 -158 l56 -26 1675 0
1675 0 56 26 c71 33 125 87 158 158 l26 56 0 1195 0 1195 -26 56 c-33 71 -87
125 -158 158 -54 25 -65 26 -253 29 l-197 3 -4 567 c-3 493 -6 577 -21 642
-63 273 -181 485 -370 668 -182 175 -391 286 -641 337 -96 20 -314 28 -409 14z
m298 -644 c183 -39 352 -170 434 -336 70 -142 72 -157 72 -736 l0 -513 -640 0
-640 0 0 513 c0 579 2 594 72 736 126 256 420 396 702 336z m-2 -2577 c116
-53 183 -159 183 -288 0 -107 -41 -188 -128 -257 l-26 -20 -3 -211 c-3 -231
-5 -236 -72 -286 -39 -29 -133 -29 -172 0 -67 50 -69 55 -72 286 l-3 211 -26
20 c-107 85 -155 218 -120 338 57 194 259 289 439 207z"/>
</g>
</svg>
