<svg id="svg" version="1.1" xmlns="http://www.w3.org/2000/svg" xmlns:xlink="http://www.w3.org/1999/xlink" width="400" height="400" viewBox="0, 0, 400,400"><g id="svgg"><path id="path0" d="M3.000 75.264 C -1.232 77.589,-1.162 86.866,3.104 89.149 C 3.568 89.397,4.409 89.600,4.974 89.600 C 5.538 89.600,6.000 89.780,6.000 90.000 C 6.000 90.266,70.933 90.400,200.000 90.400 C 329.067 90.400,394.000 90.266,394.000 90.000 C 394.000 89.780,394.462 89.600,395.026 89.600 C 400.516 89.600,402.215 78.050,397.120 75.368 C 395.710 74.626,4.350 74.522,3.000 75.264 M3.079 103.500 C -0.090 106.857,0.200 106.007,0.200 111.948 C 0.200 115.901,0.333 117.378,0.700 117.500 C 0.975 117.592,1.200 117.886,1.200 118.155 C 1.200 118.838,3.578 121.289,4.900 121.969 C 5.505 122.281,6.000 122.685,6.000 122.868 C 6.000 123.050,6.360 123.200,6.800 123.200 C 7.240 123.200,7.600 123.360,7.600 123.557 C 7.600 124.038,10.574 125.200,11.808 125.200 C 12.354 125.200,12.800 125.380,12.800 125.600 C 12.800 125.820,13.509 126.000,14.376 126.000 C 15.243 126.000,16.064 126.180,16.200 126.400 C 16.344 126.633,18.596 126.800,21.600 126.800 C 24.604 126.800,26.856 126.633,27.000 126.400 C 27.136 126.180,27.867 126.000,28.624 126.000 C 29.381 126.000,30.000 125.820,30.000 125.600 C 30.000 125.380,30.469 125.200,31.042 125.200 C 32.854 125.200,37.397 122.485,39.801 119.965 C 41.042 118.664,42.274 117.600,42.540 117.600 C 42.806 117.600,43.283 117.240,43.600 116.800 C 44.058 116.165,44.635 116.000,46.400 116.000 C 48.165 116.000,48.742 116.165,49.200 116.800 C 49.517 117.240,49.991 117.600,50.253 117.600 C 50.516 117.600,51.808 118.661,53.125 119.958 C 55.779 122.571,60.099 125.200,61.738 125.200 C 62.322 125.200,62.800 125.380,62.800 125.600 C 62.800 125.820,63.430 126.000,64.200 126.000 C 64.970 126.000,65.600 126.180,65.600 126.400 C 65.600 126.938,76.668 126.938,77.000 126.400 C 77.136 126.180,77.867 126.000,78.624 126.000 C 79.381 126.000,80.000 125.820,80.000 125.600 C 80.000 125.380,80.469 125.200,81.042 125.200 C 82.854 125.200,87.397 122.485,89.801 119.965 C 91.042 118.664,92.274 117.600,92.540 117.600 C 92.806 117.600,93.283 117.240,93.600 116.800 C 94.058 116.165,94.635 116.000,96.400 116.000 C 98.165 116.000,98.742 116.165,99.200 116.800 C 99.517 117.240,99.991 117.600,100.253 117.600 C 100.516 117.600,101.808 118.661,103.125 119.958 C 105.779 122.571,110.099 125.200,111.738 125.200 C 112.322 125.200,112.800 125.380,112.800 125.600 C 112.800 125.820,113.430 126.000,114.200 126.000 C 114.970 126.000,115.600 126.180,115.600 126.400 C 115.600 126.648,117.733 126.800,121.200 126.800 C 124.667 126.800,126.800 126.648,126.800 126.400 C 126.800 126.180,127.520 126.000,128.400 126.000 C 129.280 126.000,130.000 125.820,130.000 125.600 C 130.000 125.380,130.445 125.200,130.989 125.200 C 132.140 125.200,136.400 123.274,136.400 122.753 C 136.400 122.559,136.636 122.400,136.925 122.400 C 137.213 122.400,137.836 122.040,138.308 121.600 C 138.780 121.160,139.272 120.800,139.400 120.800 C 139.528 120.800,140.020 120.440,140.492 120.000 C 142.007 118.588,147.944 119.525,148.733 121.300 C 148.807 121.465,149.212 121.600,149.633 121.600 C 150.055 121.600,150.400 121.780,150.400 122.000 C 150.400 122.220,150.760 122.400,151.200 122.400 C 151.640 122.400,152.000 122.580,152.000 122.800 C 152.000 123.020,152.345 123.200,152.767 123.200 C 153.188 123.200,153.593 123.338,153.667 123.506 C 153.857 123.942,158.067 125.200,159.335 125.200 C 159.921 125.200,160.400 125.380,160.400 125.600 C 160.400 125.820,161.300 126.000,162.400 126.000 C 163.500 126.000,164.400 126.180,164.400 126.400 C 164.400 126.651,167.000 126.800,171.400 126.800 C 175.800 126.800,178.400 126.651,178.400 126.400 C 178.400 126.180,179.300 126.000,180.400 126.000 C 181.500 126.000,182.400 125.820,182.400 125.600 C 182.400 125.380,183.026 125.200,183.792 125.200 C 185.472 125.200,191.454 122.980,192.400 122.005 C 192.510 121.891,193.095 121.544,193.700 121.232 C 194.305 120.920,194.800 120.515,194.800 120.332 C 194.800 120.150,195.160 120.000,195.600 120.000 C 196.040 120.000,196.400 119.820,196.400 119.600 C 196.400 119.380,196.760 119.200,197.200 119.200 C 197.640 119.200,198.000 119.020,198.000 118.800 C 198.000 118.580,198.900 118.400,200.000 118.400 C 201.100 118.400,202.000 118.580,202.000 118.800 C 202.000 119.020,202.360 119.200,202.800 119.200 C 203.240 119.200,203.600 119.380,203.600 119.600 C 203.600 119.820,203.960 120.000,204.400 120.000 C 204.840 120.000,205.200 120.150,205.200 120.332 C 205.200 120.515,205.695 120.920,206.300 121.232 C 206.905 121.544,207.490 121.891,207.600 122.005 C 208.546 122.980,214.528 125.200,216.208 125.200 C 216.974 125.200,217.600 125.380,217.600 125.600 C 217.600 125.820,218.500 126.000,219.600 126.000 C 220.700 126.000,221.600 126.180,221.600 126.400 C 221.600 126.651,224.200 126.800,228.600 126.800 C 233.000 126.800,235.600 126.651,235.600 126.400 C 235.600 126.180,236.500 126.000,237.600 126.000 C 238.700 126.000,239.600 125.820,239.600 125.600 C 239.600 125.380,240.079 125.200,240.665 125.200 C 241.933 125.200,246.143 123.942,246.333 123.506 C 246.407 123.338,246.812 123.200,247.233 123.200 C 247.655 123.200,248.000 123.020,248.000 122.800 C 248.000 122.580,248.360 122.400,248.800 122.400 C 249.240 122.400,249.600 122.220,249.600 122.000 C 249.600 121.780,249.945 121.600,250.367 121.600 C 250.788 121.600,251.193 121.465,251.267 121.300 C 252.056 119.525,257.993 118.588,259.508 120.000 C 259.980 120.440,260.472 120.800,260.600 120.800 C 260.728 120.800,261.220 121.160,261.692 121.600 C 262.164 122.040,262.787 122.400,263.075 122.400 C 263.364 122.400,263.600 122.559,263.600 122.753 C 263.600 123.274,267.860 125.200,269.011 125.200 C 269.555 125.200,270.000 125.380,270.000 125.600 C 270.000 125.820,270.720 126.000,271.600 126.000 C 272.480 126.000,273.200 126.180,273.200 126.400 C 273.200 126.648,275.333 126.800,278.800 126.800 C 282.267 126.800,284.400 126.648,284.400 126.400 C 284.400 126.180,285.030 126.000,285.800 126.000 C 286.570 126.000,287.200 125.820,287.200 125.600 C 287.200 125.380,287.678 125.200,288.262 125.200 C 289.901 125.200,294.221 122.571,296.875 119.958 C 298.192 118.661,299.484 117.600,299.747 117.600 C 300.009 117.600,300.483 117.240,300.800 116.800 C 301.634 115.643,305.566 115.643,306.400 116.800 C 306.717 117.240,307.170 117.600,307.406 117.600 C 307.642 117.600,308.907 118.639,310.217 119.908 C 312.759 122.371,317.845 125.200,319.730 125.200 C 320.318 125.200,320.800 125.380,320.800 125.600 C 320.800 125.820,321.700 126.000,322.800 126.000 C 323.900 126.000,324.800 126.180,324.800 126.400 C 324.800 126.639,326.333 126.800,328.600 126.800 C 330.867 126.800,332.400 126.639,332.400 126.400 C 332.400 126.180,333.300 126.000,334.400 126.000 C 335.500 126.000,336.400 125.820,336.400 125.600 C 336.400 125.380,336.849 125.200,337.397 125.200 C 338.537 125.200,341.600 123.965,341.600 123.506 C 341.600 123.338,341.960 123.200,342.400 123.200 C 342.840 123.200,343.200 123.020,343.200 122.800 C 343.200 122.580,343.443 122.400,343.739 122.400 C 344.035 122.400,345.413 121.320,346.800 120.000 C 348.187 118.680,349.525 117.600,349.773 117.600 C 350.021 117.600,350.483 117.240,350.800 116.800 C 351.634 115.643,355.566 115.643,356.400 116.800 C 356.717 117.240,357.194 117.600,357.460 117.600 C 357.726 117.600,358.958 118.664,360.199 119.965 C 362.603 122.485,367.146 125.200,368.958 125.200 C 369.531 125.200,370.000 125.380,370.000 125.600 C 370.000 125.820,370.619 126.000,371.376 126.000 C 372.133 126.000,372.864 126.180,373.000 126.400 C 373.328 126.931,383.472 126.931,383.800 126.400 C 383.936 126.180,384.757 126.000,385.624 126.000 C 386.491 126.000,387.200 125.820,387.200 125.600 C 387.200 125.380,387.646 125.200,388.192 125.200 C 389.426 125.200,392.400 124.038,392.400 123.557 C 392.400 123.360,392.760 123.200,393.200 123.200 C 393.640 123.200,394.000 123.050,394.000 122.868 C 394.000 122.685,394.495 122.281,395.100 121.969 C 396.422 121.289,398.800 118.838,398.800 118.155 C 398.800 117.886,399.025 117.592,399.300 117.500 C 399.667 117.378,399.800 115.901,399.800 111.948 C 399.800 106.007,400.090 106.857,396.921 103.500 C 395.892 102.410,4.108 102.410,3.079 103.500 M38.000 136.000 C 38.000 136.220,37.640 136.400,37.200 136.400 C 36.760 136.400,36.400 136.580,36.400 136.800 C 36.400 137.020,35.860 137.200,35.200 137.200 C 34.540 137.200,34.000 137.380,34.000 137.600 C 34.000 137.820,33.460 138.000,32.800 138.000 C 32.140 138.000,31.600 138.180,31.600 138.400 C 31.600 138.620,30.700 138.800,29.600 138.800 C 28.500 138.800,27.600 138.980,27.600 139.200 C 27.600 139.449,25.341 139.600,21.624 139.600 C 18.071 139.600,15.547 139.438,15.400 139.200 C 14.772 138.185,10.518 138.744,10.080 139.900 C 8.607 143.779,8.813 163.729,10.397 170.600 C 10.651 171.700,10.953 173.365,11.069 174.300 C 11.186 175.235,11.442 176.000,11.640 176.000 C 11.838 176.000,12.000 176.619,12.000 177.376 C 12.000 178.133,12.180 178.864,12.400 179.000 C 12.620 179.136,12.800 179.599,12.800 180.029 C 12.800 180.784,12.944 181.174,13.938 183.095 C 14.192 183.587,14.400 184.352,14.400 184.795 C 14.400 185.238,14.580 185.600,14.800 185.600 C 15.020 185.600,15.200 186.039,15.200 186.576 C 15.200 187.113,15.380 187.664,15.600 187.800 C 15.820 187.936,16.000 188.397,16.000 188.824 C 16.000 189.251,16.180 189.600,16.400 189.600 C 16.620 189.600,16.800 190.050,16.800 190.600 C 16.800 191.150,16.980 191.600,17.200 191.600 C 17.420 191.600,17.600 191.960,17.600 192.400 C 17.600 192.840,17.780 193.200,18.000 193.200 C 18.220 193.200,18.400 193.740,18.400 194.400 C 18.400 195.060,18.580 195.600,18.800 195.600 C 19.020 195.600,19.200 196.140,19.200 196.800 C 19.200 197.460,19.380 198.000,19.600 198.000 C 19.820 198.000,20.000 198.439,20.000 198.976 C 20.000 199.513,20.180 200.064,20.400 200.200 C 20.620 200.336,20.800 200.797,20.800 201.224 C 20.800 201.651,20.980 202.000,21.200 202.000 C 21.420 202.000,21.600 202.540,21.600 203.200 C 21.600 203.860,21.780 204.400,22.000 204.400 C 22.220 204.400,22.400 205.019,22.400 205.776 C 22.400 206.533,22.580 207.264,22.800 207.400 C 23.020 207.536,23.200 208.267,23.200 209.024 C 23.200 209.781,23.380 210.400,23.600 210.400 C 23.820 210.400,24.000 211.120,24.000 212.000 C 24.000 212.880,24.147 213.600,24.327 213.600 C 24.507 213.600,24.885 215.355,25.168 217.500 C 25.451 219.645,25.853 222.570,26.060 224.000 C 27.013 230.561,27.280 235.118,27.445 247.569 C 27.561 256.412,27.482 261.078,27.211 261.349 C 26.985 261.575,26.800 263.218,26.800 265.000 C 26.800 266.782,26.636 268.411,26.435 268.620 C 26.235 268.829,25.981 269.990,25.871 271.200 C 25.529 274.991,24.642 280.000,24.314 280.000 C 24.141 280.000,24.000 280.720,24.000 281.600 C 24.000 282.480,23.820 283.200,23.600 283.200 C 23.380 283.200,23.200 283.740,23.200 284.400 C 23.200 285.060,23.020 285.600,22.800 285.600 C 22.580 285.600,22.400 286.320,22.400 287.200 C 22.400 288.080,22.220 288.800,22.000 288.800 C 21.780 288.800,21.600 289.340,21.600 290.000 C 21.600 290.660,21.420 291.200,21.200 291.200 C 20.980 291.200,20.800 291.560,20.800 292.000 C 20.800 292.440,20.620 292.800,20.400 292.800 C 20.180 292.800,20.000 293.250,20.000 293.800 C 20.000 294.350,19.820 294.800,19.600 294.800 C 19.380 294.800,19.200 295.340,19.200 296.000 C 19.200 296.660,19.020 297.200,18.800 297.200 C 18.580 297.200,18.400 297.560,18.400 298.000 C 18.400 298.440,18.220 298.800,18.000 298.800 C 17.780 298.800,17.600 299.160,17.600 299.600 C 17.600 300.040,17.420 300.400,17.200 300.400 C 16.980 300.400,16.800 300.839,16.800 301.376 C 16.800 301.913,16.620 302.464,16.400 302.600 C 16.180 302.736,16.000 303.197,16.000 303.624 C 16.000 304.051,15.820 304.400,15.600 304.400 C 15.380 304.400,15.200 304.760,15.200 305.200 C 15.200 305.640,15.020 306.000,14.800 306.000 C 14.580 306.000,14.400 306.360,14.400 306.800 C 14.400 307.240,14.253 307.600,14.074 307.600 C 13.755 307.600,13.307 308.354,10.510 313.600 C 9.747 315.030,8.961 316.371,8.762 316.580 C 8.563 316.789,8.400 317.284,8.400 317.680 C 8.400 318.076,8.220 318.400,8.000 318.400 C 7.780 318.400,7.600 318.760,7.600 319.200 C 7.600 319.640,7.420 320.000,7.200 320.000 C 6.980 320.000,6.800 320.236,6.800 320.525 C 6.800 320.813,6.440 321.436,6.000 321.908 C 5.560 322.380,5.200 323.044,5.200 323.383 C 5.200 323.722,5.020 324.000,4.800 324.000 C 4.580 324.000,4.400 324.270,4.400 324.600 C 4.400 325.122,6.220 325.200,18.381 325.200 L 32.362 325.200 33.581 323.428 C 34.251 322.453,34.800 321.463,34.800 321.228 C 34.800 320.993,34.980 320.800,35.200 320.800 C 35.420 320.800,35.600 320.455,35.600 320.033 C 35.600 319.612,35.735 319.207,35.900 319.133 C 36.276 318.966,37.575 316.836,37.871 315.900 C 37.993 315.515,38.252 315.200,38.447 315.200 C 38.641 315.200,38.800 314.855,38.800 314.433 C 38.800 314.012,38.957 313.607,39.149 313.533 C 39.570 313.373,41.600 309.419,41.600 308.760 C 41.600 308.504,41.929 308.003,42.330 307.647 C 42.732 307.291,43.316 306.415,43.628 305.700 C 43.940 304.985,44.331 304.400,44.498 304.400 C 44.664 304.400,44.800 304.040,44.800 303.600 C 44.800 303.160,44.980 302.800,45.200 302.800 C 45.420 302.800,45.600 302.440,45.600 302.000 C 45.600 301.560,45.780 301.200,46.000 301.200 C 46.220 301.200,46.400 300.840,46.400 300.400 C 46.400 299.960,46.580 299.600,46.800 299.600 C 47.020 299.600,47.200 299.240,47.200 298.800 C 47.200 298.360,47.380 298.000,47.600 298.000 C 47.820 298.000,48.000 297.640,48.000 297.200 C 48.000 296.760,48.180 296.400,48.400 296.400 C 48.620 296.400,48.800 296.051,48.800 295.624 C 48.800 295.197,48.980 294.736,49.200 294.600 C 49.420 294.464,49.600 293.913,49.600 293.376 C 49.600 292.839,49.780 292.400,50.000 292.400 C 50.220 292.400,50.400 292.128,50.400 291.795 C 50.400 291.462,50.580 290.832,50.800 290.395 C 51.020 289.958,51.380 289.242,51.600 288.805 C 51.820 288.368,52.000 287.648,52.000 287.205 C 52.000 286.762,52.180 286.400,52.400 286.400 C 52.620 286.400,52.800 285.871,52.800 285.224 C 52.800 284.577,52.980 283.936,53.200 283.800 C 53.420 283.664,53.600 283.034,53.600 282.400 C 53.600 281.766,53.780 281.136,54.000 281.000 C 54.220 280.864,54.400 280.234,54.400 279.600 C 54.400 278.966,54.580 278.336,54.800 278.200 C 55.020 278.064,55.200 277.153,55.200 276.176 C 55.200 275.199,55.380 274.400,55.600 274.400 C 55.820 274.400,56.000 273.626,56.000 272.680 C 56.000 271.734,56.164 270.789,56.365 270.580 C 58.149 268.721,58.183 224.000,56.400 224.000 C 56.218 224.000,55.973 222.875,55.856 221.500 C 55.538 217.747,55.157 215.620,54.758 215.374 C 54.561 215.252,54.400 214.544,54.400 213.800 C 54.400 213.056,54.220 212.336,54.000 212.200 C 53.780 212.064,53.600 211.333,53.600 210.576 C 53.600 209.819,53.420 209.200,53.200 209.200 C 52.980 209.200,52.800 208.660,52.800 208.000 C 52.800 207.340,52.620 206.800,52.400 206.800 C 52.180 206.800,52.000 206.260,52.000 205.600 C 52.000 204.940,51.820 204.400,51.600 204.400 C 51.380 204.400,51.200 203.860,51.200 203.200 C 51.200 202.540,51.020 202.000,50.800 202.000 C 50.580 202.000,50.400 201.561,50.400 201.024 C 50.400 200.487,50.220 199.936,50.000 199.800 C 49.780 199.664,49.600 199.203,49.600 198.776 C 49.600 198.349,49.420 198.000,49.200 198.000 C 48.980 198.000,48.800 197.460,48.800 196.800 C 48.800 196.140,48.620 195.600,48.400 195.600 C 48.180 195.600,48.000 195.251,48.000 194.824 C 48.000 194.397,47.820 193.936,47.600 193.800 C 47.380 193.664,47.200 193.203,47.200 192.776 C 47.200 192.349,47.020 192.000,46.800 192.000 C 46.580 192.000,46.400 191.460,46.400 190.800 C 46.400 190.140,46.220 189.600,46.000 189.600 C 45.780 189.600,45.600 189.060,45.600 188.400 C 45.600 187.740,45.420 187.200,45.200 187.200 C 44.980 187.200,44.800 186.660,44.800 186.000 C 44.800 185.340,44.620 184.800,44.400 184.800 C 44.180 184.800,44.000 184.361,44.000 183.824 C 44.000 183.287,43.820 182.736,43.600 182.600 C 43.380 182.464,43.200 181.913,43.200 181.376 C 43.200 180.839,43.020 180.400,42.800 180.400 C 42.580 180.400,42.400 179.768,42.400 178.995 C 42.400 178.222,42.236 177.277,42.036 176.895 C 41.636 176.131,40.981 172.159,40.338 166.600 C 39.883 162.666,39.796 145.206,40.202 139.300 L 40.457 135.600 39.228 135.600 C 38.553 135.600,38.000 135.780,38.000 136.000 M359.798 139.300 C 360.204 145.206,360.117 162.666,359.662 166.600 C 359.019 172.159,358.364 176.131,357.964 176.895 C 357.764 177.277,357.600 178.222,357.600 178.995 C 357.600 179.768,357.420 180.400,357.200 180.400 C 356.980 180.400,356.800 180.839,356.800 181.376 C 356.800 181.913,356.620 182.464,356.400 182.600 C 356.180 182.736,356.000 183.287,356.000 183.824 C 356.000 184.361,355.820 184.800,355.600 184.800 C 355.380 184.800,355.200 185.340,355.200 186.000 C 355.200 186.660,355.020 187.200,354.800 187.200 C 354.580 187.200,354.400 187.740,354.400 188.400 C 354.400 189.060,354.220 189.600,354.000 189.600 C 353.780 189.600,353.600 190.140,353.600 190.800 C 353.600 191.460,353.420 192.000,353.200 192.000 C 352.980 192.000,352.800 192.349,352.800 192.776 C 352.800 193.203,352.620 193.664,352.400 193.800 C 352.180 193.936,352.000 194.397,352.000 194.824 C 352.000 195.251,351.820 195.600,351.600 195.600 C 351.380 195.600,351.200 196.140,351.200 196.800 C 351.200 197.460,351.020 198.000,350.800 198.000 C 350.580 198.000,350.400 198.439,350.400 198.976 C 350.400 199.513,350.220 200.064,350.000 200.200 C 349.780 200.336,349.600 200.797,349.600 201.224 C 349.600 201.651,349.420 202.000,349.200 202.000 C 348.980 202.000,348.800 202.540,348.800 203.200 C 348.800 203.860,348.620 204.400,348.400 204.400 C 348.180 204.400,348.000 204.940,348.000 205.600 C 348.000 206.260,347.820 206.800,347.600 206.800 C 347.380 206.800,347.200 207.340,347.200 208.000 C 347.200 208.660,347.020 209.200,346.800 209.200 C 346.580 209.200,346.400 209.819,346.400 210.576 C 346.400 211.333,346.220 212.064,346.000 212.200 C 345.780 212.336,345.600 213.056,345.600 213.800 C 345.600 214.544,345.439 215.252,345.242 215.374 C 344.843 215.620,344.462 217.747,344.144 221.500 C 344.027 222.875,343.782 224.000,343.600 224.000 C 341.817 224.000,341.851 268.721,343.635 270.580 C 343.836 270.789,344.000 271.734,344.000 272.680 C 344.000 273.626,344.180 274.400,344.400 274.400 C 344.620 274.400,344.800 275.199,344.800 276.176 C 344.800 277.153,344.980 278.064,345.200 278.200 C 345.420 278.336,345.600 278.829,345.600 279.295 C 345.600 280.196,346.265 282.539,346.849 283.695 C 347.042 284.077,347.200 284.842,347.200 285.395 C 347.200 285.948,347.380 286.400,347.600 286.400 C 347.820 286.400,348.000 286.839,348.000 287.376 C 348.000 287.913,348.180 288.464,348.400 288.600 C 348.620 288.736,348.800 289.287,348.800 289.824 C 348.800 290.361,348.980 290.800,349.200 290.800 C 349.420 290.800,349.600 291.160,349.600 291.600 C 349.600 292.040,349.780 292.400,350.000 292.400 C 350.220 292.400,350.400 292.839,350.400 293.376 C 350.400 293.913,350.580 294.464,350.800 294.600 C 351.020 294.736,351.200 295.197,351.200 295.624 C 351.200 296.051,351.380 296.400,351.600 296.400 C 351.820 296.400,352.000 296.760,352.000 297.200 C 352.000 297.640,352.180 298.000,352.400 298.000 C 352.620 298.000,352.800 298.360,352.800 298.800 C 352.800 299.240,352.980 299.600,353.200 299.600 C 353.420 299.600,353.600 299.960,353.600 300.400 C 353.600 300.840,353.780 301.200,354.000 301.200 C 354.220 301.200,354.400 301.560,354.400 302.000 C 354.400 302.440,354.580 302.800,354.800 302.800 C 355.020 302.800,355.200 303.160,355.200 303.600 C 355.200 304.040,355.380 304.400,355.600 304.400 C 355.820 304.400,356.000 304.760,356.000 305.200 C 356.000 305.640,356.180 306.000,356.400 306.000 C 356.620 306.000,356.800 306.230,356.800 306.512 C 356.800 306.793,357.160 307.283,357.600 307.600 C 358.040 307.917,358.400 308.413,358.400 308.702 C 358.400 309.404,360.409 313.365,360.851 313.533 C 361.043 313.607,361.200 313.997,361.200 314.400 C 361.200 314.803,361.335 315.193,361.500 315.267 C 361.876 315.434,363.175 317.564,363.471 318.500 C 363.593 318.885,363.852 319.200,364.047 319.200 C 364.241 319.200,364.400 319.560,364.400 320.000 C 364.400 320.440,364.536 320.800,364.702 320.800 C 364.869 320.800,365.226 321.295,365.497 321.900 C 365.767 322.505,366.417 323.495,366.941 324.100 L 367.893 325.200 381.747 325.200 C 393.794 325.200,395.600 325.122,395.600 324.600 C 395.600 324.270,395.420 324.000,395.200 324.000 C 394.980 324.000,394.800 323.640,394.800 323.200 C 394.800 322.760,394.620 322.400,394.400 322.400 C 394.180 322.400,394.000 322.080,394.000 321.688 C 394.000 321.297,393.640 320.717,393.200 320.400 C 392.760 320.083,392.400 319.503,392.400 319.112 C 392.400 318.720,392.220 318.400,392.000 318.400 C 391.780 318.400,391.600 318.145,391.600 317.832 C 391.600 317.302,390.451 314.845,389.995 314.400 C 389.882 314.290,389.344 313.300,388.800 312.200 C 388.256 311.100,387.718 310.110,387.605 310.000 C 387.213 309.618,385.949 307.396,385.729 306.700 C 385.607 306.315,385.348 306.000,385.153 306.000 C 384.959 306.000,384.800 305.640,384.800 305.200 C 384.800 304.760,384.620 304.400,384.400 304.400 C 384.180 304.400,384.000 303.961,384.000 303.424 C 384.000 302.887,383.820 302.336,383.600 302.200 C 383.380 302.064,383.200 301.603,383.200 301.176 C 383.200 300.749,383.020 300.400,382.800 300.400 C 382.580 300.400,382.400 300.040,382.400 299.600 C 382.400 299.160,382.220 298.800,382.000 298.800 C 381.780 298.800,381.600 298.440,381.600 298.000 C 381.600 297.560,381.420 297.200,381.200 297.200 C 380.980 297.200,380.800 296.660,380.800 296.000 C 380.800 295.340,380.620 294.800,380.400 294.800 C 380.180 294.800,380.000 294.350,380.000 293.800 C 380.000 293.250,379.820 292.800,379.600 292.800 C 379.380 292.800,379.200 292.440,379.200 292.000 C 379.200 291.560,379.020 291.200,378.800 291.200 C 378.580 291.200,378.400 290.660,378.400 290.000 C 378.400 289.340,378.220 288.800,378.000 288.800 C 377.780 288.800,377.600 288.080,377.600 287.200 C 377.600 286.320,377.420 285.600,377.200 285.600 C 376.980 285.600,376.800 285.060,376.800 284.400 C 376.800 283.740,376.620 283.200,376.400 283.200 C 376.180 283.200,376.000 282.480,376.000 281.600 C 376.000 280.720,375.859 280.000,375.686 280.000 C 375.368 280.000,374.489 275.084,374.147 271.400 C 374.045 270.300,373.796 269.040,373.593 268.600 C 372.977 267.260,372.739 261.616,372.717 247.800 C 372.698 235.640,372.937 230.991,373.943 224.000 C 374.149 222.570,374.549 219.645,374.832 217.500 C 375.115 215.355,375.493 213.600,375.673 213.600 C 375.853 213.600,376.000 212.880,376.000 212.000 C 376.000 211.120,376.180 210.400,376.400 210.400 C 376.620 210.400,376.800 209.781,376.800 209.024 C 376.800 208.267,376.980 207.536,377.200 207.400 C 377.420 207.264,377.600 206.533,377.600 205.776 C 377.600 205.019,377.780 204.400,378.000 204.400 C 378.220 204.400,378.400 203.961,378.400 203.424 C 378.400 202.887,378.580 202.336,378.800 202.200 C 379.020 202.064,379.200 201.603,379.200 201.176 C 379.200 200.749,379.380 200.400,379.600 200.400 C 379.820 200.400,380.000 199.860,380.000 199.200 C 380.000 198.540,380.180 198.000,380.400 198.000 C 380.620 198.000,380.800 197.460,380.800 196.800 C 380.800 196.140,380.980 195.600,381.200 195.600 C 381.420 195.600,381.600 195.060,381.600 194.400 C 381.600 193.740,381.780 193.200,382.000 193.200 C 382.220 193.200,382.400 192.840,382.400 192.400 C 382.400 191.960,382.580 191.600,382.800 191.600 C 383.020 191.600,383.200 191.150,383.200 190.600 C 383.200 190.050,383.380 189.600,383.600 189.600 C 383.820 189.600,384.000 189.240,384.000 188.800 C 384.000 188.360,384.180 188.000,384.400 188.000 C 384.620 188.000,384.800 187.460,384.800 186.800 C 384.800 186.140,384.947 185.600,385.128 185.600 C 385.308 185.600,385.704 184.689,386.007 183.575 C 386.310 182.461,386.703 181.460,386.879 181.351 C 387.056 181.242,387.200 180.724,387.200 180.200 C 387.200 179.676,387.380 179.136,387.600 179.000 C 387.820 178.864,388.000 178.234,388.000 177.600 C 388.000 176.966,388.180 176.336,388.400 176.200 C 388.620 176.064,388.800 175.254,388.800 174.400 C 388.800 173.546,388.980 172.736,389.200 172.600 C 389.420 172.464,389.600 171.679,389.600 170.856 C 389.600 170.033,389.764 169.189,389.964 168.980 C 391.041 167.857,391.207 144.602,390.174 139.700 C 389.972 138.739,384.800 138.258,384.800 139.200 C 384.800 139.449,382.467 139.600,378.600 139.600 C 374.733 139.600,372.400 139.449,372.400 139.200 C 372.400 138.980,371.500 138.800,370.400 138.800 C 369.300 138.800,368.400 138.620,368.400 138.400 C 368.400 138.180,367.860 138.000,367.200 138.000 C 366.540 138.000,366.000 137.820,366.000 137.600 C 366.000 137.380,365.460 137.200,364.800 137.200 C 364.140 137.200,363.600 137.020,363.600 136.800 C 363.600 136.580,363.240 136.400,362.800 136.400 C 362.360 136.400,362.000 136.220,362.000 136.000 C 362.000 135.780,361.447 135.600,360.772 135.600 L 359.543 135.600 359.798 139.300 " stroke="none" fill="#040404" fill-rule="evenodd"></path><path id="path1" d="" stroke="none" fill="#080404" fill-rule="evenodd"></path><path id="path2" d="" stroke="none" fill="#080404" fill-rule="evenodd"></path><path id="path3" d="" stroke="none" fill="#080404" fill-rule="evenodd"></path><path id="path4" d="" stroke="none" fill="#080404" fill-rule="evenodd"></path></g></svg>